<svg xmlns="http://www.w3.org/2000/svg" fill="#79589F" viewBox="1 1 14 14">
  <g>
    <path fill-rule="evenodd"
      d="M8.5 6.5l2.885 3.71c.34.436.172.79-.384.79H9.495a.49.49 0 00-.495.49v3.02a.49.49 0 01-.505.49h-.99A.495.495 0 017 14.51v-3.02a.49.49 0 00-.495-.49H4.999c-.552 0-.724-.347-.38-.78 0 0 2.737-3.442 2.881-3.72.144-.208.856-.208 1 0zm.383-5.31l5.23 2.712c.49.254.887.91.887 1.467v6.199c0 .565-.397 1.213-.887 1.467l-2.52 1.306c-.241.125-.458.012-.486-.275l-.023-.23a.78.78 0 01.4-.727l2.065-1.034a.892.892 0 00.451-.732V5.615c0-.28-.2-.607-.451-.734l-5.098-2.57a1.122 1.122 0 00-.902 0l-5.098 2.57A.896.896 0 002 5.615v5.728c0 .28.2.607.451.732l2.066 1.034c.248.125.428.44.4.728l-.024.23c-.027.278-.244.402-.486.276l-2.521-1.308C1.396 12.78 1 12.124 1 11.568v-6.2c0-.565.397-1.212.886-1.466L7.11 1.19c.49-.255 1.283-.254 1.773 0z"></path>
  </g>
</svg>
