<svg xmlns="http://www.w3.org/2000/svg" viewBox="0 0 16 16" width="16px" height="16px"><g><path d="M12.98 8.027l.556.223c.17.07.234.219.165.389l-.138.34c-.04.158.02.38.13.474l.371.372c.124.124.3.12.45.057l.33-.14c.15-.064.32.005.337.21l.28.657a.29.29 0 01-.156.383l-.33.14c-.15.064-.305.2-.271.362l.01.524a.393.393 0 00.251.423l.342.137c.171.069.235.218.165.389l-.224.553c-.07.17-.22.234-.39.165l-.343-.137c-.158-.039-.38.02-.475.131l-.374.37c-.125.123-.121.298-.058.447l.127.3a.29.29 0 01-.155.382l-.66.28a.292.292 0 01-.386-.155l-.14-.328c-.063-.15-.187-.274-.362-.27l-.527.012a.396.396 0 00-.425.25l-.138.34c-.07.17-.22.234-.39.166l-.556-.223c-.17-.07-.234-.219-.165-.389l.138-.34c.04-.158-.02-.38-.13-.474l-.371-.372c-.124-.124-.3-.12-.45-.057l-.33.14a.292.292 0 01-.385-.154l-.28-.658a.29.29 0 01.156-.383l.33-.14c.15-.063.305-.2.29-.404l-.012-.524a.393.393 0 00-.25-.423l-.342-.138c-.171-.068-.235-.218-.166-.388l.225-.554c.07-.17.22-.233.39-.165l.343.138c.158.038.38-.02.475-.131l.374-.37c.125-.123.121-.298.058-.448l-.14-.328c-.064-.15.036-.333.186-.396l.63-.267a.292.292 0 01.385.154l.14.33c.063.148.2.302.405.286l.527-.012a.396.396 0 00.425-.25l.138-.34c.07-.17.22-.234.39-.166zM8.883.691l5.23 2.71c.49.255.887.912.887 1.468v4.03a1.184 1.184 0 00-.448.002A1.195 1.195 0 0014 7.66V6.651l-1.158.6a1.195 1.195 0 00-1.057.548l-.017.009a1.225 1.225 0 00-1.104-.555l2.989-1.549c.16-.083.347-.39.347-.579v-.256c0-.184-.19-.498-.347-.58l-5.23-2.71c-.202-.105-.652-.105-.852 0l-5.224 2.71c-.16.084-.347.39-.347.58v.256c0 .184.19.498.347.58l5.224 2.71c.2.105.65.105.852 0l.686-.355c-.179.262-.26.59-.196.917a1.196 1.196 0 00-1.216.498 1.776 1.776 0 01-.587-.172L2 6.651v4.417c0 .184.19.497.347.58l5.224 2.71c.119.062.325.087.516.076.26.164.579.227.892.165-.037.2-.024.397.034.58l-.13.067c-.49.254-1.284.254-1.773 0l-5.224-2.711C1.396 12.28 1 11.624 1 11.068v-6.2c0-.565.397-1.212.886-1.466L7.11.69C7.6.436 8.393.437 8.883.69zm2.239 9.423a1.768 1.768 0 00-1.008 2.264 1.768 1.768 0 002.264 1.008 1.768 1.768 0 001.008-2.264 1.768 1.768 0 00-2.264-1.008zM9 6v1H7V6h2zM6 4.5v1H4v-1h2zm6 0v1h-2v-1h2zM9 3v1H7V3h2z"></path></g></svg>