<svg xmlns="http://www.w3.org/2000/svg" viewBox="0 0 16 16" width="16px" height="16px"><g><path fill-rule="evenodd" d="M6.919 13.912l.432.235c.392.214.909.212 1.297 0l.308-.167.48.877-.308.168a2.364 2.364 0 01-2.256 0l-.431-.235.478-.878zm5.349-1.737l.478.878-2.37 1.292-.48-.877 2.372-1.293zm-8.66-.068l2.37 1.292-.477.878-2.371-1.292.478-.878zM15 10.377v.217c0 .762-.43 1.464-1.126 1.845l-.188.102-.48-.88.189-.101c.373-.203.605-.573.605-.965v-.219h1zm-13-.143v.361c0 .392.232.76.668.999l-.478.879-.062-.034C1.429 12.058 1 11.356 1 10.594v-.36h1zm0-3.399v2.33H1v-2.33h1zm13 0v2.33h-1v-2.33h1zM2.19 3.53l.478.878c-.436.238-.668.607-.668.998v.361H1v-.36c0-.76.429-1.462 1.128-1.843l.062-.034zm11.496-.069l.188.103C14.57 3.943 15 4.646 15 5.407v.217h-1v-.219c0-.39-.232-.76-.605-.964l-.188-.102.479-.879zM5.5 1.725l.478.877-2.371 1.292-.478-.877L5.5 1.725zm4.874-.068l2.371 1.292-.478.877-2.371-1.292.478-.877zM8 .693c.39 0 .779.095 1.128.285l.307.167-.48.877-.307-.168a1.4 1.4 0 00-1.297.001l-.432.235-.478-.877.431-.235C7.222.788 7.611.693 8 .693z"></path></g></svg>