<svg xmlns="http://www.w3.org/2000/svg" viewBox="0 0 16 16" width="16px" height="16px"><g><path fill-rule="evenodd" d="M9.128.985l4.745 2.586C14.57 3.951 15 4.653 15 5.414v5.172c0 .76-.43 1.463-1.127 1.843l-4.745 2.586a2.37 2.37 0 01-2.255 0l-4.745-2.586C1.43 12.05 1 11.346 1 10.586V5.414c0-.76.43-1.462 1.128-1.843L6.873.985a2.374 2.374 0 012.255 0zM5.333 4.167a1.33 1.33 0 00-.666 2.479V9.52A1.327 1.327 0 005.333 12 1.33 1.33 0 006 9.52V6.647a1.327 1.327 0 00-.667-2.48zM9 3.5l-2.333 2L9 7.5V6.167s1 0 1 1.333v2.02a1.327 1.327 0 00.667 2.48 1.33 1.33 0 00.666-2.48V7.5c0-.667 0-2.667-2.333-2.667V3.5zm1.667 6.5c.363 0 .666.303.666.667a.673.673 0 01-.666.666.673.673 0 01-.667-.666c0-.364.303-.667.667-.667zm-5.334 0c.364 0 .667.303.667.667a.673.673 0 01-.667.666.673.673 0 01-.666-.666c0-.364.303-.667.666-.667zm0-5.167c.364 0 .667.303.667.667a.673.673 0 01-.667.667.673.673 0 01-.666-.667c0-.364.303-.667.666-.667z"></path></g></svg>