<svg xmlns="http://www.w3.org/2000/svg" viewBox="0 0 16 16" width="16px" height="16px"><g><path fill-rule="evenodd" d="M10 7V5.998a2 2 0 00-4 0V7h-.403A.598.598 0 005 7.59v2.82c0 .328.267.59.597.59h4.806a.598.598 0 00.597-.59V7.59a.593.593 0 00-.597-.59H10zM9 7H7V5.999a1 1 0 012 0V7zM6.873.985a2.374 2.374 0 012.255 0l4.745 2.586C14.57 3.951 15 4.653 15 5.414v5.172c0 .76-.43 1.463-1.127 1.843l-4.745 2.586a2.37 2.37 0 01-2.255 0l-4.745-2.586C1.43 12.05 1 11.346 1 10.586V5.414c0-.76.43-1.462 1.128-1.843L6.873.985z"></path></g></svg>