<svg xmlns="http://www.w3.org/2000/svg" viewBox="0 0 16 16" width="16px" height="16px"><g><path fill-rule="evenodd" d="M9.128.985l4.745 2.586C14.57 3.951 15 4.653 15 5.414v5.172c0 .76-.43 1.463-1.127 1.843l-4.745 2.586a2.37 2.37 0 01-2.255 0l-4.745-2.586C1.43 12.05 1 11.346 1 10.586V5.414c0-.76.43-1.462 1.128-1.843L6.873.985a2.374 2.374 0 012.255 0zM6.14 7H3.367v.738h1.746l-1.886 2.727V11h3.026v-.716H4.247L6.14 7.557V7zm3.333-1H6.7v.738h1.747L6.56 9.465V10h3.027v-.716H7.58l1.893-2.727V6zm3.334-1h-2.774v.738h1.747L9.893 8.465V9h3.027v-.716h-2.007l1.894-2.727V5z"></path></g></svg>