<svg xmlns="http://www.w3.org/2000/svg" viewBox="0 0 16 16" width="16px" height="16px"><g><path fill-rule="evenodd" d="M9.128.985l4.745 2.586C14.57 3.951 15 4.653 15 5.414v5.172c0 .76-.43 1.463-1.127 1.843l-4.745 2.586a2.37 2.37 0 01-2.255 0l-4.745-2.586C1.43 12.05 1 11.346 1 10.586V5.414c0-.76.43-1.462 1.128-1.843L6.873.985a2.374 2.374 0 012.255 0zm-.185 1.25a2.014 2.014 0 00-1.885 0L3.092 4.36c-.583.313-.942.89-.942 1.515v4.25c0 .625.359 1.203.942 1.515l3.966 2.125a2.01 2.01 0 001.885 0l3.965-2.125c.583-.312.942-.89.942-1.514V5.875c0-.626-.359-1.202-.942-1.515z"></path></g></svg>