<svg xmlns="http://www.w3.org/2000/svg" viewBox="0 0 16 16" width="16px" height="16px"><g><path fill-rule="evenodd" d="M11.03 1a3.94 3.94 0 00-2.792 1.157l-6.41 6.41A2.827 2.827 0 001 10.564c0 .726.272 1.452.828 2.008.545.545 1.27.817 1.997.817.726 0 1.451-.271 2.008-.828l6.399-6.41c.67-.67.67-1.736.011-2.394a1.707 1.707 0 00-2.405 0l-5.31 5.32.806.806 5.31-5.32c.215-.216.59-.216.794-.012a.582.582 0 010 .806l-6.4 6.41c-.653.654-1.78.646-2.416.011-.658-.658-.642-1.764.012-2.417l6.41-6.398c1.084-1.083 2.927-1.1 4.005-.023 1.089 1.09 1.082 2.944 0 4.028l-6.399 6.41.783.783 6.41-6.41A3.935 3.935 0 0015 4.959a3.94 3.94 0 00-1.157-2.802A3.967 3.967 0 0011.029 1z"></path></g></svg>