<svg xmlns="http://www.w3.org/2000/svg" viewBox="0 0 16 16" width="16px" height="16px"><g><path fill-rule="evenodd" d="M7.825.96a.4.4 0 01.35 0l3.6 1.747a.4.4 0 01.225.36v3.557a.4.4 0 00.225.36l3.55 1.723a.4.4 0 01.225.36v3.866a.4.4 0 01-.225.36l-3.6 1.747a.4.4 0 01-.35 0l-3.65-1.771a.4.4 0 00-.35 0l-3.65 1.771a.4.4 0 01-.35 0l-3.6-1.747a.4.4 0 01-.225-.36V9.067a.4.4 0 01.225-.36l3.55-1.723A.4.4 0 004 6.624V3.067a.4.4 0 01.225-.36zm4.22 7.062a.1.1 0 00-.09 0L9.18 9.411a.1.1 0 000 .178l2.776 1.389a.1.1 0 00.09 0l2.776-1.389a.1.1 0 000-.178zm-8 0a.1.1 0 00-.09 0L1.18 9.411a.1.1 0 000 .178l2.776 1.389a.1.1 0 00.09 0L6.82 9.589a.1.1 0 000-.178zm4-6a.1.1 0 00-.09 0L5.18 3.411a.1.1 0 000 .178l2.776 1.389a.1.1 0 00.09 0l2.776-1.389a.1.1 0 000-.178z"></path></g></svg>