<svg xmlns="http://www.w3.org/2000/svg" viewBox="0 0 16 16" width="16px" height="16px"><g><path fill-rule="evenodd" d="M5.445 8.711a.707.707 0 01.24-.103 2.032 2.032 0 001.052-.6l1.904-2.062a.066.066 0 000-.089.263.263 0 010-.36l.675-.71a.85.85 0 00.23-.46c.266-1.808-1.559-2.897-2.022-2.95a.176.176 0 01-.15-.185.175.175 0 01.164-.173l.171-.013C9.458.87 11.841 3.13 12.982 4.535a.97.97 0 01.216.582l.01.34c0 .228.094.375.234.475.162.116.37.126.555.057.11-.042.233-.069.286-.012l.636.668a.3.3 0 010 .409l-1.388 1.458a.266.266 0 01-.39 0l-.636-.667a.3.3 0 010-.41.369.369 0 00.095-.33.74.74 0 00-.175-.36c-.331-.349-.646-.526-.929-.6a.793.793 0 00-.772.232l-.622.654c-.095.1-.248.1-.343 0l-.036-.038a.059.059 0 00-.086-.001L7.663 8.975a2.23 2.23 0 00-.578 1.112.785.785 0 01-.096.245l-3.803 4.362c-.31.325-.736.403-.953.176l-1.109-1.165c-.217-.228-.142-.676.167-1L5.445 8.71z"></path></g></svg>