<svg xmlns="http://www.w3.org/2000/svg" viewBox="0 0 16 16" width="16px" height="16px"><g><path fill-rule="evenodd" d="M6 2a1 1 0 011.01-1h1.98C9.549 1 10 1.444 10 2h1.991C13.101 2 14 2.894 14 4.003v8.994A2.007 2.007 0 0111.991 15H4.01A2.004 2.004 0 012 12.997V4.003C2 2.897 2.902 2 4.009 2H6zM3 4.995v8.01c0 .54.446.995.995.995h8.01c.54 0 .995-.446.995-.995v-8.01c0-.54-.446-.995-.995-.995h-8.01C3.455 4 3 4.446 3 4.995zM6 5h3v1H6V5zM4 5h1v1H4V5zm0 2h1v1H4V7zm0 4h1v1H4v-1zm0-2h1v1H4V9zm2-2h6v1H6V7zm0 4h5v1H6v-1zm0-2h4v1H6V9zm1-7v1h2V2H7z"></path></g></svg>