<svg xmlns="http://www.w3.org/2000/svg" viewBox="0 0 16 16" width="16px" height="16px"><g><path fill-rule="evenodd" d="M14 8c0 .92-.207 1.793-.578 2.573a3.5 3.5 0 11-6.103 3.39 5.976 5.976 0 01-3.31-1.483l-1.49 1.546L2 9.757l4.151.5-1.448 1.502a4.984 4.984 0 002.32 1.146 3.5 3.5 0 015.657-3.142C12.888 9.213 13 8.62 13 8h1zm-5.357 2.643a.486.486 0 00.002.69l1.08 1.081-1.08 1.081a.486.486 0 10.689.69l1.08-1.082 1.08 1.081a.487.487 0 10.69-.689l-1.081-1.08 1.08-1.082a.486.486 0 10-.688-.689l-1.08 1.081-1.081-1.08a.487.487 0 00-.69-.002zM5.5 0a3.5 3.5 0 013.181 2.038c1.24.14 2.367.659 3.26 1.438L13.5 2l.5 4.286-4.5-.5 1.71-1.62a4.982 4.982 0 00-2.233-1.07A3.5 3.5 0 013.32 6.237 4.989 4.989 0 003 8H2c0-.92.207-1.793.578-2.573A3.5 3.5 0 015.5 0zm1.448 1.91l-2.31 2.53-.843-.924a.488.488 0 00-.727-.004.6.6 0 00.004.796l1.165 1.275a.49.49 0 00.389.164.48.48 0 00.407-.157l2.638-2.888a.597.597 0 00-.002-.79.484.484 0 00-.72-.002z"></path></g></svg>