<svg xmlns="http://www.w3.org/2000/svg" viewBox="0 0 16 16" width="16px" height="16px"><g><path fill-rule="evenodd" d="M13.913 6.858c-.294 0-.587-.117-.705-.41l-.352-.879c-.117-.234-.059-.644.118-.879l.47-.468c.234-.235.234-.527 0-.762l-.764-.76c-.235-.235-.528-.235-.763 0l-.47.468a.712.712 0 01-.88.118l-.88-.352c-.352-.117-.47-.469-.47-.761v-.645A.526.526 0 008.69 1H7.456c-.293 0-.587.234-.587.527v.645c0 .292-.117.585-.41.702l-.88.352c-.236.117-.647.059-.881-.117l-.47-.469c-.235-.234-.528-.234-.763 0l-.763.762c-.235.234-.235.527 0 .761l.47.469a.709.709 0 01.117.878l-.352.88c-.117.35-.47.468-.763.468h-.646A.526.526 0 001 7.385v1.289c0 .293.235.527.528.527h.646c.293 0 .587.117.704.41l.352.879c.118.234.06.644-.117.878l-.47.469c-.234.234-.234.527 0 .761l.763.762c.235.234.529.234.763 0l.47-.469a.712.712 0 01.88-.117l.88.352c.294.117.412.41.412.702v.645c0 .293.234.527.528.527H8.63a.526.526 0 00.528-.527v-.586c0-.293.118-.586.411-.703l.88-.351c.235-.118.646-.059.881.117l.47.468c.234.235.528.235.763 0l.763-.761c.234-.234.234-.527 0-.762l-.47-.468a.709.709 0 01-.117-.879l.352-.879c.059-.292.41-.41.704-.41h.646a.526.526 0 00.528-.527V7.444c.118-.352-.117-.586-.41-.586h-.646zM8 11c-1.636 0-3-1.364-3-3s1.364-3 3-3 3 1.364 3 3-1.364 3-3 3z"></path></g></svg>