<svg xmlns="http://www.w3.org/2000/svg" viewBox="0 0 16 16" width="16px" height="16px"><g><path fill-rule="evenodd" d="M9.29.312l5.422 2.834C15.51 3.563 16 4.333 16 5.166v5.668c0 .833-.49 1.603-1.288 2.02L9.29 15.687a2.81 2.81 0 01-2.577 0L1.29 12.854C.49 12.437 0 11.667 0 10.834V5.166c0-.833.49-1.603 1.289-2.02L6.712.312a2.816 2.816 0 012.577 0zm-8.277 4.69A1 1 0 001 5.167L.999 7.784l.754-.326a1.5 1.5 0 011.198-.062l.143.062 2 1a1.5 1.5 0 01.83 1.342v1.764a1.5 1.5 0 01-.83 1.342l-.657.328a1.519 1.519 0 01-.052.025l2.825 1.453c.093.048.19.087.291.117V7.895a3.262 3.262 0 01-1.02-.271L1.013 5.003zm13.973 0L9.51 7.624a3.23 3.23 0 01-1.01.27v6.935c.1-.03.199-.069.292-.117l2.789-1.437-.093-.04-.658-.33a1.5 1.5 0 01-.83-1.34V9.8a1.5 1.5 0 01.83-1.342l2-1a1.5 1.5 0 011.34 0l.83.338v-2.63a1 1 0 00-.014-.164zm-1.262 3.35a.5.5 0 00-.448 0l-2 1A.5.5 0 0011 9.8v1.764a.5.5 0 00.276.447l.658.329c.115.058.43.146.945.266l1.413-.727c.449-.231.708-.632.708-1.045V8.873zm-11.077 0a.5.5 0 00-.447 0l-1.201.519L1 10.834c0 .413.259.813.708 1.045l1.39.715c.483-.114.78-.198.892-.254l.657-.329a.5.5 0 00.277-.447V9.8a.5.5 0 00-.277-.447zm8.852-5.67L11.5 3.7c0 .5-.341.599-.874.843l-2 .92a1.5 1.5 0 01-1.252 0l-2-.92C4.84 4.3 4.5 4.2 4.5 3.7l-.001-1.017L1.74 4.105l5.335 2.617c.466.217 1.373.218 1.84 0l5.345-2.618-2.761-1.422zM8.95 1.313a2 2 0 00-1.9 0L5.5 2.15v1.03a.5.5 0 00.291.455l2 .919a.5.5 0 00.418 0l2-.92a.5.5 0 00.291-.454V2.15z"></path></g></svg>