<svg xmlns="http://www.w3.org/2000/svg" viewBox="0 0 16 16" width="16px" height="16px"><g><path d="M5.58 10.317l1.588.776a.63.63 0 01.332.514v1.786a.63.63 0 01-.332.514l-1.587.776a.85.85 0 01-.664 0l-1.585-.776A.63.63 0 013 13.393v-1.786a.63.63 0 01.332-.514l1.585-.776a.85.85 0 01.664 0zm5.5 0l1.588.776a.63.63 0 01.332.514v1.786a.63.63 0 01-.332.514l-1.587.776a.85.85 0 01-.664 0l-1.585-.776a.63.63 0 01-.332-.514v-1.786a.63.63 0 01.332-.514l1.585-.776a.85.85 0 01.664 0zm-8.25-5l1.588.776a.63.63 0 01.332.514v1.786a.63.63 0 01-.332.514l-1.587.776a.85.85 0 01-.664 0L.582 8.907a.63.63 0 01-.332-.514V6.607a.63.63 0 01.332-.514l1.585-.776a.85.85 0 01.664 0zm5.5 0l1.588.776a.63.63 0 01.332.514v1.786a.63.63 0 01-.332.514l-1.587.776a.85.85 0 01-.664 0l-1.585-.776a.63.63 0 01-.332-.514V6.607a.63.63 0 01.332-.514l1.585-.776a.85.85 0 01.664 0zm5.5 0l1.588.776a.63.63 0 01.332.514v1.786a.63.63 0 01-.332.514l-1.587.776a.85.85 0 01-.664 0l-1.585-.776a.63.63 0 01-.332-.514V6.607a.63.63 0 01.332-.514l1.585-.776a.85.85 0 01.664 0zm-8.25-5l1.588.776a.63.63 0 01.332.514v1.786a.63.63 0 01-.332.514l-1.587.776a.85.85 0 01-.664 0l-1.585-.776A.63.63 0 013 3.393V1.607a.63.63 0 01.332-.514L4.917.317a.85.85 0 01.664 0zm5.5 0l1.588.776a.63.63 0 01.332.514v1.786a.63.63 0 01-.332.514l-1.587.776a.85.85 0 01-.664 0l-1.585-.776a.63.63 0 01-.332-.514V1.607a.63.63 0 01.332-.514l1.585-.776a.85.85 0 01.664 0z"></path></g></svg>