<svg xmlns="http://www.w3.org/2000/svg" viewBox="0 0 16 16" width="16px" height="16px"><g><path fill-rule="evenodd" d="M13.5 4A1.5 1.5 0 0115 5.5v8a1.5 1.5 0 01-1.5 1.5h-6A1.5 1.5 0 016 13.5v-8A1.5 1.5 0 017.5 4h6zm0 1h-6a.5.5 0 00-.5.5v8a.5.5 0 00.5.5h6a.5.5 0 00.5-.5v-8a.5.5 0 00-.5-.5zM12 12v1H8v-1h4zM8.5 1A1.5 1.5 0 0110 2.5V3H9v-.5a.5.5 0 00-.5-.5h-6a.5.5 0 00-.5.5v8a.5.5 0 00.5.5H5v1H2.5A1.5 1.5 0 011 10.5v-8A1.5 1.5 0 012.5 1h6zm2.5 9v1H8v-1h3zM5 9v1H3V9h2zm8-1v1H8V8h5zM5 7v1H3V7h2zm5-1v1H8V6h2zM5 5v1H3V5h2zm0-2v1H3V3h2z"></path></g></svg>