<svg xmlns="http://www.w3.org/2000/svg" viewBox="0 0 16 16" width="16px" height="16px"><g><path d="M9.046 1c2.53 0 4.308 1.853 4.308 4.309 0 1.659-.811 3.042-2.118 3.766l2.71 5.406a.499.499 0 01-.89.45l-2.749-5.48a4.752 4.752 0 01-1.261.166.499.499 0 110-.998c1.97 0 3.31-1.397 3.31-3.31 0-1.914-1.34-3.311-3.31-3.311a.499.499 0 110-.998zM6.5 1c.281 0 .51.223.51.499v7.62a.491.491 0 01-.01.096v5.218c0 .275-.225.567-.5.567H2a.63.63 0 01-.5-1l3.068-4.776C3.056 8.555 2.1 7.09 2.1 5.31 2.1 2.853 3.916 1 6.5 1z"></path></g></svg>