<svg xmlns="http://www.w3.org/2000/svg" viewBox="0 0 16 16" width="16px" height="16px"><g><path d="M6.427 12.133c.292 0 .528.252.528.563v2.77c0 .312-.236.564-.528.564-1.01 0-1.827-.872-1.827-1.949 0-1.076.818-1.948 1.827-1.948zM8.65 0c.359 0 .65.247.65.552l-.001 6.001 5.757-2.503a.6.6 0 01.713.177l.052.084c.134.27.009.59-.28.715L9.3 7.74v.52l6.254 2.759c.256.113.378.375.297.614l-.034.078c-.14.256-.486.362-.771.236L9.299 9.412l.001 6.049c0 .274-.236.502-.545.545l-.105.007c-.359 0-.65-.247-.65-.552V.552C8 .247 8.291 0 8.65 0zM1.827 3.117a1.826 1.826 0 011.768 2.288l1.227.655a3.28 3.28 0 011.416-1.112.528.528 0 01.728.488l.008 2.03a.637.637 0 01.001.21l.003.888a.64.64 0 010 .165l.006 1.806a.528.528 0 01-.724.494 3.268 3.268 0 01-1.267-.906l-1.349.76A1.826 1.826 0 011.827 12.9a1.826 1.826 0 111.376-3.026l1.224-.69a3.279 3.279 0 01-.09-2.138l-1.33-.71c-.319.268-.73.43-1.18.43a1.826 1.826 0 110-3.65zM6.427 0c.292 0 .528.252.528.563v2.77c0 .312-.236.564-.528.564-1.01 0-1.827-.872-1.827-1.948C4.6.872 5.418 0 6.427 0z"></path></g></svg>