<svg xmlns="http://www.w3.org/2000/svg" viewBox="0 0 16 16" width="16px" height="16px"><g><path fill-rule="evenodd" d="M13.614 11.861a1.727 1.727 0 01-.463.412l-5.192 2.999c-.53.305-1.393.303-1.918 0L.85 12.273C.476 12.057 0 11.5 0 10.84s.478-1.22.85-1.434l.014-.008-.015-.008C.476 9.174 0 8.615 0 7.956c0-.625.43-1.161.792-1.398C.429 6.321 0 5.786 0 5.16c0-.659.478-1.22.85-1.433L6.04.728c.53-.305 1.393-.303 1.918 0L11.892 3h-1.735L7.565 1.55c-.282-.157-.848-.158-1.13 0L1.29 4.428c-.522.35-.522.914 0 1.265l2.216 1.239c.013.45.052.888.157 1.286L1.62 7.038l-.33.186c-.523.35-.523.914 0 1.265l3.21 1.795v1.214L1.62 9.835l-.33.185c-.523.351-.523.914 0 1.265l5.145 2.877c.282.158.848.158 1.13 0L11.432 12H12.5c.384 0 .758-.048 1.114-.139zM2.684 5.8a.49.49 0 01-.479-.5c0-.276.215-.5.48-.5a.49.49 0 01.48.5.49.49 0 01-.48.5zM7.5 7V6h5a1.5 1.5 0 010 3H7.346a2.5 2.5 0 110-5H12.5a3.5 3.5 0 010 7h-6v-1h6a2.5 2.5 0 100-5H7.346a1.5 1.5 0 100 3H12.5a.5.5 0 100-1h-5z"></path></g></svg>