<svg xmlns="http://www.w3.org/2000/svg" viewBox="0 0 16 16" width="16px" height="16px"><g><path d="M9.14 1C13.524 1 16 1.728 16 3.664c0 2.618-3.266 5.687-6.715 5.771v3.873c0 1.585-2.02 2.46-3.142 1.34a.488.488 0 01.69-.691c.507.506 1.307.066 1.307-.65V1.573c0-.27.283-.563.553-.563.069 0 .14.019.21.052A.486.486 0 019.14 1zM6.505 1A.49.49 0 017 1.488v7.46c0 .27-.221.489-.495.489C2.96 9.437 0 6.319 0 3.664 0 1.728 2.065 1 6.505 1zm2.78 1.049v6.416c2.728-.408 5.738-2.884 5.738-4.8 0-1.002-2.39-1.54-5.738-1.616z"></path></g></svg>