<svg xmlns="http://www.w3.org/2000/svg" viewBox="0 0 16 16" width="16px" height="16px"><g><path fill-rule="evenodd" d="M9 .728l5.414 2.999c.39.216.886.774.886 1.433 0 .627-.451 1.164-.828 1.4l-.058-.037c.39.216.886.774.886 1.433 0 .66-.499 1.22-.886 1.434l-.015.008.015.008c.39.216.886.775.886 1.434 0 .659-.499 1.22-.886 1.433L9 15.272c-.552.305-1.453.303-2 0l-5.414-2.999C1.196 12.057.7 11.5.7 10.84s.499-1.22.886-1.434l.014-.008-.014-.008C1.196 9.174.7 8.615.7 7.956c0-.626.451-1.164.828-1.4l.058.038C1.196 6.378.7 5.819.7 5.16c0-.659.499-1.22.886-1.433L7 .728c.552-.305 1.453-.303 2 0zm4.609 9.107l-4.61 2.553c-.551.306-1.452.303-1.999 0L2.39 9.835l-.345.185c-.545.351-.545.914 0 1.265l5.366 2.877c.293.158.884.158 1.178 0l5.366-2.877c.545-.351.545-.914 0-1.265l-.346-.185zm.001-2.797L9 9.592c-.552.306-1.453.303-2 0L2.39 7.038l-.344.186c-.545.35-.545.914 0 1.265l5.366 2.877c.293.158.884.158 1.178 0l5.366-2.877c.545-.351.545-.914 0-1.265l-.345-.186zM7.411 1.55L2.045 4.428c-.545.35-.545.914 0 1.265L7.41 8.57c.293.157.884.158 1.178 0l5.366-2.877c.545-.351.545-.914 0-1.265L8.59 1.55c-.293-.157-.884-.158-1.178 0zM5.5 5.8a.5.5 0 110 1 .5.5 0 010-1zm-2-1a.5.5 0 110 1 .5.5 0 010-1z"></path></g></svg>