<svg xmlns="http://www.w3.org/2000/svg" viewBox="0 0 16 16" width="16px" height="16px"><g><path d="M9.233 0c.928 0 1.835.15 2.694.438.272.092.416.38.322.644a.525.525 0 01-.663.313 7.366 7.366 0 00-2.353-.383C5.26 1.012 2.04 4.14 2.04 8c0 3.86 3.22 6.988 7.192 6.988.898 0 1.771-.16 2.59-.466a.525.525 0 01.673.29.502.502 0 01-.298.653A8.423 8.423 0 019.233 16C4.686 16 1 12.418 1 8s3.686-8 8.233-8zM7.497 2.31c.288 0 .521.227.521.506v1.386a4.6 4.6 0 01.393-.097c.43-.086.768.352.565.73a6.667 6.667 0 000 6.33c.203.378-.136.816-.565.73a4.185 4.185 0 01-.392-.097l-.001 1.386c0 .28-.233.506-.52.506a.513.513 0 01-.521-.506l-.001-1.867a4.05 4.05 0 01-1.147-1.111l-1.455.694a.528.528 0 01-.697-.23.5.5 0 01.238-.678l1.45-.692a3.867 3.867 0 01-.023-2.533l-1.417-.641a.5.5 0 01-.253-.672.527.527 0 01.692-.246l1.426.644c.306-.464.71-.863 1.186-1.17V2.817c0-.28.234-.506.521-.506zm7.752.506c.287 0 .52.227.52.506 0 .28-.233.506-.52.506-2.372 0-4.294 1.868-4.294 4.172 0 2.304 1.922 4.172 4.294 4.172.287 0 .52.227.52.506 0 .28-.233.506-.52.506-2.947 0-5.336-2.321-5.336-5.184s2.389-5.184 5.336-5.184z"></path></g></svg>