<svg xmlns="http://www.w3.org/2000/svg" viewBox="0 0 16 16" width="16px" height="16px"><g><path fill-rule="evenodd" d="M6.873.985a2.374 2.374 0 012.255 0l4.745 2.586C14.57 3.951 15 4.653 15 5.414v5.172c0 .76-.43 1.463-1.127 1.843l-4.745 2.586a2.37 2.37 0 01-2.255 0l-4.745-2.586C1.43 12.05 1 11.346 1 10.586V5.414c0-.76.43-1.462 1.128-1.843L6.873.985zM3 5v6h1.526V9.241h1.01c1.335 0 2.254-.836 2.254-2.112C7.79 5.839 6.917 5 5.628 5H3zm1.526 1.173h.699c.644 0 1.022.328 1.022.96 0 .624-.382.956-1.03.956h-.691V6.173zM7.748 11H9.37l1.148-1.9h.079l1.139 1.9h1.717l-1.9-3.01L13.47 5h-1.697l-1.085 1.988h-.079L9.532 5h-1.78L9.59 7.973 7.748 11z"></path></g></svg>