<svg xmlns="http://www.w3.org/2000/svg" viewBox="0 0 16 16" width="16px" height="16px"><g><path fill-rule="evenodd" d="M6.87277 0.984867C7.57089 0.60504 8.42998 0.60504 9.1281 0.984867L13.8732 3.57099C14.5705 3.95164 15 4.6535 15 5.41398V10.5862C15 11.3459 14.5705 12.0486 13.8732 12.4292L9.1281 15.0145C8.42998 15.3952 7.57089 15.3952 6.87277 15.0145L2.12766 12.4292C1.42954 12.0486 1 11.3459 1 10.5862V5.41398C1 4.6535 1.42954 3.95164 2.12766 3.57099L6.87277 0.984867Z M8.32476 11C9.66739 11 10.5 10.3347 10.5 9.28274C10.5 8.50936 9.89407 7.9106 9.06146 7.85239V7.77755C9.70663 7.68607 10.1992 7.13306 10.1992 6.49688C10.1992 5.56965 9.47123 5 8.25065 5H5.5V11H8.32476ZM6.81648 5.9605H7.915C8.54272 5.9605 8.90453 6.2474 8.90453 6.72557C8.90453 7.2079 8.51656 7.48649 7.80602 7.48649H6.81648V5.9605ZM6.81648 10.0395V8.33472H7.95859C8.73452 8.33472 9.15737 8.62578 9.15737 9.17464C9.15737 9.73597 8.7476 10.0395 7.9891 10.0395H6.81648Z"></path></g></svg>