<svg xmlns="http://www.w3.org/2000/svg" viewBox="0 0 16 16" width="16px" height="16px"><g><path fill-rule="evenodd" d="M8.009.924c.026.494.093.982.201 1.46l-.275-.15a1.981 1.981 0 00-1.869 0L2.134 4.36c-.578.313-.934.89-.934 1.515v4.25c0 .625.356 1.203.934 1.515l3.932 2.125c.578.313 1.29.313 1.869 0l3.931-2.125c.578-.312.934-.89.934-1.514V8.384a.354.354 0 00.118-.049A11.53 11.53 0 0014 7.511v3.075c0 .76-.43 1.463-1.127 1.843l-4.745 2.586a2.37 2.37 0 01-2.255 0l-4.745-2.586C.43 12.05 0 11.346 0 10.586V5.414c0-.76.43-1.462 1.128-1.843L5.873.985a2.376 2.376 0 012.136-.06zM9.264 5a9.946 9.946 0 001.28 1.695V11h-1.41V7.212h-.075l-1.335 3.326H6.78L5.441 7.212h-.075V11h-1.41V5h1.801l1.456 3.667h.079L8.742 5h.522zM15.777.86c.134.03.223.15.223.283-.015 2.279-1.236 4.394-3.336 5.809a.3.3 0 01-.164.044.3.3 0 01-.164-.044C10.236 5.537 9.015 3.422 9 1.143c0-.134.09-.253.223-.283 0 0 3.232-.875 3.277-.86l3.277.86z"></path></g></svg>