<svg xmlns="http://www.w3.org/2000/svg" viewBox="0 0 16 16" width="16px" height="16px"><g><path fill-rule="evenodd" d="M6.873.985a2.374 2.374 0 012.255 0l4.745 2.586C14.57 3.951 15 4.653 15 5.414v5.172c0 .76-.43 1.463-1.127 1.843l-4.745 2.586a2.37 2.37 0 01-2.255 0l-4.745-2.586C1.43 12.05 1 11.346 1 10.586V5.414c0-.76.43-1.462 1.128-1.843L6.873.985zM2.269 5v6h1.526V9.241h1.01c1.335 0 2.254-.836 2.254-2.112C7.059 5.839 6.186 5 4.897 5H2.269zm1.526 1.173h.698c.645 0 1.023.328 1.023.96 0 .624-.382.956-1.031.956h-.69V6.173zM14.23 11V5h-1.8l-1.45 3.667h-.08L9.446 5h-1.8v6h1.41V7.212h.074l1.34 3.326h.943l1.335-3.326h.075V11h1.41z"></path></g></svg>