<svg xmlns="http://www.w3.org/2000/svg" viewBox="0 0 16 16" width="16px" height="16px"><g><path fill-rule="evenodd" d="M9.708 1.846h-.04A.664.664 0 009 2.5v.31l-1.065-.576a1.981 1.981 0 00-1.869 0L2.134 4.36c-.578.313-.934.89-.934 1.515v4.25c0 .625.356 1.203.934 1.515l3.932 2.125c.578.313 1.29.313 1.869 0l3.931-2.125c.578-.312.934-.89.934-1.514V8H14v2.586c0 .76-.43 1.463-1.127 1.843l-4.745 2.586a2.37 2.37 0 01-2.255 0l-4.745-2.586C.43 12.05 0 11.346 0 10.586V5.414c0-.76.43-1.462 1.128-1.843L5.873.985a2.374 2.374 0 012.255 0l1.58.86zM9 5.574V6.82h-.79c-.032-.412-.424-.7-.946-.7s-.865.247-.865.636c0 .32.258.505.873.626l.753.146c1.152.223 1.67.744 1.67 1.67 0 1.218-.93 1.954-2.46 1.954-1.476 0-2.406-.695-2.43-1.82H6.22c.036.425.46.696 1.076.696.554 0 .934-.267.934-.651 0-.324-.255-.498-.922-.631l-.769-.154c-1.068-.202-1.618-.785-1.618-1.703C4.922 5.749 5.836 5 7.244 5c.731 0 1.342.212 1.756.574zm6.499-2.657c.277 0 .501.23.501.509V6.49a.507.507 0 01-.501.509H10.5a.507.507 0 01-.5-.508V3.426c0-.281.228-.51.501-.51h.399v-.585C10.9 1.044 11.843 0 13 0c1.16 0 2.1 1.048 2.1 2.33v.587h.399zM14 3v-.68C14 1.592 13.552 1 13 1c-.556 0-1 .59-1 1.32V3h2z"></path></g></svg>