<svg xmlns="http://www.w3.org/2000/svg" viewBox="0 0 16 16" width="16px" height="16px"><g><path fill-rule="evenodd" d="M6.873.985a2.374 2.374 0 012.255 0l4.745 2.586C14.57 3.951 15 4.653 15 5.414v5.172c0 .76-.43 1.463-1.127 1.843l-4.745 2.586a2.37 2.37 0 01-2.255 0l-4.745-2.586C1.43 12.05 1 11.346 1 10.586V5.414c0-.76.43-1.462 1.128-1.843L6.873.985zM3.44 5.158v5.837h1.485V9.284h.983c1.298 0 2.192-.813 2.192-2.055 0-1.254-.85-2.071-2.103-2.071H3.44zm1.485 1.14h.68c.626 0 .994.32.994.935 0 .607-.372.93-1.003.93h-.671V6.298zm3.49 3.034c.025 1.125.955 1.82 2.432 1.82 1.529 0 2.459-.736 2.459-1.953 0-.927-.518-1.448-1.67-1.67l-.753-.147c-.615-.12-.874-.307-.874-.626 0-.389.344-.636.866-.636s.914.288.946.7h1.372C13.168 5.74 12.222 5 10.855 5c-1.408 0-2.322.748-2.322 1.889 0 .918.55 1.5 1.618 1.703l.768.154c.668.133.923.307.923.63 0 .385-.38.652-.935.652-.615 0-1.04-.271-1.076-.696H8.416z"></path></g></svg>