<svg xmlns="http://www.w3.org/2000/svg" viewBox="0 0 16 16" width="16px" height="16px"><g><path fill-rule="evenodd" d="M9.708 1.846h-.04A.664.664 0 009 2.5v.31l-1.065-.576a1.981 1.981 0 00-1.869 0L2.134 4.36c-.578.313-.934.89-.934 1.515v4.25c0 .625.356 1.203.934 1.515l3.932 2.125c.578.313 1.29.313 1.869 0l3.931-2.125c.578-.312.934-.89.934-1.514V8H14v2.586c0 .76-.43 1.463-1.127 1.843l-4.745 2.586a2.37 2.37 0 01-2.255 0l-4.745-2.586C.43 12.05 0 11.346 0 10.586V5.414c0-.76.43-1.462 1.128-1.843L5.873.985a2.374 2.374 0 012.255 0l1.58.86zM9.43 9.74V11H5.355V5h1.526v4.74H9.43zm6.069-6.823c.277 0 .501.23.501.509V6.49a.507.507 0 01-.501.509H10.5a.507.507 0 01-.5-.508V3.426c0-.281.228-.51.501-.51h.399v-.585C10.9 1.044 11.843 0 13 0c1.16 0 2.1 1.048 2.1 2.33v.587h.399zM14 3v-.68C14 1.592 13.552 1 13 1c-.556 0-1 .59-1 1.32V3h2z"></path></g></svg>