<svg xmlns="http://www.w3.org/2000/svg" viewBox="0 0 16 16" width="16px" height="16px"><g><path fill-rule="evenodd" d="M9.128.985l4.745 2.586C14.57 3.951 15 4.653 15 5.414v5.172c0 .76-.43 1.463-1.127 1.843l-4.745 2.586a2.37 2.37 0 01-2.255 0l-4.745-2.586C1.43 12.05 1 11.346 1 10.586V5.414c0-.76.43-1.462 1.128-1.843L6.873.985a2.374 2.374 0 012.255 0zM6.252 5H4.726L3.2 6.04v1.313l1.447-.977h.079V11h1.526V5zm2.632 0h-1.78l1.838 2.973L7.1 11h1.622l1.147-1.9h.08l1.139 1.9h1.717l-1.9-3.01L12.822 5h-1.697L10.04 6.988h-.08L8.885 5z"></path></g></svg>