<svg xmlns="http://www.w3.org/2000/svg" viewBox="0 0 16 16" width="16px" height="16px"><g><path fill-rule="evenodd" d="M9.128.985l4.745 2.586C14.57 3.951 15 4.653 15 5.414v5.172c0 .76-.43 1.463-1.127 1.843l-4.745 2.586a2.37 2.37 0 01-2.255 0l-4.745-2.586C1.43 12.05 1 11.346 1 10.586V5.414c0-.76.43-1.462 1.128-1.843L6.873.985a2.374 2.374 0 012.255 0zM5.353 5C3.997 5 3.09 5.785 3.09 6.947v.025h1.36v-.029c0-.481.348-.822.85-.822.482 0 .798.288.798.717 0 .344-.219.64-1.077 1.433l-1.846 1.737V11h4.441V9.842H5.155v-.077l.963-.886c1.037-.924 1.417-1.498 1.417-2.146C7.535 5.7 6.661 5 5.353 5zm4.344.158H7.964l1.79 2.895L7.96 11h1.58l1.117-1.85h.077L11.843 11h1.672l-1.85-2.931 1.866-2.911H11.88l-1.056 1.935h-.077l-1.05-1.935z"></path></g></svg>