<svg xmlns="http://www.w3.org/2000/svg" viewBox="0 0 36 36" width="36px" height="36px"><g><path d="M20.5,1.44337567 L31.0884573,7.55662433 C32.6354627,8.4497883 33.5884573,10.1004234 33.5884573,11.8867513 L33.5884573,24.1132487 C33.5884573,25.8995766 32.6354627,27.5502117 31.0884573,28.4433757 L20.5,34.5566243 C18.9529946,35.4497883 17.0470054,35.4497883 15.5,34.5566243 L4.91154273,28.4433757 C3.36453735,27.5502117 2.41154273,25.8995766 2.41154273,24.1132487 L2.41154273,11.8867513 C2.41154273,10.1004234 3.36453735,8.4497883 4.91154273,7.55662433 L15.5,1.44337567 C17.0470054,0.550211698 18.9529946,0.550211698 20.5,1.44337567 Z M16.5,3.17542648 L5.91154273,9.28867513 C4.9833395,9.82457352 4.41154273,10.8149546 4.41154273,11.8867513 L4.41154273,24.1132487 C4.41154273,25.1850454 4.9833395,26.1754265 5.91154273,26.7113249 L16.5,32.8245735 C17.4282032,33.3604719 18.5717968,33.3604719 19.5,32.8245735 L30.0884573,26.7113249 C31.0166605,26.1754265 31.5884573,25.1850454 31.5884573,24.1132487 L31.5884573,11.8867513 C31.5884573,10.8149546 31.0166605,9.82457352 30.0884573,9.28867513 L19.5,3.17542648 C18.5717968,2.6395281 17.4282032,2.6395281 16.5,3.17542648 Z"></path></g></svg>