<svg xmlns="http://www.w3.org/2000/svg" viewBox="0 0 36 36" width="36px" height="36px"><g><path d="M20.5,1.44337567 L21.4980821,2.01890885 C21.138218,2.46154242 20.9285714,3.02423299 20.9285714,3.62400213 C20.9285714,3.75093759 20.9291892,3.87655797 20.9304375,4.00088415 L19.5,3.17542648 C18.5717968,2.6395281 17.4282032,2.6395281 16.5,3.17542648 L5.91154273,9.28867513 C4.9833395,9.82457352 4.41154273,10.8149546 4.41154273,11.8867513 L4.41154273,24.1132487 C4.41154273,25.1850454 4.9833395,26.1754265 5.91154273,26.7113249 L16.5,32.8245735 C17.4282032,33.3604719 18.5717968,33.3604719 19.5,32.8245735 L30.0884573,26.7113249 C31.0166605,26.1754265 31.5884573,25.1850454 31.5884573,24.1132487 L31.5890326,14.9693428 C32.3467421,14.534499 33.0103632,14.0738269 33.588574,13.573148 L33.5884573,24.1132487 C33.5884573,25.8995766 32.6354627,27.5502117 31.0884573,28.4433757 L20.5,34.5566243 C18.9529946,35.4497883 17.0470054,35.4497883 15.5,34.5566243 L4.91154273,28.4433757 C3.36453735,27.5502117 2.41154273,25.8995766 2.41154273,24.1132487 L2.41154273,11.8867513 C2.41154273,10.1004234 3.36453735,8.4497883 4.91154273,7.55662433 L15.5,1.44337567 C17.0470054,0.550211698 18.9529946,0.550211698 20.5,1.44337567 Z M29.1038721,1.02075572 L34.5812409,3.09819053 C34.8324964,3.15353912 35,3.37493286 35,3.62400213 C35,7.25329493 34.5164854,9.52967447 33.0955739,11.2316966 C33.0825263,11.2466245 33.0699668,11.2615579 33.0573341,11.2764472 C32.99669,11.3484768 32.933916,11.4193389 32.8694077,11.4892364 C32.8585961,11.5005884 32.8480198,11.5119827 32.8373969,11.5233516 C32.7020925,11.6683614 32.5590976,11.8090583 32.4082507,11.9461564 C32.3926672,11.960253 32.3768052,11.9745574 32.3608566,11.988823 C32.2965433,12.0463888 32.2309541,12.1031596 32.1639443,12.1593429 C32.1513907,12.1698475 32.1389676,12.1802037 32.1264958,12.19054 C32.0485387,12.2551623 31.968462,12.3191646 31.8864401,12.3824518 C31.8722378,12.3934079 31.858002,12.4043261 31.8437079,12.4152233 C31.1365111,12.9543381 30.2866491,13.4419295 29.2713757,13.9169771 C29.180343,13.9595714 29.0759548,14 28.9642857,14 C28.8526166,14 28.7482284,13.9595714 28.6571957,13.9169771 C24.6116588,12.0240657 23.1924672,9.93198744 22.9631352,5.17670158 L22.9581545,5.06878306 C22.9380192,4.61220743 22.9285714,4.13132263 22.9285714,3.62400213 C22.9285714,3.37493286 23.0960751,3.15353912 23.3473305,3.09819053 L28.8246994,1.02075572 C28.9084512,0.993081426 29.0201203,0.993081426 29.1038721,1.02075572 Z"></path></g></svg>