<svg xmlns="http://www.w3.org/2000/svg" viewBox="0 0 16 16" width="16px" height="16px"><g><path fill-rule="evenodd" d="M6.87277 0.984867C7.57089 0.60504 8.42998 0.60504 9.1281 0.984867L13.8732 3.57099C14.5705 3.95164 15 4.6535 15 5.41398V10.5862C15 11.3459 14.5705 12.0486 13.8732 12.4292L9.1281 15.0145C8.42998 15.3952 7.57089 15.3952 6.87277 15.0145L2.12766 12.4292C1.42954 12.0486 1 11.3459 1 10.5862V5.41398C1 4.6535 1.42954 3.95164 2.12766 3.57099L6.87277 0.984867Z M8.01803 6.16247C8.72698 6.16247 9.18571 6.63684 9.21699 7.39791H6.76694C6.81907 6.65248 7.31429 6.16247 8.01803 6.16247ZM9.24826 9.23805C9.08666 9.61859 8.67485 9.83232 8.07537 9.83232C7.28301 9.83232 6.78258 9.30061 6.76173 8.4457V8.36751H10.7079V7.90356C10.7079 6.07906 9.70699 5 8.01281 5C6.303 5 5.25 6.15725 5.25 8.02867C5.25 9.89487 6.28215 11 8.03367 11C9.44114 11 10.4316 10.3223 10.6609 9.23805H9.24826Z"></path></g></svg>