<svg xmlns="http://www.w3.org/2000/svg" viewBox="0 0 16 16" width="16px" height="16px"><g><path fill-rule="evenodd" d="M6.873.985a2.374 2.374 0 012.255 0l4.745 2.586C14.57 3.951 15 4.653 15 5.414v5.172c0 .76-.43 1.463-1.127 1.843l-4.745 2.586a2.37 2.37 0 01-2.255 0l-4.745-2.586C1.43 12.05 1 11.346 1 10.586V5.414c0-.76.43-1.462 1.128-1.843L6.873.985zM3.667 5v6h1.526V9.241h1.01c1.335 0 2.254-.836 2.254-2.112C8.457 5.839 7.584 5 6.295 5H3.667zm1.526 1.173h.699c.644 0 1.022.328 1.022.96 0 .624-.382.956-1.03.956h-.691V6.173zm7.925 3.567H10.57V5H9.043v6h4.075V9.74z"></path></g></svg>