<svg xmlns="http://www.w3.org/2000/svg" viewBox="0 0 36 36" width="36px" height="36px"><g><path d="M20.5,1.44337567 L23.5540971,3.20538288 C23.4272961,3.5724006 23.3377145,3.95418776 23.2903529,4.34680863 L23.275,4.501 L23.2335203,4.52890434 C23.0326925,4.66882486 22.8501352,4.83318551 22.6906912,5.01791997 L19.5,3.17542648 C18.5717968,2.6395281 17.4282032,2.6395281 16.5,3.17542648 L5.91154273,9.28867513 C4.9833395,9.82457352 4.41154273,10.8149546 4.41154273,11.8867513 L4.41154273,24.1132487 C4.41154273,25.1850454 4.9833395,26.1754265 5.91154273,26.7113249 L16.5,32.8245735 C17.4282032,33.3604719 18.5717968,33.3604719 19.5,32.8245735 L30.0884573,26.7113249 C31.0166605,26.1754265 31.5884573,25.1850454 31.5884573,24.1132487 L31.5875427,14.9995027 L33.5875427,14.9995027 L33.5884573,24.1132487 C33.5884573,25.8995766 32.6354627,27.5502117 31.0884573,28.4433757 L20.5,34.5566243 C18.9529946,35.4497883 17.0470054,35.4497883 15.5,34.5566243 L4.91154273,28.4433757 C3.36453735,27.5502117 2.41154273,25.8995766 2.41154273,24.1132487 L2.41154273,11.8867513 C2.41154273,10.1004234 3.36453735,8.4497883 4.91154273,7.55662433 L15.5,1.44337567 C17.0470054,0.550211698 18.9529946,0.550211698 20.5,1.44337567 Z M24.9189339,13 C24.4114207,13 24,12.6035932 24,12.1275986 L24,6.87240137 C24,6.52161684 24.2214474,6.21918754 24.5352915,6.08063903 L24.5595872,6.07031731 C24.5811905,6.06149417 24.6032038,6.05343864 24.6255866,6.04618677 L24.5342869,6.08108318 C24.5798265,6.06091604 24.6273167,6.0442011 24.6763627,6.03129198 C24.6968546,6.02590209 24.7174602,6.02120707 24.738305,6.01719165 C24.75788,6.01341302 24.7780297,6.01018713 24.7983737,6.00760464 C24.8381765,6.00257017 24.8782809,6 24.9189339,6 L25.2513472,6 L25.2513472,4.99582624 L25.2515427,4.96150269 L25.2571465,4.79639421 C25.257908,4.78331472 25.2587437,4.77025176 25.2596531,4.75720563 L25.2513472,4.99582624 C25.2513472,4.89724894 25.2555906,4.79950536 25.2638875,4.70271772 C25.2696897,4.63494005 25.2775366,4.56724265 25.287328,4.50006209 C25.288672,4.49085067 25.2899693,4.48219012 25.2912988,4.47353828 C25.3026839,4.39937364 25.3165539,4.32532383 25.3327353,4.25198144 C25.333923,4.24659892 25.3350992,4.24132671 25.3362872,4.23605819 L25.3412895,4.21420032 C25.7668375,2.38158178 27.6352387,1 29.5,1 C31.6262963,1 33.7777778,2.79652125 33.7777778,4.99582624 L33.7777778,6 L34.0810661,6 C34.5885793,6 35,6.39640677 35,6.87240137 L35,12.1275986 C35,12.6094126 34.5822191,13 34.0810661,13 L24.9189339,13 Z M29.4468467,3.18181818 C28.3798627,3.18181818 27.3,3.84896525 27.3,5.1249057 L27.3,6.45454545 L31.7,6.45454545 L31.7,5.1249057 C31.7,3.84896525 30.5138308,3.18181818 29.4468467,3.18181818 Z"></path></g></svg>