<svg xmlns="http://www.w3.org/2000/svg" viewBox="0 0 16 16" width="16px" height="16px"><g><path d="M8.883.69l5.23 2.712c.49.254.887.91.887 1.467v6.199c0 .565-.397 1.213-.887 1.467l-5.23 2.711c-.49.254-1.284.254-1.773 0l-5.224-2.711C1.396 12.28 1 11.624 1 11.068v-6.2c0-.565.397-1.212.886-1.466L7.11.69C7.6.436 8.393.437 8.883.69zM14 6.65L8.883 9.303c-.49.255-1.284.254-1.773 0L2 6.651v4.417c0 .184.19.497.347.58l5.224 2.71c.2.105.65.105.852 0l5.23-2.711c.16-.084.347-.39.347-.58V6.65zM7.57 1.578L2.348 4.29c-.16.084-.347.39-.347.58v.256c0 .184.19.498.347.58l5.224 2.71c.2.105.65.105.852 0l5.23-2.71c.16-.084.347-.391.347-.58V4.87c0-.184-.19-.498-.347-.58l-5.23-2.71c-.202-.105-.652-.105-.852 0zM9 6v1H7V6h2zM6 4.5v1H4v-1h2zm6 0v1h-2v-1h2zM9 3v1H7V3h2z"></path></g></svg>