<svg xmlns="http://www.w3.org/2000/svg" viewBox="0 0 16 16" width="16px" height="16px"><g><path fill-rule="evenodd" d="M6.932 1.797c.31-1.06.814-1.069 1.13 0l.956 3.246c.156.529.722.957 1.285.957h3.705c1.1 0 1.236.472.296 1.06l-3.056 1.908c-.47.294-.674.952-.464 1.449l1.534 3.632c.432 1.022.074 1.306-.806.63l-3.215-2.472c-.436-.335-1.14-.338-1.58 0l-3.225 2.472c-.88.674-1.243.397-.814-.613l1.548-3.649c.215-.506.003-1.158-.464-1.449L.7 7.06C-.24 6.474-.096 6 .992 6h3.705c.554 0 1.126-.42 1.283-.957l.952-3.246z"></path></g></svg>