<svg xmlns="http://www.w3.org/2000/svg" viewBox="0 0 16 16" width="16px" height="16px"><g><path fill-rule="evenodd" d="M14.008 6c1.1 0 1.236.472.296 1.06l-3.056 1.908c-.47.294-.667.948-.45 1.44l1.59 3.595c.448 1.012.1 1.292-.776.625l-3.32-2.525c-.437-.333-1.147-.331-1.581.001l-2.708 2.073L12.181 6h1.827zm-.829-3.873l.707.707-12.039 12.04-.707-.708 12.04-12.04zM8.056 1.76l.934 3.188-4.736 4.738a1.18 1.18 0 00-.505-.718L.695 7.06C-.24 6.474-.096 6 .992 6h3.705c.554 0 1.126-.423 1.283-.962l.957-3.278c.308-1.057.809-1.058 1.12 0z"></path></g></svg>