<svg xmlns="http://www.w3.org/2000/svg" viewBox="0 0 16 16" width="16px" height="16px"><g><path fill-rule="evenodd" d="M6.5 3h8a.5.5 0 110 1h-8a.5.5 0 010-1zm0 5h8a.5.5 0 110 1h-8a.5.5 0 010-1zm0 5h8a.5.5 0 110 1h-8a.5.5 0 110-1zm-3.824-1.341l1.627 2.944a.2.2 0 01-.175.297H.873a.2.2 0 01-.175-.297l1.628-2.944a.2.2 0 01.35 0zM1 8.5a1.5 1.5 0 113 0 1.5 1.5 0 01-3 0zM2.69.675L3 1.725a.5.5 0 00.479.359h1.184a.2.2 0 01.106.37l-.933.582a.5.5 0 00-.196.619l.449 1.063a.2.2 0 01-.306.236l-.977-.751a.5.5 0 00-.61 0l-.98.752a.2.2 0 01-.306-.237l.45-1.063a.5.5 0 00-.195-.62L.23 2.454a.2.2 0 01.105-.37h1.182a.5.5 0 00.48-.359l.309-1.05a.2.2 0 01.384 0z"></path></g></svg>