<svg xmlns="http://www.w3.org/2000/svg" viewBox="0 0 16 16" width="16px" height="16px"><g><path fill-rule="evenodd" d="M2.995 16A1.997 1.997 0 011 14.01V1.99C1 .892 1.893 0 2.995 0h10.01C14.107 0 15 .898 15 1.99l-.005 11.18c-.026.253-.177.48-.401.662-.257.206-1.138.696-2.167 1.12C10.91 15.577 9.623 16 8.478 16H2.995zM14 1.993A.997.997 0 0013 1H3c-.555 0-1 .445-1 .993v12.014c0 .548.448.993 1 .993h5.5c.25 0 1.719-.897 2.41-1.616.369-.384 1.443-1.68 1.336-1.558.5-.573.85-.826 1.269-.779.172.02.331.087.485.21V1.993zm.004 11.09c.025-.247-.04-1.081-.527-1.081-.506 0-.888.735-1.174 1.082-.712.863-1.467 1.454-2.303 1.868.409-.144 3.222-1.225 4.004-1.868z"></path></g></svg>