<svg xmlns="http://www.w3.org/2000/svg" viewBox="0 0 16 16" width="16px" height="16px"><g><path fill-rule="evenodd" d="M10 6.733a2.003 2.003 0 01-.414-3.147 2 2 0 112.411 3.148H12c-.047 1.032-.453 2.22-1.25 3.016-.797.797-1.703 1.203-2.75 1.25-.375 0-.688.063-.938.172-.109.062-.593.469-.593.469h-.002A2 2 0 114 11.266V4.733a2.003 2.003 0 01-.414-3.147A2 2 0 116 4.733v4.736c.516-.297 1.172-.438 2-.453.516-.016.984-.235 1.375-.625.39-.391.61-.86.625-1.375v-.283zm-4.154 7.113a1.2 1.2 0 10-1.697-1.697 1.2 1.2 0 001.697 1.697zm0-10a1.2 1.2 0 10-1.697-1.697 1.2 1.2 0 001.697 1.697zm6 2a1.2 1.2 0 10-1.697-1.697 1.2 1.2 0 001.697 1.697z"></path></g></svg>