<svg xmlns="http://www.w3.org/2000/svg" viewBox="0 0 16 16" width="16px" height="16px"><g><path fill-rule="evenodd" d="M5 1a2 2 0 011 3.732v.51A2.751 2.751 0 008.758 8h.51a2 2 0 11-.012 1.98C8.667 9.92 7.13 9.696 6 8.914v2.354a2 2 0 11-2 0V4.732A2 2 0 015 1zm0 10.797c-.656 0-1.203.547-1.203 1.203S4.344 14.203 5 14.203 6.203 13.656 6.203 13 5.656 11.797 5 11.797zm6-4c-.656 0-1.203.547-1.203 1.203s.547 1.203 1.203 1.203S12.203 9.656 12.203 9 11.656 7.797 11 7.797zm-6-6c-.656 0-1.203.547-1.203 1.203S4.344 4.203 5 4.203 6.203 3.656 6.203 3 5.656 1.797 5 1.797z"></path></g></svg>