<svg xmlns="http://www.w3.org/2000/svg" viewBox="0 0 16 16" width="16px" height="16px"><g><path fill-rule="evenodd" d="M9 0v2h1c.781.031 1.469.344 2.063.938.593.593.906 1.28.937 2.062v6.267a2.003 2.003 0 01.414 3.147A2 2 0 1111 11.267V5a1.004 1.004 0 00-.313-.688A1.004 1.004 0 0010 4H9v2L6 3l3-3zM5.414 1.586A2 2 0 015 4.733v6.534a2.003 2.003 0 01.414 3.147A2 2 0 113 11.267V4.733a2.003 2.003 0 01-.414-3.147 2 2 0 012.828 0zm5.735 10.563a1.2 1.2 0 101.697 1.697 1.2 1.2 0 00-1.697-1.697zm-8 0a1.2 1.2 0 101.697 1.697 1.2 1.2 0 00-1.697-1.697zm0-10a1.2 1.2 0 101.697 1.697 1.2 1.2 0 00-1.697-1.697z"></path></g></svg>