<svg xmlns="http://www.w3.org/2000/svg" viewBox="0 0 16 16" width="16px" height="16px"><g><path fill-rule="evenodd" d="M8 1a7 7 0 110 14A7 7 0 018 1zm0 1a6 6 0 100 12A6 6 0 008 2zm-.104 8.73c.372 0 .672.303.672.676l-.007.101a.672.672 0 01-.665.576h-.14a.674.674 0 01-.672-.677c0-.376.301-.677.673-.677zm.315-6.813c1.614 0 2.458.823 2.458 1.97 0 1.03-.585 1.517-1.321 1.918-.953.52-.975.78-.975 1.906H7.28c-.032-.26-.032-.498-.032-.758 0-.79.39-1.31 1.061-1.69.704-.411 1.03-.639 1.03-1.278 0-.541-.456-.877-1.246-.877-.802 0-1.484.466-1.885.932l-.856-.77c.628-.758 1.527-1.353 2.86-1.353z"></path></g></svg>