<svg xmlns="http://www.w3.org/2000/svg" viewBox="0 0 16 16" width="16px" height="16px"><g><path fill-rule="evenodd" d="M7.969 12.679a.997.997 0 011.005.998v.325c0 .55-.45.998-1.005.998h-.534a.997.997 0 01-1.005-.998v-.325c0-.55.45-.998 1.005-.998zM8.36 1c2.767 0 4.215 1.411 4.215 3.38 0 1.763-1.003 2.599-2.265 3.286-1.634.891-1.671 1.337-1.671 3.268H6.764c-.055-.446-.055-.854-.055-1.3 0-1.355.668-2.247 1.82-2.897 1.206-.705 1.763-1.095 1.763-2.19 0-.929-.78-1.505-2.135-1.505-1.374 0-2.544.799-3.23 1.597L3.458 3.321C4.536 2.021 6.077 1 8.361 1z"></path></g></svg>