<svg xmlns="http://www.w3.org/2000/svg" viewBox="0 0 16 16" width="16px" height="16px"><g><path fill-rule="evenodd" d="M8.89 5c.123 0 .585.565.724.891-.277 1.827-1.74 6.174-1.864 6.98-.016.086-.016.174.047.174.153 0 .554-.088.985-.218.031.565.077 1.13.108 1.696-.693.282-1.541.477-2.865.477-.124 0-.617-.61-.725-.98.324-2.13 1.525-4.955 1.772-6.608L5.871 7.37c0-.609 0-1.196.015-1.782C7.056 5.39 8.612 5 8.89 5zm.197-4c1.047 0 1.413.75 1.413 1.373C10.5 3.396 9.768 4 8.965 4 8.06 4 7.5 3.25 7.5 2.519 7.5 1.695 8.18 1 9.087 1z"></path></g></svg>