<svg xmlns="http://www.w3.org/2000/svg" viewBox="0 0 16 16" width="16px" height="16px"><g><path fill-rule="evenodd" d="M8 1a7 7 0 110 14A7 7 0 018 1zm0 1a6 6 0 100 12A6 6 0 008 2zm.52 4.25c.07 0 .34.33.422.52-.162 1.066-1.016 3.602-1.088 4.071-.009.05-.009.102.027.102.09 0 .324-.051.575-.127.018.33.045.659.063.989-.404.164-.899.278-1.671.278-.072 0-.36-.355-.423-.57.189-1.244.89-2.892 1.034-3.856l-.701-.025c0-.355 0-.698.009-1.04.683-.114 1.59-.342 1.752-.342zm.114-2.95c.61 0 .824.438.824.8 0 .598-.427.95-.895.95-.528 0-.855-.437-.855-.864 0-.48.397-.886.926-.886z"></path></g></svg>