<svg xmlns="http://www.w3.org/2000/svg" viewBox="0 0 16 16" width="16px" height="16px"><g><path fill-rule="evenodd" d="M11.648 1.19a.534.534 0 01.023.007c.356.124.762.237 1.154.347.594.166 1.207.337 1.7.56.276.125 1.2.595 1.47 1.396.28.833.18 1.744-.299 2.711a.402.402 0 01-.031.109 1.444 1.444 0 01-.097.178l-3.214 8.1a.407.407 0 01-.037.094l-.014.032a.42.42 0 01-.486.252L2.174 12.78a.42.42 0 01-.204-.112c-.84-.293-1.457-.802-1.803-1.517-.481-.996.16-2.784.858-4.53l.012-.03c.089-.532.386-1.117.884-1.721.793-.962 2.02-1.89 3.456-2.615C7.067 1.403 8.702.982 9.98 1.001c.923-.022 1.637.18 1.67.188zM7.944 12.441c-.606.183-1.264.238-1.592.254a.398.398 0 01-.275.103.425.425 0 01-.178-.039l-.053.009 5.298 1.206-.233-.325-1.295-2.03c-.379.267-1.01.654-1.672.822zm5.142-3.15c-.663.803-1.426 1.598-2.692 1.994l1.462 2.291 1.858-4.68c-.266.202-.5.33-.628.395zM5.047 9.14l-2.058 2.934c.894.131 1.873.029 2.586-.094l-.528-2.84zm.838-.087l.522 2.814a6.01 6.01 0 001.297-.216l.021-.006c.43-.107.857-.339 1.177-.544L5.885 9.053zM1.399 7.979l-.03.084c-.363 1.014-.698 2.205-.442 2.735.245.506.661.835 1.162 1.04l.405-.57 1.844-2.584a7.241 7.241 0 01-.758.045c-.998 0-1.751-.26-2.18-.75zm9-1.072l-.286 3.602c.94-.286 1.54-.828 2.098-1.473l-1.813-2.13zm-2.283.576c-.635.32-1.28.585-1.911.787l3.076 2.087.297-3.725c-.446.299-.935.585-1.462.85zm2.999-1.021l1.72 2.023c.315-.182.95-.623 1.266-1.366l-2.986-.657zM9.909 1.833c-1.078 0-2.559.354-4.148 1.155-1.333.673-2.465 1.525-3.186 2.4-.636.772-.87 1.468-.639 1.907.23.44.941.659 1.953.6 1.144-.066 2.509-.473 3.843-1.146a11.92 11.92 0 001.963-1.23.349.349 0 01.1-.082c1.443-1.156 2.096-2.357 1.762-2.995-.205-.39-.802-.609-1.648-.609zm2.574 1.095l2.194 3.334c.05-.043.1-.094.143-.15l.03-.08a.357.357 0 01.019-.042c.44-.822.55-1.572.328-2.23-.122-.362-.603-.717-1.025-.908-.432-.195-1.014-.358-1.577-.515l-.197-.056c.07.204.098.42.085.647zM10.92 5.574l2.695.592-1.439-2.186c-.265.522-.692 1.065-1.256 1.594z"></path></g></svg>