<svg xmlns="http://www.w3.org/2000/svg" viewBox="0 0 16 16" width="16px" height="16px"><g><path fill-rule="evenodd" d="M13.181 1c-.971-.015-1.68.482-1.751.867.232.017.394.387.876.867.382-.48 1.637-1.234 2.194 0 .756 1.675-1.557 4.329-3.946 2.6-2.673-2.016-5.327-1.208-6.13-.867-.8.34-1.675.482-1.094 1.733.403.867.22.49.816 1.577.738 1.343 2.886-.746 2.906-.71-1.524 2.274-2.813 1.714-3.503.866-.251-.681-.598-1.524-.875-1.733C-.853 7.812.173 13.953.047 14h1.751c.744-2.318 2.472-2.223 2.627 0h1.751c1.103-4.47 4.336-.008 4.378 0h1.752c-.436-3.035 1.146-3.989 2.626-6.067.526-1.477 1.467-3.02.868-5.433-.5-1.5-2.024-1.484-2.619-1.5zM9.01 6.48c.052 0 .47.155.846.455.028.073-.581.245-.122.648.253.222.686.044.821-.364.284.145.484.23.631.466-.147.248-1.182.605-1.509.487-1.119-.241-.615-1.692-.667-1.692z"></path></g></svg>