<svg xmlns="http://www.w3.org/2000/svg" viewBox="0 0 16 16" width="16px" height="16px"><g><path fill-rule="evenodd" d="M4.633 4.007c-.31.29-.572.578-.798.898-2.152 3.047-.36 7.363 3.309 7.969a4.99 4.99 0 002.7-.285l.26-.11c.075-.035.144-.062.234-.035 1.233.38 2.478.388 3.732.118l.38-.079c.006-.001.012.004.033.01-.224.34-.485.645-.765.931-1.246 1.274-2.741 2.066-4.503 2.344-4.052.638-7.967-1.945-8.963-5.922a8.146 8.146 0 01-.217-2.754c.022-.238.116-.46.207-.678.506-1.223 1.337-2.087 2.652-2.409a3.639 3.639 0 011.739.002zM7.526 8.13c.453 1.34.65 2.764 1.646 3.858a4.052 4.052 0 01-1.643.2 4.584 4.584 0 01-.989-.2c-.102-.032-.132-.084-.136-.188-.02-.463.041-.913.186-1.352.258-.785.586-1.541.936-2.318zm5.853-5.927c1.24 1.158 2.01 2.593 2.347 4.257.178.878.257 1.777.063 2.653-.25 1.125-.918 1.94-2.029 2.333-.732.259-1.489.299-2.29.208a5.6 5.6 0 00.95-1.317c1.569-3.085-.346-6.833-3.755-7.353a4.992 4.992 0 00-2.676.316c-.086.035-.153.039-.244-.012-1.305-.73-2.636-.781-3.99-.141-.073.034-.135.096-.25.094.109-.204.257-.36.397-.517C3.16 1.311 4.712.403 6.574.112c2.591-.405 4.877.29 6.805 2.09zm-3.148 2.294c1.03.694 1.656 1.67 1.838 2.9.187 1.265-.144 2.399-.963 3.385-.172.207-.372.381-.568.561-.105.096-.208.1-.336.055-.31-.108-.504-.346-.68-.6-.471-.68-.77-1.442-1.06-2.208-.258-.678-.402-1.39-.624-2.078-.278-.864-.607-1.699-1.187-2.41-.022-.028-.038-.059-.063-.096.236-.107.48-.15.724-.183 1.055-.14 2.036.08 2.92.674zm-4.524.093c.376.244.662.569.885.957.31.542.551 1.116.771 1.7.033.088.002.148-.032.216-.427.841-.857 1.681-1.28 2.524a6.42 6.42 0 00-.505 1.291c-.035.138-.08.092-.148.037a4.225 4.225 0 01-1.565-2.613 4.784 4.784 0 01-.068-.82c.038-1.29.582-2.42 1.667-3.284.102-.082.172-.075.275-.008z"></path></g></svg>