<svg xmlns="http://www.w3.org/2000/svg" viewBox="0 0 16 16" width="16px" height="16px"><g><path fill-rule="evenodd" d="M12.115 9.07c0-1.172-.819-1.484-2.544-1.705-1.743-.223-1.92-.338-1.92-.732 0-.326.15-.76 1.44-.76 1.154 0 1.579.24 1.754.991a.16.16 0 00.157.122h.729a.167.167 0 00.119-.05.156.156 0 00.042-.12c-.112-1.295-1.002-1.898-2.8-1.898-1.6 0-2.555.653-2.555 1.748 0 1.187.95 1.515 2.486 1.662 1.837.174 1.98.434 1.98.783 0 .607-.504.865-1.686.865-1.485 0-1.812-.36-1.922-1.074a.16.16 0 00-.16-.133h-.727c-.09 0-.162.07-.162.156 0 .914.515 2.004 2.97 2.004 1.78 0 2.8-.677 2.8-1.86m-5.268 6.766l-2.07-1.158c-.308-.164-.157-.221-.055-.255.412-.135.496-.166.936-.403.045-.024.106-.015.153.012l1.59.893c.058.03.14.03.192 0l6.199-3.385c.057-.03.094-.094.053-.158V4.614c.041-.066.004-.128-.055-.162l-6.196-3.38a.204.204 0 00-.19 0L1.21 4.453c-.06.032-.098.096-.056.16v6.767c-.042.064-.004.126.056.156l1.697.928C3.83 12.901 5 12.053 5 11.537V5c0-.094 1-.094 1 0v7c0 .45-1 1.5-1.5 1.5-.358 0-1.213.367-2 0L.65 12.45c-.402-.22-.65-.63-.65-1.07V4.615c0-.44.248-.85.65-1.068L6.848.157c.393-.21.914-.21 1.303 0l6.198 3.389c.402.22.651.629.651 1.068v6.767c0 .44-.25.848-.651 1.07L8.15 15.834A1.358 1.358 0 017.5 16a1.35 1.35 0 01-.65-.165z"></path></g></svg>