<svg xmlns="http://www.w3.org/2000/svg" viewBox="0 0 16 16" width="16px" height="16px"><g><path fill-rule="evenodd" d="M8 3c5.999 0 8 2.239 8 5s-1.96 5-8 5-8-2.239-8-5 2.001-5 8-5zM4.61 6.209H2.497l-.98 5.106h1.099l.26-1.358h.941c.415 0 .757-.044 1.025-.132.268-.088.512-.236.731-.444.184-.172.333-.36.447-.567a2.3 2.3 0 00.243-.684c.116-.605.029-1.077-.263-1.415-.291-.337-.755-.506-1.39-.506zm8.574 0H11.07l-.98 5.106h1.099l.26-1.358h.941c.415 0 .757-.044 1.025-.132.268-.088.512-.236.731-.444.184-.172.333-.36.447-.567.114-.207.195-.435.243-.684.116-.605.029-1.077-.263-1.415-.291-.337-.755-.506-1.39-.506zM8.16 4.85H7.07l-.98 5.106h1.09l.561-2.925h.871c.279 0 .461.047.547.14.086.094.104.27.054.526l-.433 2.26h1.107l.456-2.377c.093-.483.023-.833-.209-1.049-.232-.215-.653-.323-1.264-.323H7.9l.26-1.358zM4.194 7.015c.417 0 .695.078.834.234.14.156.172.423.1.803-.076.395-.222.677-.44.846-.216.17-.546.254-.989.254h-.668l.41-2.137h.753zm8.574 0c.417 0 .695.078.834.234.14.156.172.423.1.803-.076.395-.223.677-.44.846-.216.17-.546.254-.989.254h-.668l.41-2.137h.753z"></path></g></svg>