<svg xmlns="http://www.w3.org/2000/svg" viewBox="0 0 16 16" width="16px" height="16px"><g><path d="M9.66 1c.052 0 .106.027.132.08.08.161 1.518 3.244 2.636 5.925h.48c.24 0 .346-.08.426.134.24-.027.798-.443.905-.577 0 0-.24-.683-.293-1.22-.426.055-.426-.267-.426-.589a.37.37 0 01-.08-.107c-.186-.107-.612-.215-.825-.215-.24 0-.826.134-.693-.428.134-.563.72-.483.906-.376.16.107.372.268.506.107.133-.16-.347-.83-.453-1.152-.107-.322-.133-.59.106-.67.267-.108.426.053.48.294.026.242.346.778.532.778.187 0 .027-.831.053-1.1.027-.267.48-.401.666-.133.107.134.027.857.027.857s-.054.51.106.67c.16.162.4-.24.613-.348.24-.107.505-.187.532.161.053.322-.453.563-.453.563s-.532.456-.639.724a.924.924 0 01-.372.563c.053.536.293 1.716.32 2.064 0 .134-.533.295-.613.402-.187.188-.56.295-.852.322a.568.568 0 01-.533.402h-.053c.346.804.612 1.662.746 2.225.452 1.877.585 4.209-.134 5.147a1.03 1.03 0 01-.825.402c-.612 0-1.065-.348-1.544-.723-.64-.51-1.358-1.073-2.743-1.073-1.278 0-2.156.644-2.875 1.18-.453.348-.852.643-1.225.643-.16 0-.346-.08-.506-.241-.719-.697-.506-2.44-.053-4.102a.797.797 0 01-.453-.214c-.133-.161-.24-.43-.506-.242s-.266.751-.266 1.1c0 .348-.186.616-.426.616s-.266-.214-.24-.456c.054-.24.267-.884-.053-1.018s-.612.375-.772.455c-.16.08-.666-.026-.745-.187-.08-.161.133-.483.372-.644.24-.16.693-.24.666-.348-.027-.107-.48-.16-.852-.188-.373-.027-.4-.214-.346-.536.053-.322.426-.134.905.107.32.134.453.054.506-.026.027-.027.027-.054.027-.08l.026.053c.107-.268.32-.376.56-.43-.027-.133.026-.455.372-.32.053-.403.16-.993.32-1.207.186-.188 1.038-.402 1.624-.51a.546.546 0 01.532-.482h.533c1.384-2.681 3.967-5.818 4.1-5.978C9.553 1 9.606 1 9.66 1zm-.785 4.834c-1.063 0-1.964.698-2.172 1.606-.231.023-.485.023-.717.047a6.757 6.757 0 00-.346.72c-.994 2.398-1.895 5.47-1.063 6.284.277.256.577.07 1.155-.372.624-.466 1.456-1.094 2.658-1.094 1.318 0 2.01.558 2.566 1 .416.326.716.606 1.178.606.185 0 .347-.093.486-.256.485-.629.508-2.42.046-4.236-.162-.605-.485-1.512-.878-2.49-.255-.023-.486-.07-.74-.093-.162-.977-1.063-1.722-2.173-1.722zM4.361 8.021c-.692.134-1.065.338-1.172.445-.106.107-.186.417-.24.873.373.24.107.4 0 .695 0 .027.027.08.027.134.16.161.533.43.72.483.132.027.212-.054.319-.08.32-1.02.692-1.93.905-2.467h-.027c-.213 0-.452.105-.532-.083zM8.83 6.562c.926 0 1.671.66 1.671 1.459 0 .8-.745 1.459-1.671 1.459-.927 0-1.672-.66-1.672-1.46 0-.798.745-1.458 1.672-1.458z"></path></g></svg>