<svg xmlns="http://www.w3.org/2000/svg" viewBox="0 0 16 16" width="16px" height="16px"><g><path fill-rule="evenodd" d="M6.112 2.193a8.434 8.434 0 011.814-.196c1.684 0 3.369.499 4.727 1.507.167.124.359.382.54.453.224.09.436-.012.7-.02.602-.017 1.152.22 1.524.697.787 1.009.252 2.174-.676 2.852 0 1.14-.107 2.257-.143 3.394-.027.815.049 1.634.141 2.442.02.175.154.61.037.785-.178.265-.577.28-.752.003-.12-.954-.233-1.925-.236-2.888-.004-.81.153-1.613.153-2.422V7.045c.527-.283 1.179-.83 1.051-1.5-.147-.767-1.031-.97-1.655-.674l-.283.134c-2.191-2.863-7.802-3.052-10.08-.175l-.206.26c-1.564-.901-2.737 1-1.09 1.905l.207.114v.237c-.005 2.219.161 4.414.069 6.635.016.642-1.073.207-.793-.168.032-.838.091-1.687.053-2.527-.036-.783-.248-1.634-.128-2.413 0-.562.083-1.038-.203-1.46-.333-.49-.774-.734-.856-1.378-.067-.537.142-1.095.505-1.492a1.722 1.722 0 011.096-.554c.096-.01.268.024.439.059.192.04.384.079.469.053.167-.05.377-.342.515-.452a7.485 7.485 0 013.061-1.456zm-3.99 4.38c-.814-.034-.838-1.28-.17-1.28.072 0 .15.014.237.045.562 0 .049 1.236-.067 1.236zm.067-1.235c.09 0-.03-.032-.06-.032-.015 0-.007.008.06.032zm10.984.463c.036-.336.264-.473.505-.473.386 0 .806.354.524.809-.136.219-.338.437-.541.437-.16-.023-.506-.614-.488-.773zm-2.561 4.763c-2.889 0-3.173-4.684-.175-4.684h.059c2.752.056 3.184 4.684.116 4.684zm-.116-4.084c-2.293-.093-2.009 3.484.116 3.484 2.276 0 1.872-3.403-.116-3.484zm-5.067-.6h.059c2.994 0 2.72 4.684-.174 4.684-3.069 0-2.637-4.628.115-4.683zm0 .6c-1.985.08-2.396 3.484-.115 3.484 2.123 0 2.409-3.577.115-3.484zm5.175 2.612c1.036 0 1.02-1.6 0-1.6-1.026 0-1.026 1.6 0 1.6zm-.219-1.382c-.392 0-.327.583-.003.583a.302.302 0 00.081-.011c.17-.164.33-.572-.078-.572zM5.367 9.092c1.037 0 1.021-1.6 0-1.6-1.025 0-1.025 1.6 0 1.6zm.219-1.382c-.392 0-.327.583-.004.583a.297.297 0 00.081-.011c.17-.164.33-.572-.077-.572zm2.34 2.4c.733 0 1.078.203 1.078.728.685.308 1.02 1.054.309 1.569 0 .69.049 1.703-.933 1.703-.716 0-1.867.128-1.867-.932v-.771c-.275-.256-.492-.5-.385-.906.064-.246.455-.621.785-.68.052-.257.101-.711 1.013-.711zm.002 1.434c-.52 0-.715-.088-.963-.333-1.417.653.94 1.675 2.063.909.152-.104.292-.22.303-.41-.019-.15-.212-.455-.462-.503-.104.176-.422.337-.941.337zm.985 1.078a2.747 2.747 0 01-1 .183c-.345 0-.691-.061-1-.183 0 .387-.084 1.089.499 1.089.452 0 1.501.196 1.501-.525v-.564zm-7.761 1.192c.001-.005.004-.01.006-.01.001 0 .003.003.003.009-.013.017-.013.009-.009 0z"></path></g></svg>