<svg xmlns="http://www.w3.org/2000/svg" viewBox="0 0 16 16" width="16px" height="16px"><g><path fill-rule="evenodd" d="M12.795 4c1.121-.019 2.137.827 2.137 1.624v3.832c0 1.09-1.017 1.645-2.187 1.694H7.826v.55h3.28v1.59c0 .82-.475 1.642-1.64 1.642H5.64c-1.083 0-1.64-1.1-1.64-2.19V9.456C4 8.583 4.802 8 5.64 8H9.5c1.124 0 2.396-1.255 2.5-2.376V4zM9.5 13a.5.5 0 100 1 .5.5 0 000-1zM9.36 0C10.801 0 11 1.024 11 1.643v3.833c0 .857-.79 1.547-1.64 1.524H5.5C4.419 7.023 3 8.356 3 9.456V11h-.75C1.172 11 .063 10.71.063 9.309V5.476c0-1.256 1.316-1.626 2.143-1.626h4.966v-.565L3.861 3.3V1.65C3.89.821 4 0 5.53 0zM5.5 1a.5.5 0 100 1 .5.5 0 000-1z"></path></g></svg>