<svg xmlns="http://www.w3.org/2000/svg" viewBox="0 0 16 16" width="16px" height="16px"><g><path d="M3 6.506V3.153S12 2.346 12 1v3.23s0 .28-.858.662c.557.28.752.517.82.648A.333.333 0 0012 5.39v3.268l-.001-.028c-.01.051-.085.276-.694.576.433.242.596.444.658.562a.332.332 0 00.037-.15v3.268l-.001-.028c-.024.129-.471 1.377-8.999 2.142v-3.23s2.035-.182 4.17-.518a71.89 71.89 0 00-3.96-.499l-.21.02v-3.27l.38.035a71.493 71.493 0 003.848-.506A71.448 71.448 0 003 6.506zm7.719-1.445c-1.072.39-3.04.848-6.652 1.218l.378.043a65.112 65.112 0 013.771.54c1.47-.274 2.835-.619 3.447-1.023v-.148a.814.814 0 00-.215-.222 3.424 3.424 0 00-.73-.408zm.194 4.317c-.954.378-2.747.833-6.114 1.213a63.368 63.368 0 013.377.491c1.485-.269 2.87-.61 3.486-1.016v-.147a.814.814 0 00-.214-.222 3.006 3.006 0 00-.535-.319z"></path></g></svg>