<svg xmlns="http://www.w3.org/2000/svg" viewBox="0 0 16 16" width="16px" height="16px"><g><path fill-rule="evenodd" d="M12.994 2A2.01 2.01 0 0115 4.009v.824l-3.14-1.832c-.466-.271-.86-.055-.86.495V5H3.005c-.546 0-1.002.446-1.002.997v6.006c0 .544.449.997 1.002.997h8.175c.115.09.277.093.462 0H13c.547 0 1.003-.446 1.003-.997v-.755L15 10.5v1.491c0 1.11-.897 2.009-2.006 2.009H3.006A2.009 2.009 0 011 11.991V4.01C1 2.899 1.897 2 3.006 2h9.988zm-.227 2.61l2.946 2.28c.432.335.435.883 0 1.22l-2.946 2.28c-.432.335-.787.162-.787-.39V9C7.232 9 6 12 6 12c.401-6.097 5.225-6.024 5.98-6V5c0-.556.353-.727.787-.39zM8 3H7v1h1V3zM6 3H5v1h1V3zM4 3H3v1h1V3z"></path></g></svg>