<svg xmlns="http://www.w3.org/2000/svg" viewBox="0 0 16 16" width="16px" height="16px"><g><path fill-rule="evenodd" d="M2 12.2a1.8 1.8 0 110 3.6 1.8 1.8 0 010-3.6zm6 0a1.8 1.8 0 110 3.6 1.8 1.8 0 010-3.6zm6 0a1.8 1.8 0 110 3.6 1.8 1.8 0 010-3.6zm-12-6a1.8 1.8 0 110 3.6 1.8 1.8 0 010-3.6zm6 0a1.8 1.8 0 110 3.6 1.8 1.8 0 010-3.6zm6 0a1.8 1.8 0 110 3.6 1.8 1.8 0 010-3.6zM2 .2a1.8 1.8 0 110 3.6A1.8 1.8 0 012 .2zm6 0a1.8 1.8 0 110 3.6A1.8 1.8 0 018 .2zm6 0a1.8 1.8 0 110 3.6 1.8 1.8 0 010-3.6z"></path></g></svg>