<svg xmlns="http://www.w3.org/2000/svg" viewBox="0 0 16 16" width="16px" height="16px"><g><path fill-rule="evenodd" d="M12.994 0C14.102 0 15 .895 15 1.994v12.012A2 2 0 0112.994 16H3.006A2.001 2.001 0 011 14.006V1.994A2 2 0 013.006 0h9.988zm.004 1H3.002A1.01 1.01 0 002 2.007v11.986C2 14.55 2.449 15 3.002 15h9.996A1.01 1.01 0 0014 13.993V2.007C14 1.45 13.551 1 12.998 1zM4 9.704l2.09 2.005L4 13.714v-4.01zm1.85-7.418v4.626c2.64-1.089 4.145-.638 4.944-.273C11.456 6.942 12 7.736 12 8.816v4.898h-1.841V8.816c0-1.632-3.427-.673-4.986 0L4 9.361V2.286h1.85zm6.15 0c-.145.464-.756 1.506-1.799 2.866H8.576c1.032-1.36 1.235-2.203 1.65-2.866z"></path></g></svg>