<svg xmlns="http://www.w3.org/2000/svg" viewBox="0 0 16 16" width="16px" height="16px"><g><path fill-rule="evenodd" d="M12.758 0C13.996 0 15 1.025 15 2.284v11.432C15 14.977 13.993 16 12.758 16H3.242C2.004 16 1 14.975 1 13.716V2.284C1 1.023 2.007 0 3.242 0zM5.842 2.286H4V9.36l1.168-.545c1.551-.673 4.962-1.632 4.962 0v4.898H12V8.816c0-1.08-.579-1.874-1.238-2.177-.795-.365-2.293-.816-4.92.273V2.286zM4 9.704v4.01l2.09-2.005L4 9.704zm8-7.418h-1.773c-.416.663-.62 1.506-1.651 2.866H10.2c1.044-1.36 1.655-2.402 1.8-2.866z"></path></g></svg>