<svg xmlns="http://www.w3.org/2000/svg" viewBox="0 0 48 48" width="48px" height="48px"><g><path fill-rule="evenodd" d="M43.444 17.281a1.5 1.5 0 011.84 1.06c2.023 7.526-.163 15.62-5.707 21.124-4.29 4.26-9.928 6.388-15.565 6.388a22.07 22.07 0 01-13.359-4.5l-.655 5.33a1.5 1.5 0 01-2.978-.366l.995-8.1c.013-.1.05-.194.08-.288.012-.036.016-.073.031-.108a1.48 1.48 0 01.29-.44c.01-.012.013-.027.023-.038.024-.023.056-.03.08-.053a1.48 1.48 0 01.333-.223c.053-.026.103-.05.158-.07.033-.01.06-.032.093-.042l7.917-2.199a1.499 1.499 0 11.803 2.89l-5.189 1.442c7.444 5.53 18.066 4.96 24.83-1.752 4.781-4.746 6.667-11.727 4.922-18.217a1.5 1.5 0 011.058-1.838zM39.56.001l.143.01a1.5 1.5 0 011.305 1.671l-.997 8.1c-.012.1-.05.192-.08.285-.012.038-.015.076-.03.113a1.5 1.5 0 01-.29.44c-.01.01-.013.025-.024.036-.024.024-.055.031-.08.053a1.47 1.47 0 01-.34.226c-.047.023-.093.047-.144.065-.034.012-.064.034-.1.044l-7.915 2.202a1.5 1.5 0 01-.804-2.891l5.19-1.443C27.949 3.38 17.326 3.95 10.562 10.664 5.78 15.411 3.894 22.391 5.64 28.881a1.5 1.5 0 11-2.897.78c-2.025-7.528.162-15.623 5.706-21.126C16.333.71 28.749.093 37.374 6.646l.656-5.33A1.511 1.511 0 0139.702.01z"></path></g></svg>