<svg xmlns="http://www.w3.org/2000/svg" viewBox="0 0 48 48" width="48px" height="48px"><g><path fill-rule="evenodd" d="M30.875 31.427c-7.886 0-14.302-6.416-14.302-14.303 0-7.885 6.416-14.301 14.302-14.301 7.887 0 14.301 6.416 14.301 14.301 0 7.887-6.414 14.303-14.3 14.303m0-31.427c-9.444 0-17.127 7.682-17.127 17.124 0 4.215 1.537 8.073 4.071 11.059L.413 45.59a1.412 1.412 0 101.997 1.996L19.816 30.18a17.045 17.045 0 0011.06 4.07C40.316 34.25 48 26.569 48 17.124 48 7.682 40.317 0 30.875 0"></path></g></svg>