<svg xmlns="http://www.w3.org/2000/svg" viewBox="0 0 48 48" width="48px" height="48px"><g><path fill-rule="evenodd" d="M45.177 42.353a2.827 2.827 0 01-2.824 2.824H5.648a2.827 2.827 0 01-2.825-2.824V5.648a2.827 2.827 0 012.825-2.824h36.705a2.827 2.827 0 012.824 2.824v36.705zM42.353 0H5.648A5.654 5.654 0 000 5.648v36.705A5.653 5.653 0 005.648 48h36.705A5.653 5.653 0 0048 42.353V5.648A5.654 5.654 0 0042.353 0zM21.529 8.452c.78 0 1.412.631 1.412 1.412v28.607c0 .78-.633 1.412-1.412 1.412h-9.434a1.411 1.411 0 01-1.214-2.133l6.605-11.12c-3.308-1.435-5.456-4.648-5.456-8.679 0-5.504 3.995-9.499 9.5-9.499zm4.942 0c5.504 0 9.499 3.995 9.499 9.499 0 3.7-1.806 6.718-4.662 8.3l5.856 11.583a1.41 1.41 0 11-2.52 1.273L28.64 27.23c-.69.145-1.416.22-2.17.22a1.412 1.412 0 010-2.823c3.932 0 6.677-2.745 6.677-6.676 0-3.93-2.745-6.677-6.676-6.677a1.412 1.412 0 110-2.822zM20.117 27.73l-5.54 9.33h5.54v-9.33zm0-16.33c-3.16.578-5.264 3.11-5.264 6.551 0 2.994 1.595 5.295 4.091 6.225l1.173-1.975z"></path></g></svg>