<svg xmlns="http://www.w3.org/2000/svg" viewBox="0 0 48 48" width="48px" height="48px"><g><path fill-rule="evenodd" d="M45.416 28.48a12.102 12.102 0 00-1.777-1.832 12.071 12.071 0 00-7.694-2.773c-4.342 0-8.145 2.317-10.265 5.773-.72-.25-2.883-1-4.501-1.476-.986-.29-1.113-.573-1.123-.605-.01-.027-.08-.284.4-.99 1.734-2.544 2.48-4.943 2.354-7.548-.123-2.431-1.246-4.598-2.845-5.857.01-.058.035-.11.035-.171 0-.451.03-1.761.166-2.4.61-2.854 2.248-4.574 4.38-4.6 2.12-.05 3.768 1.61 4.364 4.381.495 2.308-.293 4.155-1.724 6.386-.57.886-1.263 2.195-.74 3.352.513 1.133 1.88 1.463 2.866 1.611 1.522.23 3.38.462 5.528.688a.999.999 0 001.098-.889.998.998 0 00-.89-1.1 124.57 124.57 0 01-5.438-.675c-1.184-.18-1.34-.456-1.341-.46-.002-.003-.117-.33.6-1.447 1.436-2.237 2.67-4.741 1.996-7.885-.798-3.716-3.252-6.03-6.345-5.962-3.083.038-5.501 2.407-6.31 6.183-.121.569-.172 1.389-.193 2.002a4.609 4.609 0 00-.757-.14c-4.58-.405-7.465 2.04-7.897 6.721-.256 2.791.52 5.29 2.37 7.642.605.767.542 1.035.54 1.037 0 .003-.124.341-1.517.74-1.831.523-5.085 2.24-5.223 2.313a1 1 0 10.935 1.768c.03-.018 3.208-1.692 4.839-2.159 1.132-.323 2.484-.85 2.87-2.047.409-1.264-.555-2.488-.872-2.89-1.54-1.956-2.16-3.933-1.95-6.22.333-3.62 2.195-5.228 5.727-4.914 1.925.172 3.599 2.457 3.73 5.091.107 2.177-.512 4.128-2.008 6.323-.72 1.055-.926 1.968-.632 2.79.305.85 1.103 1.457 2.442 1.85 1.397.41 3.276 1.053 4.154 1.358a11.957 11.957 0 00-.872 4.473c0 3.858 1.829 7.288 4.657 9.495l-.06-.003c-1.466.305-2.966.46-4.493.46-12.061 0-21.874-9.813-21.874-21.874C2.126 11.938 11.939 2.127 24 2.127c12.062 0 21.874 9.811 21.874 21.873a21.89 21.89 0 01-.458 4.48zm-2.98 14.939v-5.333c0-.572-.301-1.105-.774-1.386l-2.226-1.375v-3.679l-.003-.186-.02-.052a1.689 1.689 0 00-.07-.31l-.08-.191a.897.897 0 00-.03-.053l-.078-.143-.041-.038a1.572 1.572 0 00-.304-.306l-2.87-1.668c-.851-.494-1.302-.513-2.24-.003l-2.636 1.51-.234.16a1.118 1.118 0 00-.188.17l-.167.192-.152.31a1.228 1.228 0 00-.053.171l-.026.11c-.007.035-.016.078-.022.129l-.031 12.55c-2.52-1.8-4.17-4.742-4.17-8.075 0-5.48 4.445-9.923 9.924-9.923a9.88 9.88 0 016.335 2.285 9.918 9.918 0 013.406 5.805l.008.181.016-.035c.095.55.159 1.11.159 1.687a9.9 9.9 0 01-3.432 7.495zm-8.24-9.691v11.954a9.791 9.791 0 01-1.761-.486V32.722l1.76 1.005zm.616-1.087l-1.74-.994 1.74-.994 1.742.994-1.742.994zm2.39 3.602v9.514c-.412.053-.83.089-1.257.089-.17 0-.337-.016-.505-.025V33.734l1.763-1.006v3.514zm3 8.633a9.735 9.735 0 01-1.756.64v-8.152l1.757 1.082v6.43zM48 24.002C48 10.744 37.255 0 24 0 10.746 0 0 10.745 0 24c0 13.253 10.746 24 24 24 2.462 0 4.833-.38 7.068-1.07a11.973 11.973 0 004.877 1.041c6.645 0 12.05-5.404 12.05-12.05a12.01 12.01 0 00-1.05-4.897A23.934 23.934 0 0048 24z"></path></g></svg>