<svg xmlns="http://www.w3.org/2000/svg" viewBox="0 0 48 48" width="48px" height="48px"><g><path fill-rule="evenodd" d="M9.575 10.373C4.352 10.373 0 14.566 0 19.745c0 5.303 4.352 9.496 9.575 9.496.87 0 1.617-.616 1.741-1.48V12.1c0-.986-.746-1.726-1.74-1.726zM48 2.727C48 1.74 47.13 1 46.26 1c-.498 0-.747.123-1.12.37l-15.171 8.633H16.166c-.87 0-1.741.74-1.741 1.726v16.279h.124c0 .863.746 1.603 1.617 1.603h12.186l16.664 9.496c.373.247.746.494 1.243.494.87 0 1.741-.864 1.741-1.727 0-.123-.124-.123-.124-.247H48v-34.9zM27.98 42.56h-.125v-.123l-5.223-9.003c-.373-.37-.746-.616-1.243-.74h-4.601c-.25 0-.498.124-.747.247-.746.493-1.119 1.48-.621 2.343 0 .124.124.124.124.124v.123l6.218 10.482v.124c.497.74 1.492.986 2.362.616 0-.123.125-.123.25-.246l3.108-1.727v-.123c.622-.493.87-1.357.497-2.097z"></path></g></svg>