<svg xmlns="http://www.w3.org/2000/svg" viewBox="0 0 48 48" width="48px" height="48px"><g><path fill-rule="evenodd" d="M19.612 13.765a1.013 1.013 0 00-1.55.865c.028 4.203.09 14.47.048 18.706-.008.8.872 1.29 1.551.868l14.994-9.343a1.014 1.014 0 000-1.722l-15.043-9.374zM24 44.634c-11.378 0-20.634-9.256-20.634-20.633C3.366 12.623 12.622 3.365 24 3.365c11.377 0 20.634 9.258 20.634 20.636 0 11.377-9.257 20.633-20.634 20.633M24 0C10.766 0 0 10.766 0 24.001 0 37.234 10.766 48 24 48c13.233 0 24-10.766 24-23.999C48 10.766 37.233 0 24 0"></path></g></svg>