<svg xmlns="http://www.w3.org/2000/svg" viewBox="0 0 48 48" width="48px" height="48px"><g><path fill-rule="evenodd" d="M37.43 34.146a3.823 3.823 0 00-.868-2.643L24.21 38.717a8.317 8.317 0 01-4.198 1.135 8.321 8.321 0 01-3.808-.92l-.394-.215-12.35-7.212a3.811 3.811 0 00-.87 2.658 3.726 3.726 0 001.638 2.91l.231.146 12.643 7.383a5.782 5.782 0 005.495.173l.32-.173L35.56 37.22a3.73 3.73 0 001.87-3.073zm-34.84-8.15a3.723 3.723 0 001.637 2.927l.232.148 12.643 7.382a5.778 5.778 0 005.495.174l.32-.174L35.56 29.07c.151-.088.273-.203.405-.308.028-.019.05-.043.078-.059a3.715 3.715 0 001.384-2.653 3.812 3.812 0 00-.697-2.465l-.174-.228-12.347 7.21a8.333 8.333 0 01-8.006.215l-.394-.214-12.352-7.214a3.81 3.81 0 00-.867 2.641zm-.006-8.358c0 1.164.528 2.203 1.4 2.915.029.019.053.045.083.065.087.067.167.142.254.21l.138.094 12.643 7.383a5.782 5.782 0 005.495.174l.32-.174 12.643-7.383a3.744 3.744 0 001.755-2.357c-4.096-.57-7.338-3.767-7.953-7.83l-6.445-3.762a5.779 5.779 0 00-5.493-.175l-.322.175L4.46 14.355a3.76 3.76 0 00-1.875 3.283zM34 12.698l.007.113c.055.489.443.864.914.864l3.75-.001.002.001h3.653l.106-.006c.451-.058.814-.472.814-.971V9.272l-.007-.114c-.053-.488-.442-.863-.913-.863h-.622V6.638l-.006-.192c-.092-1.716-1.433-2.86-3.075-2.86-1.713 0-3.082 1.226-3.082 3.052v1.657h-.62l-.105.008c-.45.056-.816.469-.816.97v3.425zm5.942 5.865a6.364 6.364 0 01-1.372 3.148 6.447 6.447 0 011.435 4.52 6.416 6.416 0 01-1.43 3.625 6.44 6.44 0 011.436 4.432 6.393 6.393 0 01-2.855 5.006l-.303.189-12.643 7.383A8.331 8.331 0 0120.01 48a8.321 8.321 0 01-3.808-.92l-.394-.214-12.641-7.383A6.397 6.397 0 01.01 34.314a6.44 6.44 0 011.436-4.456 6.417 6.417 0 01-1.438-3.721 6.45 6.45 0 011.436-4.432 6.376 6.376 0 01-1.443-4.067c0-2.198 1.068-4.18 2.875-5.366l.29-.18L15.81 4.708a8.348 8.348 0 018.06-.188l.34.188 5.184 3.025A9.36 9.36 0 0138.622 0C43.802 0 48 4.179 48 9.334c0 4.709-3.506 8.592-8.06 9.23zm-.128-11.725c0-.704-.534-1.277-1.19-1.277-.663 0-1.19.573-1.19 1.277V8.36h2.38V6.84zM5.119 28.095c.348 0 .684-.144.918-.38a1.3 1.3 0 00.375-.927c0-.34-.13-.679-.375-.928-.479-.47-1.332-.484-1.835 0a1.39 1.39 0 00-.376.928c0 .34.144.679.388.927.233.236.568.38.905.38zm-.905 5.933a1.294 1.294 0 00-.388.928c0 .34.144.679.388.913.231.25.568.392.905.392.348 0 .671-.142.918-.392a1.27 1.27 0 00.375-.913c0-.354-.13-.692-.375-.928-.465-.484-1.356-.484-1.823 0zm2.843 1.841a1.338 1.338 0 00-.375.928c0 .34.143.68.375.929.246.236.582.378.916.378.337 0 .673-.142.919-.378.232-.248.374-.589.374-.929 0-.338-.142-.678-.374-.928-.491-.481-1.37-.481-1.835 0zm.916-5.92c.337 0 .673-.142.919-.391a1.35 1.35 0 00.374-.915c0-.352-.142-.692-.374-.928-.491-.497-1.37-.483-1.835 0a1.338 1.338 0 00-.375.928c0 .34.143.68.375.915a1.3 1.3 0 00.916.392zM5.119 19.353c.336 0 .671-.144.918-.392a1.27 1.27 0 00.374-.914c0-.354-.128-.693-.374-.943-.491-.47-1.356-.47-1.823.014a1.288 1.288 0 000 1.843c.233.248.568.392.905.392zm1.94 1.45a1.309 1.309 0 010-1.842c.475-.484 1.342-.498 1.833 0 .232.248.374.587.374.928 0 .34-.142.68-.374.913-.245.25-.582.394-.917.394-.336 0-.672-.144-.916-.394z"></path></g></svg>