<svg xmlns="http://www.w3.org/2000/svg" viewBox="0 0 48 48" width="48px" height="48px"><g><path fill-rule="evenodd" d="M4.213 34.027a1.293 1.293 0 000 1.843c.232.248.568.39.905.39.348 0 .67-.142.917-.39a1.27 1.27 0 00.376-.914c0-.354-.13-.693-.376-.929-.465-.482-1.356-.482-1.822 0zm.905-5.933c.35 0 .683-.144.919-.38a1.3 1.3 0 00.374-.927c0-.34-.13-.678-.374-.928-.48-.469-1.333-.483-1.837 0-.232.25-.375.588-.375.928 0 .34.143.679.388.927.232.236.57.38.905.38zm1.94 7.776a1.328 1.328 0 00-.376.927c0 .34.141.68.375.928.245.236.58.38.916.38.336 0 .673-.144.919-.38a1.39 1.39 0 00.374-.928 1.39 1.39 0 00-.374-.927c-.491-.482-1.371-.482-1.835 0zm.915-14.676a1.3 1.3 0 00.917-.393 1.32 1.32 0 00.376-.913c0-.342-.143-.68-.376-.927-.489-.5-1.356-.484-1.833 0a1.314 1.314 0 00.916 2.234zm31.923-9.446c.933-.931 1.068-2.423.262-3.465a2.608 2.608 0 00-.464-.466.582.582 0 00-.7-.009l-.065.057-.052.054a.745.745 0 00.094 1.014 1.2 1.2 0 01.331.539 1.362 1.362 0 01-.357 1.36l-1.881 1.937a1.316 1.316 0 01-1.736.124 1.294 1.294 0 01-.49-.936 1.29 1.29 0 01.377-.984l.73-.71a.454.454 0 00.123-.445c-.101-.369-.258-.54-.226-1.023a.13.13 0 00-.07-.127.128.128 0 00-.11.001l-.033.023-1.306 1.313c-.976.968-1.076 2.532-.179 3.576a2.63 2.63 0 001.884.908 2.637 2.637 0 001.949-.76l1.92-1.98zM37.43 34.145a3.808 3.808 0 00-.867-2.64L24.21 38.717a8.336 8.336 0 01-8.007.214l-.393-.214-12.35-7.211a3.8 3.8 0 00-.87 2.656 3.724 3.724 0 001.637 2.91l.23.146 12.645 7.384a5.783 5.783 0 005.493.175l.32-.175 12.644-7.384a3.73 3.73 0 001.87-3.073zm-34.84-8.15a3.732 3.732 0 001.636 2.928l.233.147 12.644 7.382a5.77 5.77 0 005.493.175l.32-.175L35.56 29.07c.15-.086.272-.202.406-.308.026-.018.05-.041.078-.058a3.714 3.714 0 001.383-2.654 3.807 3.807 0 00-.698-2.463l-.174-.228-12.345 7.21a8.338 8.338 0 01-8.007.214l-.393-.215-12.352-7.214a3.812 3.812 0 00-.868 2.641zm-.005-8.358c0 1.164.527 2.203 1.398 2.915.03.019.055.045.083.065.088.069.17.142.256.21l.137.095 12.644 7.382a5.778 5.778 0 005.493.175l.32-.175 12.644-7.382a3.737 3.737 0 001.756-2.358c-4.097-.57-7.338-3.767-7.953-7.83l-6.446-3.762a5.774 5.774 0 00-5.494-.173l-.32.173-12.644 7.382a3.761 3.761 0 00-1.874 3.283zm34.223-8.153c.175.311.414.584.699.801a.55.55 0 00.725-.046l.02-.02a.777.777 0 00.163-.232.7.7 0 00-.18-.81 1.24 1.24 0 01-.382-.646 1.336 1.336 0 01.373-1.262l1.797-1.8c.39-.395.988-.496 1.486-.248a1.287 1.287 0 01.34 2.065l-.768.732a.35.35 0 00-.088.348c.11.383.288.64.248 1.037a.122.122 0 00.07.127.118.118 0 00.11-.001l.03-.023 1.317-1.273a2.6 2.6 0 00-1.153-4.365 2.612 2.612 0 00-2.528.67l-1.825 1.824a2.6 2.6 0 00-.454 3.122zm3.132 9.078a6.362 6.362 0 01-1.37 3.149 6.448 6.448 0 011.435 4.519 6.423 6.423 0 01-1.43 3.626 6.45 6.45 0 011.436 4.432 6.393 6.393 0 01-2.855 5.006l-.303.188-12.643 7.384a8.336 8.336 0 01-8.007.215l-.393-.215-12.643-7.384a6.387 6.387 0 01-3.154-5.168 6.426 6.426 0 011.435-4.457 6.403 6.403 0 01-1.438-3.72 6.443 6.443 0 011.436-4.431A6.385 6.385 0 010 17.637c0-2.198 1.068-4.18 2.875-5.366l.291-.181L15.81 4.708a8.348 8.348 0 018.06-.189l.34.189 5.182 3.025A9.36 9.36 0 0138.621 0C43.802 0 48 4.18 48 9.333c0 4.709-3.506 8.592-8.06 9.23zm-34.821.79c.337 0 .67-.145.917-.391.246-.238.376-.576.376-.916 0-.354-.13-.693-.376-.943-.49-.468-1.356-.468-1.822.014a1.293 1.293 0 000 1.845c.232.246.568.39.905.39zm1.94 10.205a1.315 1.315 0 010-1.843c.463-.482 1.343-.496 1.834 0 .23.236.374.576.374.929 0 .341-.143.667-.374.914-.246.25-.583.392-.919.392-.335 0-.671-.142-.916-.392z"></path></g></svg>