<svg xmlns="http://www.w3.org/2000/svg" viewBox="0 0 48 48" width="48px" height="48px"><g><path fill-rule="evenodd" d="M13.714 22.77V12.384H3.43C1.714 12.385 0 14.115 0 15.846v17.308c0 1.73 1.714 3.461 3.429 3.461h3.428V47L17.25 36.615h10.286c1.607 0 3.321-1.73 3.321-3.461v-3.462H20.571c-3.428 0-6.857-3.461-6.857-6.923zM44.571 2h-24c-1.714 0-3.428 1.73-3.428 3.462v17.307c0 1.731 1.714 3.462 3.428 3.462H30.75l10.393 10.384V26.231h3.428C46.286 26.23 48 24.5 48 22.769V5.462C48 3.73 46.286 2 44.571 2z"></path></g></svg>