<svg xmlns="http://www.w3.org/2000/svg" viewBox="0 0 48 48" width="48px" height="48px"><g><path fill-rule="evenodd" d="M26.922 5c.732 0 1.324.592 1.324 1.322v14.037c0 .732-.592 1.323-1.324 1.323H5.962a1.322 1.322 0 01-1.325-1.323V6.322C4.637 5.592 5.23 5 5.961 5zm-1.32 9.17h-4.647v4.867h4.646V14.17zm-6.632 0h-4.686v4.867h4.686V14.17zm-6.669 0H7.284v4.867h5.017V14.17zm0-6.525H7.282v4.541H12.3V7.645zm13.3 0h-4.647v4.541H25.6V7.645zm-6.63 0h-4.686v4.541h4.686V7.645zm18.194 17.02a1.326 1.326 0 00-1.297 1.323c0 8.86-6.986 15.288-16.61 15.288-9.14 0-15.901-5.796-16.559-13.965l23.371-.004c.269.019 6.618.475 9.324-3.4a1.324 1.324 0 00-.036-1.562c-.746-.974-.994-2.174-1.072-3.007-.123-1.341.104-3.101.863-4.22 1.055.907 2.562 2.548 2.805 4.65a1.324 1.324 0 001.688 1.119c1.817-.534 3.824-.401 5.314.344-1.02 2.702-5.946 3.397-7.791 3.434m10.174-5.125l-.784-.452c-1.779-1.028-4.046-1.393-6.276-1.05-.585-1.9-1.885-3.717-3.765-5.226l-.716-.574a1.32 1.32 0 00-1.829.166l-.598.695c-1.544 1.782-1.9 4.516-1.72 6.483.119 1.273.462 2.444 1.006 3.443-1.783 1.589-5.131 1.739-6.483 1.64H1.323c-.731 0-1.323.592-1.323 1.323 0 10.225 8.279 17.934 19.258 17.934 10.53 0 18.579-7.095 19.214-16.7 2.442-.257 7.67-1.27 9.017-5.22l.365-.712a1.324 1.324 0 00-.515-1.75"></path></g></svg>