<svg xmlns="http://www.w3.org/2000/svg" viewBox="0 0 48 48" width="48px" height="48px"><g><path fill-rule="evenodd" d="M40.766 44.163a1.28 1.28 0 01-1.279 1.279H12.953a1.28 1.28 0 01-1.28-1.279V8.952a1.28 1.28 0 011.28-1.279h26.534a1.28 1.28 0 011.279 1.279v35.211zM7.837 40.326a1.28 1.28 0 01-1.279-1.278V4.475a1.92 1.92 0 011.918-1.917h25.895c.707 0 1.28.573 1.28 1.278v1.279H12.953a3.84 3.84 0 00-3.837 3.837v31.374H7.837zm31.65-35.211h-1.279V3.836A3.84 3.84 0 0034.371 0H8.476A4.481 4.481 0 004 4.475v34.573a3.84 3.84 0 003.837 3.836h1.279v1.279A3.841 3.841 0 0012.953 48h26.534a3.842 3.842 0 003.837-3.837V8.952a3.841 3.841 0 00-3.837-3.837zM16.683 20.819h19.075v-8.116H16.683v8.116zm20.392 18.41a.96.96 0 010 1.92h-21.71a.96.96 0 010-1.92zm0-4.218a.96.96 0 010 1.919h-21.71a.96.96 0 010-1.92zm0-4.22a.96.96 0 010 1.919h-21.71a.96.96 0 010-1.918zm0-4.218a.96.96 0 010 1.918h-21.71a.96.96 0 010-1.918zm-.039-16.428c.707 0 1.28.572 1.28 1.279v10.673a1.28 1.28 0 01-1.28 1.279H15.404a1.279 1.279 0 01-1.279-1.28V11.425c0-.707.573-1.28 1.28-1.28z"></path></g></svg>