<svg xmlns="http://www.w3.org/2000/svg" viewBox="0 0 48 48" width="48px" height="48px"><g><path d="M23.998 44.645c12.48-6.546 20.15-19.042 20.935-34.927-8.187-.177-15.519-2.191-21.321-6.023-5.814 3.937-12.685 6-20.545 6.199.782 15.833 8.422 28.198 20.93 34.75zm0 3.355C9.344 40.976-.096 26.416 0 6.877 9.39 7.217 17.256 4.924 23.599 0 29.943 4.914 38.598 7.024 48 6.699 48.096 26.238 38.656 40.976 23.998 48zm-.016-10.345c7.972-5.135 12.33-12.3 13.774-23.024-5.596-.07-9.907-1.257-14.006-4.127-3.812 2.71-8.018 3.94-13.604 3.953.987 10.336 5.776 18.142 13.836 23.198zM23.998 40C14.572 34.538 8.57 25.409 8 12.404c7.05.351 11.59-1.03 15.737-4.404 5.04 3.992 10.125 4.826 16.263 4.602C38.751 25.876 33.56 34.257 23.998 40z"></path></g></svg>