<svg xmlns="http://www.w3.org/2000/svg" viewBox="0 0 48 48" width="48px" height="48px"><g><path d="M28.978 2c.16 0 .32.08.4.241.239.483 4.552 9.732 7.907 17.774h1.438c.718 0 1.278.402 1.517 1.046.72-.08 1.598-.242 1.917-.644.16-.08.16-.16.16-.322-.08-1.045-.32-3.458-.48-5.066-1.277.16-1.277-.804-1.277-1.77a1.11 1.11 0 01-.24-.321c-.559-.322-1.837-.644-2.476-.644-.719 0-2.476.402-2.077-1.286.4-1.69 2.157-1.448 2.716-1.126.48.321 1.118.804 1.518.321.399-.482-1.039-2.493-1.358-3.458-.32-.965-.4-1.77.32-2.01.798-.322 1.277.16 1.437.884.08.724 1.038 2.332 1.598 2.332.559 0 .08-2.493.16-3.297.08-.804 1.437-1.206 1.996-.402.32.402.08 2.573.08 2.573s-.16 1.529.32 2.011c.479.483 1.198-.724 1.837-1.045.719-.322 1.517-.563 1.597.482.16.965-1.358 1.689-1.358 1.689s-1.597 1.367-1.917 2.171a2.773 2.773 0 01-1.118 1.69c.08.24.16.723-.958 1.125.16 1.609.399 4.182.479 5.228 0 .402-.16.724-.4 1.045-.559.563-1.677.885-2.556.966-.24.723-.878 1.206-1.597 1.206h-.16c1.038 2.413 1.837 4.986 2.237 6.675 1.358 5.63 1.757 12.627-.4 15.442-.639.804-1.517 1.206-2.476 1.206-1.837 0-3.195-1.046-4.633-2.171-1.917-1.529-4.073-3.217-8.227-3.217-3.834 0-6.47 1.93-8.627 3.538-1.357 1.046-2.556 1.93-3.674 1.93-.48 0-1.038-.24-1.518-.723-2.156-2.091-1.517-7.319-.16-12.305a2.39 2.39 0 01-1.357-.644c-.4-.482-.72-1.287-1.518-.724-.799.563-.799 2.252-.799 3.298 0 1.045-.559 1.85-1.278 1.85-.718 0-.798-.644-.718-1.368.16-.723.798-2.654-.16-3.056-.959-.402-1.837 1.126-2.317 1.367-.479.242-1.997-.08-2.236-.563-.24-.482.4-1.447 1.118-1.93.719-.482 2.077-.724 1.997-1.045-.08-.322-1.438-.483-2.556-.563-1.118-.08-1.198-.644-1.038-1.609.16-.965 1.278-.402 2.715.322.959.402 1.358.16 1.518-.08.08-.08.08-.161.08-.242l.08.161c.32-.804.958-1.126 1.677-1.287-.08-.402.08-1.367 1.118-.965.16-1.206.48-2.975.959-3.619.56-.563 3.115-1.206 4.872-1.528a1.638 1.638 0 011.598-1.448h1.597C20.431 12.053 28.18 2.643 28.578 2.161c.08-.161.24-.161.4-.161zm-2.269 13.913c-3.538 0-6.538 2.324-7.23 5.344-.77.078-1.616.078-2.385.155-.461.852-.846 1.626-1.153 2.4-3.308 7.978-6.308 18.2-3.539 20.911.923.852 1.923.233 3.846-1.239 2.077-1.549 4.846-3.64 8.846-3.64 4.384 0 6.692 1.859 8.538 3.33 1.384 1.085 2.384 2.014 3.922 2.014.616 0 1.154-.31 1.616-.852 1.615-2.091 1.692-8.054.153-14.095-.538-2.014-1.615-5.034-2.922-8.287-.846-.077-1.616-.232-2.462-.31-.538-3.252-3.538-5.73-7.23-5.73zm-13.467 6.515c-2.077.402-3.994.965-4.313 1.287-.32.321-.56 2.09-.72 3.458 1.12.724.96 1.045.64 1.93 0 .08.08.241.08.402.48.483 1.597 1.287 2.156 1.448.4.08.64-.161.959-.241.958-3.057 2.077-5.791 2.716-7.4h-.08c-.64 0-1.198-.321-1.438-.884zm13.516-5.147c3.32 0 5.991 2.363 5.991 5.227 0 2.865-2.67 5.228-5.99 5.228-3.32 0-5.991-2.363-5.991-5.228 0-2.864 2.67-5.227 5.99-5.227z"></path></g></svg>