<svg xmlns="http://www.w3.org/2000/svg" viewBox="0 0 48 48" width="48px" height="48px"><g><path fill-rule="evenodd" d="M20.203 30.994l-3.963 2.288-3.963-2.288v-4.576l3.963-2.288 3.963 2.288v4.576zm1.59-6.104l-5.023-2.9a1.055 1.055 0 00-1.059 0l-5.022 2.9a1.058 1.058 0 00-.529.917v5.798c0 .378.201.728.53.917l5.021 2.9a1.062 1.062 0 001.06 0l5.021-2.9c.328-.19.53-.54.53-.917v-5.798c0-.378-.202-.728-.53-.917zm13.18 6.104l-3.963 2.288-3.963-2.288v-4.576l3.963-2.288 3.963 2.288v4.576zm1.588-6.104l-5.022-2.9c-.328-.19-.73-.19-1.058 0l-5.023 2.9a1.058 1.058 0 00-.53.917v5.798c0 .378.202.728.53.917l5.023 2.9a1.062 1.062 0 001.058 0l5.022-2.9c.328-.19.53-.54.53-.917v-5.798c0-.378-.202-.728-.53-.917zm-8.972-6.592l-3.963 2.288-3.963-2.288v-4.576l3.963-2.288 3.963 2.288v4.576zm2.118.611v-5.798c0-.378-.202-.728-.53-.917l-5.022-2.9a1.055 1.055 0 00-1.059 0l-5.022 2.9a1.058 1.058 0 00-.529.917v5.798c0 .377.201.728.53.917l5.021 2.9a1.065 1.065 0 001.06 0l5.021-2.9c.328-.189.53-.54.53-.917zm12.719 13.96a3.45 3.45 0 01-1.719 2.98l-15.362 8.869a3.445 3.445 0 01-3.439 0l-15.362-8.87a3.449 3.449 0 01-1.72-2.978V15.13c0-1.225.659-2.366 1.72-2.978l15.362-8.87a3.445 3.445 0 013.439 0l15.362 8.87a3.448 3.448 0 011.719 2.978v17.74zm-.308-23.163L26.756.836a6.277 6.277 0 00-6.262 0L5.132 9.707A6.28 6.28 0 002 15.13v17.74c0 2.23 1.2 4.309 3.132 5.425l15.362 8.869a6.256 6.256 0 003.131.836 6.269 6.269 0 003.131-.836l15.362-8.87a6.283 6.283 0 003.132-5.424V15.13a6.28 6.28 0 00-3.132-5.424z"></path></g></svg>