<svg xmlns="http://www.w3.org/2000/svg" viewBox="0 0 48 48" width="48px" height="48px"><g><path fill-rule="evenodd" d="M36.835 13.918a2.381 2.381 0 00-1.216 2.199l-9.934 5.526 1.892-4.834a2.381 2.381 0 00.662-4.595 2.38 2.38 0 00-2.634 3.823l-2.415 6.169-10.77-6.066a2.381 2.381 0 00-4.458-1.296 2.381 2.381 0 003.419 3.14l10.316 5.811-5.407 2.762a2.381 2.381 0 00-3.543 2.999 2.381 2.381 0 004.507-1.113l5.152-2.631-.991 11.497a2.38 2.38 0 00.666 4.594 2.381 2.381 0 001.443-4.412l1.056-12.244 8.554 1.529a2.381 2.381 0 004.636-.247 2.381 2.381 0 00-4.263-1.838l-6.77-1.21 9.912-5.514a2.381 2.381 0 003.434-3.123 2.39 2.39 0 00-3.248-.926m5.59 18.952a3.446 3.446 0 01-1.719 2.978l-15.362 8.87a3.442 3.442 0 01-3.439 0l-15.362-8.87a3.449 3.449 0 01-1.72-2.978V15.13a3.45 3.45 0 011.72-2.978l15.362-8.87a3.442 3.442 0 013.44 0l15.361 8.87a3.448 3.448 0 011.72 2.978v17.74zm-.307-23.164L26.756.836a6.278 6.278 0 00-6.262 0L5.13 9.707A6.28 6.28 0 002 15.13v17.74a6.28 6.28 0 003.131 5.424l15.363 8.87a6.258 6.258 0 003.13.836 6.28 6.28 0 003.132-.836l15.362-8.87a6.28 6.28 0 003.132-5.424V15.13a6.28 6.28 0 00-3.132-5.424z"></path></g></svg>