<svg xmlns="http://www.w3.org/2000/svg" viewBox="0 0 48 48" width="48px" height="48px"><g><path fill-rule="evenodd" d="M34.2 19.675c4.139 0 7.261 3.434 7.261 7.987 0 4.472-1.705 6.648-2.621 7.818-.095.122-.184.228-.256.325.061.027.163.055.314.078C42.214 36.12 48 37.873 48 42.87c0 2.48-1.487 5.13-5.661 5.13H5.66C1.486 48 0 45.35 0 42.87c0-4.997 5.785-6.751 9.204-7a.912.912 0 00.157-.037 35.733 35.733 0 00-.085-.091c-.957-1.032-2.737-2.953-2.737-8.081 0-4.553 3.121-7.987 7.26-7.987 4.139 0 7.259 3.434 7.259 7.987 0 4.472-1.704 6.648-2.62 7.818-.096.122-.184.228-.256.325.06.027.162.055.314.078.055 0 3.115.25 5.648 1.743 2.449-1.37 5.259-1.731 5.391-1.747.095-.015.168-.032.225-.05a5.87 5.87 0 00-.082-.086c-.956-1.032-2.737-2.953-2.737-8.081 0-4.553 3.121-7.987 7.259-7.987zm0 2.823c-2.57 0-4.435 2.172-4.435 5.164 0 4.02 1.242 5.36 1.984 6.16.426.46.909.983.947 1.77.081 1.663-.959 2.816-2.782 3.084-.059.008-2.978.392-4.992 1.787-.5.347-1.166.333-1.652-.032-1.646-1.238-4.23-1.678-5.087-1.744-1.921-.28-2.961-1.432-2.88-3.096.035-.732.461-1.276.912-1.852.804-1.028 2.02-2.58 2.02-6.077 0-2.992-1.866-5.164-4.436-5.164-2.571 0-4.437 2.172-4.437 5.164 0 4.02 1.243 5.36 1.984 6.16.427.46.91.983.948 1.77.081 1.663-.959 2.816-2.782 3.084-.167.017-6.689.552-6.689 4.195 0 1.574.902 2.306 2.837 2.306h36.679c1.936 0 2.837-.732 2.837-2.306 0-3.604-6.52-4.178-6.585-4.183-1.926-.28-2.966-1.433-2.886-3.097.035-.732.462-1.276.912-1.852.805-1.028 2.02-2.58 2.02-6.077 0-2.992-1.866-5.164-4.437-5.164zM23.236 6.492a1.06 1.06 0 011.498 0l1.798 1.8a1.06 1.06 0 01-1.498 1.496l-1.049-1.05-1.02 1.021a1.059 1.059 0 11-1.499-1.497zM24 2.824c2.595 0 4.788 2.175 4.788 4.75 0 1.348-.53 2.412-1.142 3.643-.663 1.334-1.415 2.845-1.415 4.801v2.153a.775.775 0 01-.774.775h-2.914a.775.775 0 01-.774-.775v-2.153c0-1.982-.767-3.552-1.443-4.937-.598-1.225-1.114-2.282-1.114-3.507 0-2.242 2.048-4.75 4.788-4.75m-5.055 13.194v2.153a3.602 3.602 0 003.598 3.598h2.914a3.602 3.602 0 003.598-3.598v-2.153c0-1.292.519-2.336 1.12-3.544.674-1.353 1.437-2.888 1.437-4.9C31.612 3.398 28.197 0 24 0c-4.055 0-7.612 3.54-7.612 7.574 0 1.877.744 3.401 1.4 4.746.595 1.217 1.157 2.369 1.157 3.698"></path></g></svg>