<svg xmlns="http://www.w3.org/2000/svg" viewBox="0 0 48 48" width="48px" height="48px"><g><path fill-rule="evenodd" d="M11.226 33.321c.779 0 1.412.632 1.412 1.412v3.003c0 .535.288 1.034.75 1.301.676.39.907 1.253.519 1.929a1.414 1.414 0 01-1.93.517 4.34 4.34 0 01-2.163-3.747v-3.003c0-.78.633-1.412 1.412-1.412zm26.396 0c.779 0 1.412.632 1.412 1.412v3.004a4.34 4.34 0 01-2.163 3.747 1.415 1.415 0 01-1.93-.517 1.416 1.416 0 01.518-1.93c.463-.267.751-.765.751-1.3v-3.004c0-.78.633-1.412 1.412-1.412zm-33.21-3.834c.78 0 1.412.633 1.412 1.413v2.867c0 .535.288 1.033.751 1.301a1.413 1.413 0 01-1.41 2.446A4.339 4.339 0 013 33.767V30.9c0-.78.633-1.413 1.412-1.413zm40.023 0c.78 0 1.412.633 1.412 1.413v2.867a4.339 4.339 0 01-2.164 3.748 1.414 1.414 0 01-1.929-.517 1.413 1.413 0 01.518-1.93c.463-.267.751-.765.751-1.301V30.9c0-.78.632-1.412 1.412-1.412zM32.46 21.196a1.41 1.41 0 011.929-.517l2.483 1.434a4.34 4.34 0 012.163 3.747v2.983a1.412 1.412 0 01-2.824 0V25.86c0-.536-.288-1.034-.751-1.3l-2.484-1.435a1.412 1.412 0 01-.516-1.929zm-18-.517a1.411 1.411 0 111.413 2.446l-2.483 1.434a1.506 1.506 0 00-.751 1.301v2.984a1.412 1.412 0 01-2.824 0V25.86a4.34 4.34 0 012.163-3.747zm-10.047.453c.78 0 1.412.632 1.412 1.412v2.914a1.412 1.412 0 11-2.824 0v-2.914c0-.78.633-1.412 1.412-1.412zm40.023 0c.78 0 1.412.631 1.412 1.411v2.915a1.412 1.412 0 01-2.824 0v-2.915c0-.78.632-1.412 1.412-1.412zm-22.172-4.957a4.334 4.334 0 014.327 0l2.483 1.433a1.413 1.413 0 01-1.413 2.445l-2.482-1.433a1.503 1.503 0 00-1.503 0l-2.584 1.492a1.41 1.41 0 01-1.93-.517 1.413 1.413 0 01.518-1.929zM39.22 9.477a1.41 1.41 0 011.93-.518l2.482 1.434a4.338 4.338 0 012.163 3.747v2.985a1.412 1.412 0 11-2.822 0V14.14c0-.536-.29-1.034-.752-1.3l-2.483-1.434a1.412 1.412 0 01-.517-1.93zM7.697 8.958a1.413 1.413 0 011.412 2.446L6.626 12.84a1.507 1.507 0 00-.752 1.301v2.984a1.412 1.412 0 11-2.823 0V14.14c0-1.54.828-2.976 2.163-3.747zm7.317-4.096a1.408 1.408 0 011.928.515 1.41 1.41 0 01-.516 1.928l-2.525 1.458A1.41 1.41 0 1112.49 6.32zm16.774.515a1.409 1.409 0 011.928-.516L36.24 6.32a1.41 1.41 0 01-.707 2.634c-.241 0-.483-.06-.705-.19l-2.524-1.457a1.41 1.41 0 01-.517-1.929zm-9.525-4.8a4.34 4.34 0 014.326 0l2.484 1.432c.675.392.906 1.256.517 1.93a1.414 1.414 0 01-1.93.517l-2.482-1.434a1.51 1.51 0 00-1.503 0L21.09 4.514a1.41 1.41 0 01-1.93-.517 1.413 1.413 0 01.518-1.929zm7.189 41.061c0 .536-.288 1.034-.751 1.302l-3.525 2.035a1.51 1.51 0 01-1.503 0l-3.525-2.035a1.507 1.507 0 01-.752-1.302V37.57c0-.535.288-1.035.752-1.301l3.525-2.035a1.5 1.5 0 01.752-.2c.259 0 .519.066.751.2l3.525 2.035c.463.267.751.766.751 1.302v4.069zm.66-7.817l-3.524-2.035a4.346 4.346 0 00-4.327 0l-3.525 2.035a4.34 4.34 0 00-2.163 3.748v4.07a4.34 4.34 0 002.163 3.748l3.525 2.035a4.342 4.342 0 004.327 0l3.524-2.035a4.339 4.339 0 002.164-3.748v-4.07a4.339 4.339 0 00-2.164-3.748z"></path></g></svg>