<svg xmlns="http://www.w3.org/2000/svg" viewBox="0 0 48 48" width="48px" height="48px"><g><path fill-rule="evenodd" d="M28.364.105c4.943 0 9.002 3.938 9.002 8.79v13.95l.063-.003H43c1.046 0 1.895.848 1.895 1.895v5.688c0 6.053-5.084 10.972-11.276 10.972h-7.726l.002.024v4.782a1.895 1.895 0 11-3.79 0v-4.806h-7.723c-6.193 0-11.277-4.919-11.277-10.972v-5.688c0-1.047.849-1.895 1.895-1.895h5.704l.001-13.947c0-4.851 4.06-8.79 9.001-8.79h8.658zm8.988 26.525l-.008.227c-.222 5.45-2.214 7.657-8.98 7.657h-8.658c-6.857 0-8.81-2.268-8.987-7.882H6.895v3.793c0 3.932 3.36 7.183 7.487 7.183H33.62c4.127 0 7.486-3.251 7.486-7.183v-3.793H37.43c-.026 0-.052 0-.077-.002zM28.364 3.895h-8.658c-2.874 0-5.211 2.267-5.211 5v.052h8.397c.654 0 1.192.497 1.256 1.134l.007.13c0 .697-.566 1.263-1.263 1.263h-8.398v2.525L25.922 14c.654 0 1.192.497 1.257 1.134l.006.13c0 .697-.565 1.262-1.263 1.262H14.494v2.526h8.398c.654 0 1.192.498 1.256 1.135l.007.129c0 .697-.566 1.263-1.263 1.263h-8.398v4.145c0 2.338.113 3.174.539 3.772.535.754 1.89 1.229 4.673 1.229h8.658c2.784 0 4.139-.475 4.675-1.229.425-.598.538-1.434.538-3.772V8.895c0-2.733-2.338-5-5.213-5z"></path></g></svg>