<svg xmlns="http://www.w3.org/2000/svg" viewBox="0 0 48 48" width="48px" height="48px"><g><path fill-rule="evenodd" d="M37.816 27.84c0-3.562-2.486-4.51-7.722-5.18-5.29-.678-5.829-1.027-5.829-2.226 0-.99.456-2.312 4.374-2.312 3.5 0 4.79.73 5.321 3.014a.487.487 0 00.478.372h2.211a.508.508 0 00.36-.152.473.473 0 00.13-.367c-.342-3.933-3.042-5.766-8.5-5.766-4.857 0-7.754 1.983-7.754 5.31 0 3.61 2.883 4.606 7.544 5.053 5.578.528 6.01 1.317 6.01 2.38 0 1.843-1.527 2.628-5.116 2.628-4.509 0-5.5-1.095-5.833-3.265a.488.488 0 00-.489-.404h-2.203a.482.482 0 00-.492.475c0 2.778 1.562 6.09 9.017 6.09 5.398 0 8.493-2.058 8.493-5.65M22.35 47.506l-6.15-3.475c-.918-.49-.47-.664-.167-.765 1.226-.406 1.474-.5 2.781-1.208.136-.073.316-.045.457.034l4.724 2.68c.172.09.413.09.57 0l18.419-10.154c.171-.093.28-.282.404-.476v-20.3c-.123-.198-.233-.384-.409-.485L24.57 3.213a.601.601 0 00-.568 0L5.595 13.361c-.179.097-.292.289-.411.482v20.3c.12.193.232.377.41.469l5.045 2.784c2.738 1.308 4.892-.1 4.892-1.624V15.984c0-.38.398-.761.796-.761h1.591c.398 0 .796.38.796.76v19.789c0 3.49-2.246 5.336-5.71 5.336-1.064 0-1.903 0-4.243-1.101l-4.83-2.656C2.739 36.692 2 35.461 2 34.142v-20.3c0-1.318.738-2.55 1.932-3.205L22.35.472c1.165-.63 2.714-.63 3.87 0l18.417 10.165c1.193.658 1.934 1.887 1.934 3.206v20.3c0 1.318-.74 2.545-1.934 3.208L26.22 47.506a4.005 4.005 0 01-1.94.494 4.002 4.002 0 01-1.931-.494z"></path></g></svg>