<svg xmlns="http://www.w3.org/2000/svg" viewBox="0 0 48 48" width="48px" height="48px"><g><path fill-rule="evenodd" d="M43.085 13.715c.021.422.031.85.031 1.272 0 13.018-9.907 28.023-28.022 28.023A27.887 27.887 0 010 38.586c.767.089 1.555.136 2.348.136a19.73 19.73 0 0012.229-4.216c-4.309-.078-7.946-2.927-9.198-6.84a9.887 9.887 0 004.445-.167 9.853 9.853 0 01-7.899-9.657v-.12a9.865 9.865 0 004.461 1.231 9.854 9.854 0 01-4.378-8.197c0-1.805.486-3.5 1.331-4.951 4.857 5.958 12.115 9.877 20.301 10.289a9.594 9.594 0 01-.256-2.243C23.384 8.408 27.793 4 33.229 4a9.826 9.826 0 017.19 3.11 19.713 19.713 0 006.255-2.39 9.873 9.873 0 01-4.33 5.447A19.659 19.659 0 0048 8.617a19.955 19.955 0 01-4.915 5.098"></path></g></svg>