<svg xmlns="http://www.w3.org/2000/svg" viewBox="0 0 16 16" width="16px" height="16px"><g><path d="M1.846 8H2v5.783C2 14.455 2.397 15 3.077 15h9.846c.68 0 1.077-.328 1.077-1V8h.154C15.077 8 16 7.105 16 6V4.36a1 1 0 00-.23-.638l-2.05-2.468A.63.63 0 0013.21 1H2.791a.63.63 0 00-.512.254L.23 3.722a1 1 0 00-.23.639V6c0 1.105.923 2 1.846 2zM3 8c0-.333.142-.703.427-1.11.382.635.906.952 1.573.952.667 0 1.167-.317 1.5-.952.333.635.833.952 1.5.952s1.167-.317 1.5-.952c.333.635.833.952 1.5.952s1.167-.317 1.5-.952c.333.407.5.777.5 1.11v6.016h-1l-.003-4.03C12 9.5 11.5 9 11 9H5c-.5 0-1 .5-1 .986v4.015c-.513-.001-1 .002-1 0V8zm2 2h6v4H5v-4zM1 5h2c0 1 0 2-1 2S1 6 1 5zm3 0h2c0 1 0 2-1 2S4 6 4 5zm3 0h2c0 1 0 2-1 2S7 6 7 5zm3 0h2c0 1 0 2-1 2s-1-1-1-2zm3 0h2c0 1 0 2-1 2s-1-1-1-2zm1.6-1H1.4L3 2h10l1.6 2z"></path></g></svg>