<svg xmlns="http://www.w3.org/2000/svg" viewBox="0 0 48 48" width="48px" height="48px"><g><path fill-rule="evenodd" d="M24 2.823c11.677 0 21.176 9.499 21.176 21.177 0 4.377-1.334 8.447-3.617 11.826a18.665 18.665 0 001.222-6.608c0-10.357-8.425-18.782-18.781-18.782-10.357 0-18.783 8.425-18.783 18.782 0 2.326.444 4.545 1.221 6.603A21.05 21.05 0 012.823 24C2.823 12.322 12.322 2.823 24 2.823M22.885 45.12c-5.498-.56-9.802-5.217-9.802-10.86 0-6.018 4.897-10.916 10.917-10.916 6.018 0 10.914 4.898 10.914 10.916 0 5.643-4.304 10.3-9.8 10.86-.37.026-.738.057-1.114.057-.377 0-.745-.031-1.115-.057M24 20.521c-7.576 0-13.74 6.163-13.74 13.739 0 1.386.211 2.724.594 3.988a15.867 15.867 0 01-2.814-9.03C8.04 20.42 15.199 13.26 24 13.26c8.798 0 15.958 7.16 15.958 15.958 0 3.35-1.043 6.459-2.814 9.03a13.73 13.73 0 00.594-3.988c0-7.576-6.163-13.739-13.738-13.739M48 24C48 10.765 37.233 0 24 0 10.766 0 0 10.765 0 24c0 12.587 9.743 22.92 22.081 23.902a18.735 18.735 0 003.837 0C38.256 46.92 48 36.587 48 24"></path></g></svg>