<svg xmlns="http://www.w3.org/2000/svg" viewBox="0 0 48 48" width="48px" height="48px"><g><path fill-rule="evenodd" d="M18.834 25.474a1.437 1.437 0 01.145-2.012l8.18-7.147a1.396 1.396 0 011.988.147c.51.596.444 1.495-.145 2.01l-8.181 7.15a1.397 1.397 0 01-1.987-.147zM12.8 11c-1.544 0-2.8 1.276-2.8 2.845v13.146C10 28.561 11.458 30 13.002 30H19c.5 0 .999.503.995 1L20 36l7-5.5c.244-.188.695-.5 1-.5h7c1.5 0 3-1.49 3-3V13.845C38 12.276 36.744 11 35.2 11H12.8zm5.062 28.873c-.48-.233-.79-.755-.8-1.289l-.117-5.6h-4.278C9.54 32.985 7 30.13 7 27.002V13.674A5.675 5.675 0 0112.667 8h22.666A5.675 5.675 0 0141 13.674v13.327C41 30.13 38.125 33 35 33h-6l-9.665 6.726a1.42 1.42 0 01-1.473.147zM5.8 3A2.803 2.803 0 003 5.8v36.4C3 43.744 4.256 45 5.8 45h36.4c1.544 0 2.8-1.256 2.8-2.8V5.8C45 4.256 43.744 3 42.2 3H5.8zm-.153 45A5.653 5.653 0 010 42.353V5.647A5.653 5.653 0 015.647 0h36.706A5.653 5.653 0 0148 5.647v36.706A5.653 5.653 0 0142.353 48H5.647z"></path></g></svg>