<svg xmlns="http://www.w3.org/2000/svg" viewBox="0 0 48 48" width="48px" height="48px"><g><path fill-rule="evenodd" d="M42.895 32.002c0 1.843-.991 3.56-2.587 4.481l-1.059.611-3.026-4.872a5.354 5.354 0 001.269-3.44v-9.564a5.35 5.35 0 00-1.28-3.452l2.961-4.905 1.135.655a5.189 5.189 0 012.587 4.482v16.004zM26.448 44.485a5.184 5.184 0 01-5.176 0l-13.86-8.002a5.187 5.187 0 01-2.587-4.481v-1.791l5.597-.013a5.362 5.362 0 002.481 3.216l8.283 4.782a5.35 5.35 0 002.674.715 5.401 5.401 0 001.796-.321l2.903 4.676-2.111 1.219zM4.825 28.094V19.99l5.403-.012v8.103l-5.403.013zm2.587-16.578l13.86-8.002a5.184 5.184 0 015.176 0l2.026 1.17-2.835 4.719a5.364 5.364 0 00-4.453.4l-8.283 4.782a5.366 5.366 0 00-2.496 3.274l-5.582.013v-1.874c0-1.843.991-3.561 2.587-4.482zm27.133 2.913l-7.019-4.053 2.783-4.633 7.029 4.059-2.793 4.627zm-9.422-2.18l8.282 4.783a2.531 2.531 0 011.262 2.186v9.564c0 .899-.484 1.736-1.262 2.186l-8.282 4.783a2.535 2.535 0 01-2.525 0l-8.284-4.783a2.533 2.533 0 01-1.262-2.186v-9.564c0-.899.484-1.737 1.262-2.186l8.284-4.783a2.527 2.527 0 012.525 0zm5.271 29.958l-2.851-4.593 7.018-4.052 2.854 4.592-7.021 4.053zM41.719 9.07l-13.86-8.002a8.023 8.023 0 00-7.999 0L6 9.07a8.023 8.023 0 00-4 6.928v16.004a8.023 8.023 0 004 6.927l13.86 8.003a8.002 8.002 0 004 1.068 7.998 7.998 0 003.999-1.068l13.86-8.003a8.023 8.023 0 004-6.927V15.998a8.023 8.023 0 00-4-6.928z"></path></g></svg>