<svg xmlns="http://www.w3.org/2000/svg" viewBox="0 0 48 48" width="48px" height="48px"><g><path fill-rule="evenodd" d="M10.453 35.235a1.13 1.13 0 011.368.017c.339.264.642.573.904.915 1.574 2.044 1.311 4.97-.511 6.796l-3.53 3.545a5.11 5.11 0 01-3.802 1.49 5.105 5.105 0 01-3.677-1.781c-1.752-2.046-1.56-5.117.35-7.016l3.516-3.544.061-.045a.246.246 0 01.218-.002.245.245 0 01.133.25 6.018 6.018 0 00.19 2.224.905.905 0 01-.24.873L3.292 41.1a2.528 2.528 0 00.22 3.767 2.559 2.559 0 003.39-.243l3.455-3.458a2.686 2.686 0 00.696-2.668 2.369 2.369 0 00-.645-1.058 1.462 1.462 0 01-.181-1.989c.03-.037.063-.07.097-.106l.128-.11zM42.813 0a5.18 5.18 0 013.668 1.523A5.202 5.202 0 0148 5.199v33.79a5.191 5.191 0 01-5.185 5.195h-26.03a1.294 1.294 0 01-1.273-1.117l-.012-.16a1.296 1.296 0 011.296-1.321l26.019-.001a2.588 2.588 0 002.593-2.597V5.2c0-1.435-1.16-2.6-2.593-2.6H9.103a2.598 2.598 0 00-2.595 2.6v25.266a1.298 1.298 0 01-1.124 1.29l-.162.01a1.303 1.303 0 01-.922-.374 1.303 1.303 0 01-.384-.924V5.2c0-1.379.544-2.702 1.518-3.678A5.183 5.183 0 019.103 0h33.71zm-31.36 29.267a5.087 5.087 0 014.935-1.313 5.1 5.1 0 013.596 3.629 5.11 5.11 0 01-1.346 4.935L15.062 40.1l-.061.045a.234.234 0 01-.216.002.24.24 0 01-.135-.248 6.108 6.108 0 00-.209-2.317.694.694 0 01.171-.683l2.235-2.24a2.53 2.53 0 00.704-2.197 2.53 2.53 0 00-1.368-1.855 2.497 2.497 0 00-2.903.487l-3.51 3.532a2.63 2.63 0 00-.723 2.478c.11.49.367.93.74 1.266.452.395.598 1.037.355 1.587a1.585 1.585 0 01-.32.46l-.039.038c-.382.381-.987.42-1.416.09a5.227 5.227 0 01-1.365-1.573 5.12 5.12 0 01.887-6.125l3.565-3.58zM28.49 7.659c4.989 0 8.608 3.621 8.608 8.609 0 3.354-1.636 6.088-4.224 7.52l5.306 10.5a1.278 1.278 0 11-2.282 1.154l-5.443-10.764a9.603 9.603 0 01-1.965.198 1.28 1.28 0 01-1.28-1.28 1.28 1.28 0 011.28-1.277c3.562 0 6.05-2.489 6.05-6.051 0-3.563-2.488-6.05-6.05-6.05a1.28 1.28 0 010-2.559zm-4.478 0c.705 0 1.28.573 1.28 1.28v25.926a1.28 1.28 0 01-1.28 1.278h-3.054c2.328-4.427-.226-8.039-2.29-9.005a95.89 95.89 0 001.68-3.004c-2.997-1.302-4.944-4.212-4.944-7.866 0-4.988 3.62-8.609 8.608-8.609z"></path></g></svg>