<svg xmlns="http://www.w3.org/2000/svg" viewBox="0 0 48 48" width="48px" height="48px"><g><path fill-rule="evenodd" d="M11.726 0c4.27 0 7.727 3.448 7.727 7.695 0 3.703-2.62 6.792-6.117 7.529V32.77a7.732 7.732 0 014.692 3.075l16.025-8.02c.836-.422 1.61-1.67 1.61-2.6V19.82c-3.496-.737-6.121-3.826-6.121-7.528 0-4.253 3.467-7.696 7.732-7.696C41.538 4.597 45 8.04 45 12.293c0 3.702-2.62 6.791-6.116 7.528v5.405c0 2.145-1.462 4.499-3.385 5.462l-16.193 8.11a7.7 7.7 0 01.147 1.501c0 4.253-3.457 7.701-7.727 7.701C7.456 48 4 44.546 4 40.3c0-3.699 2.62-6.79 6.116-7.529V15.223C6.62 14.485 4 11.393 4 7.695 4 3.448 7.457 0 11.726 0zm0 35.811c-2.489 0-4.506 2.009-4.506 4.488a4.5 4.5 0 004.506 4.494 4.5 4.5 0 004.506-4.494c0-2.48-2.016-4.488-4.506-4.488zM37.274 7.805c-2.495 0-4.512 2.008-4.512 4.488 0 2.48 2.022 4.488 4.512 4.488 2.489 0 4.506-2.009 4.506-4.488a4.493 4.493 0 00-4.506-4.488zM11.726 3.207c-2.489 0-4.506 2.009-4.506 4.488a4.5 4.5 0 004.506 4.494 4.5 4.5 0 004.506-4.494c0-2.479-2.016-4.488-4.506-4.488z"></path></g></svg>