<svg xmlns="http://www.w3.org/2000/svg" viewBox="0 0 48 48" width="48px" height="48px"><g><path fill-rule="evenodd" d="M42.153 9.85C38.375 6.073 33.433 4 28.224 4l-.234.001H12.088v.068C5.331 4.777 0 10.933 0 18.298c0 3.73 1.337 7.269 3.767 9.969 2.42 2.682 5.735 4.197 9.348 4.265h13.198c2.352 0 4.478-.884 6.149-2.556 1.672-1.673 2.556-3.798 2.556-6.149a8.758 8.758 0 00-2.556-6.15 8.756 8.756 0 00-6.149-2.556H14.792a1.73 1.73 0 00-1.747 1.749 1.73 1.73 0 001.749 1.748h11.519c1.405 0 2.722.551 3.707 1.555a4.952 4.952 0 011.44 3.591c0 1.388-.534 2.655-1.544 3.665-.982.982-2.317 1.544-3.665 1.544H13.178c-2.555 0-4.947-1.108-6.736-3.121-1.887-2.124-2.884-4.757-2.884-7.616 0-5.863 4.318-10.678 9.625-10.738H27.99c4.411 0 8.559 1.717 11.679 4.836a16.414 16.414 0 014.836 11.679c0 9.106-7.41 16.515-16.515 16.515H3.142c-.98 0-1.748.767-1.748 1.748 0 .98.768 1.748 1.748 1.748H27.99c11.034 0 20.01-8.977 20.01-20.011 0-5.363-2.076-10.392-5.847-14.163"></path></g></svg>