<svg xmlns="http://www.w3.org/2000/svg" viewBox="0 0 48 48" width="48px" height="48px"><g><path fill-rule="evenodd" d="M7.968 31.315c-.737-.198-.106-1.727.224-2.037.377.354.734 2.29-.224 2.037zm31.57 0c-.967.256-.61-1.674-.224-2.037.313.294.956 1.842.224 2.037zM12.507 44.742c.549-.687.732-.687 1.83 0 .218.129.367.172.55.344-.366.343-1.282.515-2.38 0-.183-.172-.088-.213 0-.344zm20.034.344c.183-.172.33-.215.549-.344 1.098-.687 1.281-.687 1.83 0 .088.13.184.172 0 .344-1.098.515-2.013.343-2.38 0zm6.59-34.88h-.183c-.183 0-.366-.171-.366-.343-.174-.655-1.562-2.577.183-2.577 1.203-.376 2.627.77 1.83 1.89-.365.515-.915 1.03-1.464 1.03zM8.741 7.802c.14.261-.683 2.406-.915 2.406h-.183c-2.221 0-2.144-3.706.366-2.921.366 0 .732.343.732.515zm21.248 6.849l.514-.837a.724.724 0 00-.709-.514c-1.078 0-.84 1.617.195 1.35zm.355-1.866c2.563 0 2.634 3.78 0 3.78-2.622 0-2.573-3.78 0-3.78zM17.253 14.65l.514-.837a.724.724 0 00-.708-.514c-1.079 0-.84 1.617.194 1.35zm-.744-1.866c2.563 0 2.635 3.78 0 3.78-2.621 0-2.572-3.78 0-3.78zm17.92 2.443c-.003-2.324-1.493-4.78-4.2-4.848-5.79-.147-5.068 8.273.289 8.273 2.405 0 3.914-1.091 3.912-3.425zm-3.966-6.213c3.317.164 5.32 3.064 5.422 5.973.114 3.183-2.037 5.04-5.367 5.04-7.375 0-7.906-11.401-.055-11.013zM16.864 10.38c-2.705.068-4.197 2.524-4.2 4.848-.001 2.334 1.507 3.425 3.911 3.425 5.357 0 6.08-8.42.29-8.273zM11.2 15.227c.002-2.995 2.02-6.03 5.432-6.213 7.847-.42 7.32 11.012-.057 11.012-3.2 0-5.377-1.716-5.375-4.799zm12.37 9.24c1.675 0 5.587-1.539 2.413-2.958-1.067 1.225-3.76 1.225-4.826 0-3.19 1.426.758 2.959 2.413 2.959zm-1.83 1.205c0 .478.404.857.913.857h1.834c.51 0 .914-.381.914-.857v-.56a7.816 7.816 0 01-3.662 0v.56zm4.576-4.984c2.29.967 2.296 3.152 0 4.123v.861c0 .948-.811 1.716-1.829 1.716h-1.834c-1.01 0-1.83-.76-1.83-1.716v-.86c-2.29-.968-2.295-3.154 0-4.124 0-2.329 5.493-2.329 5.493 0zm4.815 25.095l.258-.043.229.12c1.378.73 3.248.861 4.588.004.54-.29.113-1.29-.097-1.651l-.324-.559.565-.347c3.254-1.991 3.88-7.178 3.88-10.42v-.33l.274-.206c1.144-.86.656-2.945-.243-3.789l-.176-.165-.033-.232c-.265-1.92-.575-3.895-.547-5.833-.09-.595-.044-1.603.11-3.333.023-.279.023-.279.049-.554.178-1.914.2-2.182.2-2.568v-4.009l.371-.197c1.662-.884 3.206-2.664 1.963-4.411-.961-1.35-2.911-1.53-4.414-.893l-.498.21-.357-.39c-6.02-6.552-20.801-6.492-26.71.164l-.372.418-.518-.243C7.716 5.77 5.695 6.06 4.805 7.62c-.992 1.739.434 3.407 2.078 4.211l.393.195v.415l-.007 3.706c-.07.457-.022 1.415.132 3.09l.036.409c.266 2.83.152 5.623.022 8.46l-.012.268-.202.189c-.884.83-1.391 2.926-.243 3.789l.282.21-.008.34c-.071 3.26.533 8.444 3.867 10.4l.586.343-.332.569c-.212.364-.695 1.453-.247 1.842 1.324.797 3.195.744 4.537-.012l.225-.127.26.036c2.433.338 4.934.68 7.398.68 2.515 0 5.093-.435 7.56-.849zm-14.932 1.562c-1.869.88-4.144.926-5.913-.185-.948-.741-.848-2.007-.463-2.992-3.048-2.943-4.055-7-4.015-11.003-1.386-1.512-1.084-3.892.198-5.362.12-2.7.223-5.347-.028-8.038l-.038-.412c-.165-1.811-.214-2.792-.128-3.304v-3.213c-2.08-1.229-3.552-3.35-2.419-5.63 1.115-2.243 3.682-2.903 6.071-2.11 7.127-6.743 20.99-6.793 28.217-.157 2.34-.694 4.918-.108 6.058 2.07 1.18 2.253-.406 4.388-2.41 5.643v3.225c0 .448-.021.687-.206 2.687l-.05.548c-.14 1.6-.186 2.579-.111 3.122 0 1.847.27 3.711.514 5.541 1.306 1.47 1.617 3.88.216 5.397-.04 3.732-.897 8.307-4.042 10.924.388.99.462 2.33-.664 2.93-1.727 1.12-4.013.969-5.842.15-.16.026-.365.06-.606.097-4.93.763-9.4.734-14.339.072z"></path></g></svg>