<svg xmlns="http://www.w3.org/2000/svg" viewBox="0 0 48 48" width="48px" height="48px"><g><path fill-rule="evenodd" d="M45.514 18.1a22.21 22.21 0 01.794 5.9c0 2.95-.577 5.764-1.623 8.338a10.106 10.106 0 011.623 5.508C46.308 43.454 41.762 48 36.154 48c-2.55 0-4.881-.94-6.665-2.493a22.204 22.204 0 01-5.335.647 22.085 22.085 0 01-15.675-6.498l-3.03 2.853-1.603-10.865 11.494 1.552-4.575 4.307a18.955 18.955 0 0013.389 5.512c1.06 0 2.1-.086 3.113-.253A10.108 10.108 0 0126 37.846c0-5.608 4.546-10.154 10.154-10.154 2.303 0 4.427.767 6.13 2.059.575-1.814.885-3.746.885-5.751 0-1.17-.105-2.315-.308-3.426l2.653-2.473zM38.78 33.674l-2.578 2.578-2.578-2.578a1.162 1.162 0 10-1.644 1.643l2.579 2.578-2.579 2.579a1.162 1.162 0 101.643 1.643l2.579-2.578 2.578 2.578a1.162 1.162 0 101.644-1.643l-2.579-2.579 2.579-2.578a1.162 1.162 0 10-1.643-1.643zM12.154 0c2.55 0 4.88.94 6.664 2.493a22.204 22.204 0 015.336-.647c6.108 0 11.64 2.472 15.647 6.47l3.058-2.879 1.603 10.865-11.494-1.551 4.547-4.282a18.955 18.955 0 00-13.361-5.484c-1.06 0-2.1.086-3.113.253a10.108 10.108 0 011.267 4.916c0 5.608-4.546 10.154-10.154 10.154a10.11 10.11 0 01-6.13-2.059A19.006 19.006 0 005.138 24c0 1.17.106 2.315.308 3.426L2.794 29.9A22.177 22.177 0 012 24c0-2.95.576-5.764 1.623-8.338A10.106 10.106 0 012 10.154C2 4.546 6.546 0 12.154 0zm2.92 6.89l-5.191 5.19-1.895-1.894a1.167 1.167 0 00-1.633-.01 1.151 1.151 0 00.009 1.634l2.617 2.617c.24.24.56.35.875.337.327.031.667-.074.915-.323l5.927-5.927a1.147 1.147 0 00-.005-1.62 1.157 1.157 0 00-1.62-.005z"></path></g></svg>