<svg xmlns="http://www.w3.org/2000/svg" viewBox="0 0 48 48" width="48px" height="48px"><g><path fill-rule="evenodd" d="M36.41 6.964a2.913 2.913 0 012.91 2.91 2.914 2.914 0 01-2.91 2.91 2.913 2.913 0 01-2.91-2.91 2.912 2.912 0 012.91-2.91m0 7.937a5.034 5.034 0 005.029-5.028 5.034 5.034 0 00-5.03-5.027 5.033 5.033 0 00-5.026 5.027 5.033 5.033 0 005.027 5.028M10.65 27.344a2.913 2.913 0 01-2.91-2.911 2.912 2.912 0 012.91-2.909 2.913 2.913 0 012.91 2.909 2.914 2.914 0 01-2.91 2.911m0-7.938a5.032 5.032 0 00-5.027 5.027 5.034 5.034 0 005.026 5.029 5.035 5.035 0 005.03-5.029 5.034 5.034 0 00-5.03-5.027m25.76 21.631a2.913 2.913 0 01-2.908-2.91 2.913 2.913 0 012.909-2.91 2.914 2.914 0 012.91 2.91 2.914 2.914 0 01-2.91 2.91m0-7.938a5.033 5.033 0 00-5.027 5.027 5.034 5.034 0 005.027 5.028 5.034 5.034 0 005.029-5.028 5.034 5.034 0 00-5.03-5.027m-.001 12.078c-3.885 0-7.046-3.164-7.046-7.052 0-3.886 3.161-7.048 7.046-7.048 3.89 0 7.054 3.162 7.054 7.048 0 3.888-3.164 7.052-7.054 7.052M10.871 31.484c-3.887 0-7.048-3.163-7.048-7.052a7.055 7.055 0 017.048-7.048c3.888 0 7.052 3.161 7.052 7.048a7.06 7.06 0 01-7.052 7.052M36.408 2.823c3.89 0 7.054 3.163 7.054 7.049 0 3.889-3.164 7.052-7.054 7.052-3.885 0-7.046-3.163-7.046-7.052 0-3.886 3.161-7.049 7.046-7.049m0 25.43c-3.634 0-6.808 1.981-8.521 4.914l-7.956-4.816a9.807 9.807 0 00.816-3.919 9.81 9.81 0 00-.692-3.606l8.398-5.134c1.797 2.453 4.689 4.055 7.955 4.055 5.446 0 9.877-4.429 9.877-9.875C46.285 4.429 41.854 0 36.408 0c-5.441 0-9.87 4.429-9.87 9.872 0 1.42.307 2.768.849 3.99l-8.313 5.083a9.87 9.87 0 00-8.203-4.384C5.428 14.561 1 18.989 1 24.432c0 5.445 4.428 9.875 9.871 9.875 3.297 0 6.213-1.629 8.008-4.118l8.133 4.925a9.827 9.827 0 00-.474 3.011c0 5.445 4.429 9.875 9.87 9.875 5.446 0 9.877-4.43 9.877-9.875 0-5.443-4.431-9.872-9.877-9.872"></path></g></svg>