<svg xmlns="http://www.w3.org/2000/svg" viewBox="0 0 48 48" width="48px" height="48px"><g><path fill-rule="evenodd" d="M29.294 25.106c.78 0 1.412.632 1.412 1.41v2.824a1.411 1.411 0 11-2.824 0v-2.823c0-.78.633-1.411 1.412-1.411zm-10.588 0c.78 0 1.412.632 1.412 1.41v2.824a1.412 1.412 0 11-2.824 0v-2.823c0-.78.632-1.411 1.412-1.411zM24 45.177c-11.677 0-21.176-9.5-21.176-21.177S12.323 2.823 24 2.823c11.677 0 21.176 9.5 21.176 21.177S35.677 45.177 24 45.177M24 0C10.766 0 0 10.766 0 24c0 13.235 10.766 24 24 24s24-10.765 24-24C48 10.766 37.234 0 24 0m5.018 32.47H18.982c-2.426 0-4.393-1.784-4.393-4.205 0-7.412 5.176-4.34 9.411-4.34 4.233 0 9.41-3.196 9.41 4.294 0 2.42-1.968 4.252-4.392 4.252zm6.978-11.087s3.32-5.737-.755-9.082c-2.512 0-6.35 4.147-6.35 4.147l.03.017c-3.126-.918-6.632-.924-9.762-.02-.022-.022-3.845-4.144-6.346-4.144-3.982 3.267-.917 8.799-.77 9.057-1.278 1.916-1.975 4.276-1.752 7.174.303 3.92 3.573 8.174 7.506 8.174h12.404c3.935 0 7.205-4.254 7.506-8.174.225-2.9-.474-5.264-1.753-7.18l.042.03z"></path></g></svg>