<svg xmlns="http://www.w3.org/2000/svg" viewBox="0 0 48 48" width="48px" height="48px"><g><path fill-rule="evenodd" d="M24.666.077l20.105 7.67a1.971 1.971 0 011.537 1.942c0 21.696-4.652 30.297-21.027 38.004-.334.158-.717.307-1.127.307-.41 0-.793-.15-1.127-.307C6.652 39.986 2 31.385 2 9.69c0-.92.615-1.737 1.537-1.942L23.641.077a1.75 1.75 0 011.025 0zm-.509 2.57L4.215 10.113c.058 20.508 4.669 28.066 19.912 35.24 15.297-7.174 19.908-14.732 19.965-35.24L24.157 2.646zm-7.606 18.19c.328-.19.731-.19 1.059 0l5.022 2.9c.328.19.529.54.529.918v5.798c0 .378-.201.728-.529.917l-5.022 2.9a1.063 1.063 0 01-1.059 0l-5.022-2.9a1.058 1.058 0 01-.529-.917v-5.798c0-.378.201-.728.529-.917zm.529 2.14l-3.963 2.289v4.576l3.963 2.288 3.963-2.288v-4.576l-3.963-2.288zm14.24-2.14c.329-.19.73-.19 1.059 0l5.022 2.9c.328.19.53.54.53.918v5.798c0 .378-.202.728-.53.917l-5.022 2.9a1.059 1.059 0 01-1.058 0l-5.023-2.9a1.058 1.058 0 01-.53-.917v-5.798c0-.378.202-.728.53-.917zm.53 2.14l-3.963 2.289v4.576l3.963 2.288 3.963-2.288v-4.576l-3.963-2.288zM23.936 8.143c.328-.19.73-.19 1.059 0l5.022 2.9c.328.19.53.54.53.918v5.797c0 .377-.202.728-.53.917l-5.022 2.9a1.062 1.062 0 01-1.06 0l-5.021-2.9a1.059 1.059 0 01-.53-.916V11.96c0-.379.202-.729.53-.918zm.53 2.14l-3.963 2.288v4.576l3.963 2.288 3.963-2.288V12.57l-3.963-2.287z"></path></g></svg>