<svg xmlns="http://www.w3.org/2000/svg" viewBox="0 0 48 48" width="48px" height="48px"><g><path fill-rule="evenodd" d="M37.756 36.011c-3.29-1.98-7.282-2.337-7.363-2.34-1.347-.2-1.32-.774-1.324-.887.068-.22.516-.843.874-1.343 1.375-1.917 3.675-5.125 3.646-9.727-.043-6.918-3.95-11.396-9.96-11.419-.004 0-.008-.003-.013-.003h-.028c-.005 0-.01.002-.013.003-6.007.021-9.915 4.5-9.958 11.42-.03 4.601 2.272 7.81 3.646 9.726.359.5.806 1.123.859 1.24.01.217.039.79-1.222.978-.168.015-4.161.371-7.45 2.352a1.41 1.41 0 001.457 2.418c2.713-1.633 6.197-1.953 6.317-1.966 2.862-.42 3.797-2.3 3.719-3.917-.042-.878-.605-1.664-1.386-2.75-1.324-1.849-3.14-4.38-3.117-8.064.013-2.019.567-8.606 7.16-8.616 6.599.01 7.154 6.597 7.166 8.616.023 3.684-1.792 6.215-3.117 8.063-.781 1.087-1.344 1.873-1.386 2.751-.077 1.617.859 3.497 3.804 3.927.035.003 3.519.323 6.23 1.956a1.409 1.409 0 001.938-.481 1.41 1.41 0 00-.48-1.937M24 45.176c-11.677 0-21.176-9.5-21.176-21.176C2.824 12.323 12.323 2.823 24 2.823c11.677 0 21.176 9.5 21.176 21.177 0 11.676-9.499 21.176-21.176 21.176M24 0C10.766 0 0 10.766 0 24s10.766 24 24 24 24-10.766 24-24S37.234 0 24 0"></path></g></svg>