<svg xmlns="http://www.w3.org/2000/svg" viewBox="0 0 48 48" width="48px" height="48px"><g><path fill-rule="evenodd" d="M28.505 22.134h-3.34v-3.339a1.423 1.423 0 10-2.847 0v3.339h-3.339a1.424 1.424 0 100 2.848h3.339v3.339a1.423 1.423 0 002.847 0v-3.339h3.34a1.423 1.423 0 000-2.848zm-4.763 10.427c-4.721 0-8.562-3.841-8.562-8.561s3.841-8.561 8.562-8.561c4.721 0 8.562 3.841 8.562 8.561s-3.841 8.561-8.562 8.561zm0-19.969c-6.291 0-11.409 5.118-11.409 11.408 0 6.289 5.118 11.407 11.409 11.407 6.29 0 11.409-5.118 11.409-11.407 0-6.29-5.119-11.408-11.409-11.408zM6.271 10.626h.013-.013zm17.471-7.781c-.739 0-1.477.19-2.136.57L6.982 11.86a4.277 4.277 0 00-2.135 3.697v16.886c0 1.521.818 2.938 2.135 3.698l14.625 8.444a4.3 4.3 0 004.271 0l14.624-8.444a4.283 4.283 0 002.135-3.698V15.557a4.279 4.279 0 00-2.135-3.697L25.877 3.415a4.27 4.27 0 00-2.135-.57zM23.741 48c-1.23 0-2.46-.317-3.557-.949L5.559 38.607A7.136 7.136 0 012 32.443V15.557a7.132 7.132 0 013.56-6.163L20.183.948a7.15 7.15 0 017.116 0l14.626 8.446a7.133 7.133 0 013.559 6.163v16.886a7.135 7.135 0 01-3.56 6.164L27.3 47.051a7.13 7.13 0 01-3.559.949z"></path></g></svg>