<svg xmlns="http://www.w3.org/2000/svg" viewBox="0 0 48 48" width="48px" height="48px"><g><path fill-rule="evenodd" d="M23.396 29.09a1.412 1.412 0 10-1.996 1.997l4.998 4.999a1.415 1.415 0 001.996 0l16.773-16.772a1.412 1.412 0 10-1.998-1.996L27.396 33.09l-4-4zm-11.452 4.44c-.424-.532-.8-1.098-1.147-1.679-.025-.038-.041-.077-.07-.113A15.273 15.273 0 018.63 24c0-8.476 6.895-15.37 15.37-15.37 2.793 0 5.447.757 7.762 2.123l.011.007a15.255 15.255 0 012.86 2.161 17.773 17.773 0 00-5.109-.744c-9.877 0-17.912 8.035-17.912 17.911 0 1.177.114 2.329.332 3.443M2.823 18.194c0-8.476 6.895-15.371 15.371-15.371 3.592 0 6.942 1.24 9.625 3.417-1.241-.264-2.513-.434-3.819-.434C13.967 5.806 5.805 13.968 5.805 24c0 1.303.167 2.573.431 3.813a15.197 15.197 0 01-3.413-9.619M46.1 23.313a1.415 1.415 0 00-1.841-.773 1.414 1.414 0 00-.773 1.842 14.994 14.994 0 011.126 5.706c0 8.319-6.769 15.088-15.088 15.088-5.456 0-10.244-2.91-12.894-7.26a1.416 1.416 0 00-.336-.578 15.002 15.002 0 01-1.859-7.25c0-8.32 6.769-15.088 15.089-15.088 3.276 0 6.405 1.05 9.045 3.035a1.411 1.411 0 002.019-1.919l-1.068-1.577a18.221 18.221 0 00-5.929-5.967C30.237 3.206 24.519 0 18.194 0 8.161 0 0 8.161 0 18.194c0 6.325 3.206 12.043 8.574 15.399a18.19 18.19 0 005.58 5.685C17.288 44.499 23.004 48 29.524 48c9.877 0 17.911-8.035 17.911-17.912 0-2.329-.449-4.609-1.335-6.775"></path></g></svg>