<svg xmlns="http://www.w3.org/2000/svg" viewBox="0 0 48 48" width="48px" height="48px"><g><path fill-rule="evenodd" d="M29.441 7.543c.66 0 1.194.531 1.194 1.185v9.914l9.668-4.466a1.193 1.193 0 011.586.575 1.18 1.18 0 01-.58 1.573l-10.674 4.93v.76l10.699 5.217a1.181 1.181 0 01-.527 2.247c-.177 0-.355-.038-.525-.122l-9.647-4.704v10.164a1.19 1.19 0 01-1.194 1.183 1.189 1.189 0 01-1.192-1.183V8.728a1.19 1.19 0 011.192-1.185zm-4.54 21.336c.607 0 1.11.45 1.183 1.035l.01.15v4.75c0 .654-.535 1.184-1.193 1.184-1.979 0-3.587-1.597-3.587-3.56s1.608-3.559 3.587-3.559zm0-21.38c.607 0 1.11.45 1.183 1.036l.01.15v4.75c0 .654-.535 1.184-1.193 1.184-1.979 0-3.587-1.598-3.587-3.558 0-1.964 1.608-3.561 3.587-3.561zM19.12 27.695a3.446 3.446 0 00.025-1.023l2.57-1.26a6.213 6.213 0 002.736 2.099 1.192 1.192 0 001.634-1.104l-.034-9.308c-.001-.394-.2-.76-.528-.98a1.202 1.202 0 00-1.113-.113 6.28 6.28 0 00-2.622 1.984l-2.634-1.228a4.24 4.24 0 00.017-.356c0-1.962-1.608-3.56-3.586-3.56-1.977 0-3.585 1.598-3.585 3.56 0 1.964 1.608 3.558 3.585 3.558.998 0 1.9-.405 2.55-1.06l2.599 1.212a6.264 6.264 0 00-.03 3.15l-2.616 1.282a3.59 3.59 0 00-2.503-1.012c-1.977 0-3.585 1.597-3.585 3.56 0 0 3.585-2.411 7.12.6zm-8.666 7.54c.4-.298.96-.3 1.368.017.337.264.642.573.903.915 1.573 2.044 1.31 4.97-.51 6.796l-3.531 3.545a5.11 5.11 0 01-3.801 1.49 5.105 5.105 0 01-3.677-1.781c-1.752-2.046-1.56-5.117.348-7.016l3.518-3.544.061-.045a.243.243 0 01.35.247 6.05 6.05 0 00.19 2.225.902.902 0 01-.241.873L3.292 41.1a2.527 2.527 0 00.223 3.767 2.56 2.56 0 003.39-.243l3.453-3.458a2.68 2.68 0 00.696-2.668 2.356 2.356 0 00-.645-1.058 1.465 1.465 0 01-.182-1.989c.032-.037.063-.07.1-.106l.127-.11zM42.816 0A5.19 5.19 0 0148 5.199v33.788a5.19 5.19 0 01-5.184 5.196H16.784a1.292 1.292 0 01-1.272-1.117l-.014-.16a1.299 1.299 0 011.296-1.321l26.022-.001a2.59 2.59 0 002.593-2.597V5.2c0-1.436-1.162-2.6-2.593-2.6H9.102A2.597 2.597 0 006.51 5.2v25.266a1.298 1.298 0 01-1.124 1.29l-.163.01a1.305 1.305 0 01-.923-.375 1.303 1.303 0 01-.384-.924V5.2c0-1.378.546-2.701 1.518-3.678A5.185 5.185 0 019.103 0h33.713zM11.454 29.266a5.095 5.095 0 018.53 2.316 5.11 5.11 0 01-1.344 4.935L15.062 40.1l-.06.045a.242.242 0 01-.351-.246 6.137 6.137 0 00-.209-2.317.69.69 0 01.17-.683l2.235-2.239a2.53 2.53 0 00.704-2.197 2.53 2.53 0 00-1.369-1.856 2.495 2.495 0 00-2.9.488l-3.512 3.53a2.63 2.63 0 00-.725 2.478c.111.49.368.93.741 1.266.452.395.599 1.037.356 1.587a1.585 1.585 0 01-.32.46l-.039.038c-.382.381-.988.42-1.417.09a5.222 5.222 0 01-1.364-1.573 5.12 5.12 0 01.887-6.124l3.565-3.58z"></path></g></svg>