<svg xmlns="http://www.w3.org/2000/svg" viewBox="0 0 48 48" width="48px" height="48px"><g><path fill-rule="evenodd" d="M27.883 24.54V11.29c6.914.143 10.992 1.35 10.992 3.292 0 3.209-4.56 9.174-10.992 9.959M26.471 8.45c-.779 0-1.412.633-1.412 1.412v25.803c0 .86-.655 1.199-.857 1.282-.201.083-.905.307-1.513-.301a1.412 1.412 0 10-1.996 1.997 4.153 4.153 0 004.589.913c1.605-.665 2.601-2.157 2.601-3.89V27.38c7.976-.78 13.815-8.015 13.815-12.8 0-5.493-8.69-6.13-15.227-6.13m-6.354 16.09c-6.432-.785-10.992-6.75-10.992-9.96 0-1.941 4.078-3.149 10.992-3.291v13.25zm2.824 1.497V9.864c0-.78-.633-1.413-1.412-1.413-6.537 0-15.227.636-15.227 6.13 0 5.063 6.54 12.869 15.227 12.869.78 0 1.412-.633 1.412-1.412zm22.236 16.315a2.827 2.827 0 01-2.824 2.824H5.648a2.827 2.827 0 01-2.825-2.824V5.648a2.827 2.827 0 012.825-2.824h36.705a2.827 2.827 0 012.824 2.824v36.705zM42.353 0H5.648A5.654 5.654 0 000 5.648v36.705A5.653 5.653 0 005.648 48h36.705A5.653 5.653 0 0048 42.353V5.648A5.654 5.654 0 0042.353 0z"></path></g></svg>