<svg xmlns="http://www.w3.org/2000/svg" viewBox="0 0 48 48" width="48px" height="48px"><g><path fill-rule="evenodd" d="M25.852.001c4.845.006 5.74.039 8.032.143 2.554.116 4.298.521 5.824 1.113 1.578.612 2.916 1.43 4.25 2.762 1.334 1.331 2.154 2.666 2.767 4.241.593 1.523.999 3.264 1.115 5.812.108 2.342.14 3.222.144 8.361v3.023c-.004 5.14-.036 6.02-.144 8.361-.116 2.549-.522 4.29-1.115 5.813-.613 1.574-1.433 2.91-2.767 4.24-1.334 1.332-2.672 2.15-4.25 2.763-1.526.592-3.27.996-5.824 1.113-2.345.107-3.227.139-8.377.143h-3.03c-5.149-.004-6.03-.036-8.377-.143-2.553-.117-4.297-.521-5.824-1.113-1.577-.612-2.915-1.43-4.25-2.762-1.333-1.331-2.153-2.667-2.766-4.241-.594-1.523-1-3.264-1.116-5.813C.04 31.53.007 30.637.001 25.8v-3.71c.006-4.837.039-5.73.143-8.018.117-2.548.522-4.289 1.116-5.812.613-1.575 1.433-2.91 2.767-4.241 1.334-1.331 2.672-2.15 4.25-2.762C9.802.665 11.546.26 14.1.144 16.393.04 17.287.007 22.133.001zm-.342 4.314h-3.035c-5.03.004-5.863.034-8.178.139-2.339.106-3.61.497-4.455.824-1.12.435-1.919.954-2.758 1.792-.84.838-1.36 1.635-1.795 2.753-.329.844-.72 2.112-.826 4.446-.116 2.525-.14 3.282-.14 9.676v.4c.001 6.026.027 6.805.14 9.276.107 2.334.497 3.602.826 4.446.435 1.118.955 1.915 1.795 2.753.84.838 1.638 1.357 2.758 1.791.846.328 2.116.718 4.455.825 2.368.108 3.185.136 8.536.14h2.32c5.35-.004 6.166-.032 8.534-.14 2.34-.107 3.61-.497 4.455-.825 1.12-.434 1.92-.953 2.76-1.79.839-.839 1.359-1.636 1.794-2.754.328-.844.72-2.112.826-4.446.106-2.31.135-3.14.14-8.162V22.43c-.005-5.02-.034-5.85-.14-8.16-.107-2.335-.498-3.603-.826-4.447-.435-1.118-.955-1.915-1.795-2.753-.84-.838-1.639-1.357-2.759-1.792-.845-.327-2.115-.718-4.455-.824-2.314-.105-3.146-.135-8.177-.139zm-1.518 7.334c6.805 0 12.32 5.505 12.32 12.296 0 6.79-5.515 12.296-12.32 12.296-6.804 0-12.32-5.505-12.32-12.296 0-6.791 5.516-12.296 12.32-12.296zm0 4.314c-4.416 0-7.997 3.574-7.997 7.982s3.58 7.982 7.997 7.982 7.998-3.574 7.998-7.982-3.58-7.982-7.998-7.982zM36.8 8.29a2.876 2.876 0 012.879 2.873 2.876 2.876 0 01-2.88 2.873 2.876 2.876 0 01-2.879-2.873A2.876 2.876 0 0136.8 8.29z"></path></g></svg>