<svg xmlns="http://www.w3.org/2000/svg" viewBox="0 0 48 48" width="48px" height="48px"><g><path fill-rule="evenodd" d="M37.727 25.208c0 .524-.28 1.008-.732 1.27L24.318 33.82a1.465 1.465 0 01-1.5-.017l-8.57-5.229v-2.74c0-.18.032-.353.063-.526l6.728 3.977a5.381 5.381 0 005.497-.014l11.19-6.686v2.624zm-27.665.81a1.467 1.467 0 01-.703-1.254V22.38l3.196 1.89a4.88 4.88 0 00-.262 1.562v1.547l-2.231-1.362zm-3.03-12.505L22.43 3.34a2.444 2.444 0 012.706.007l15.23 10.174a2.445 2.445 0 01-.105 4.132l-1.818 1.087h-.001l-13.41 8.012a2.443 2.443 0 01-2.498.006l-6.422-3.795 7.96-6.043a.978.978 0 00-1.184-1.558l-8.596 6.526-7.154-4.229a2.444 2.444 0 01-.104-4.145zm9.174 28.003v4.031l-2.048-1.552a1.469 1.469 0 00-1.773 0l-2.048 1.553v-4.032l2.935-2.558 2.934 2.558zm27.418-28.722a5.357 5.357 0 00-1.63-1.714L26.767.906A5.38 5.38 0 0020.81.891L5.415 11.064a5.38 5.38 0 00.229 9.121l.78.461v4.118a4.4 4.4 0 002.109 3.757l3.76 2.296v6.398l-3.41 2.972a1.47 1.47 0 00-.503 1.107v5.238a1.469 1.469 0 002.354 1.17l2.538-1.924 2.537 1.922a1.468 1.468 0 002.354-1.169v-5.237c0-.424-.184-.828-.503-1.107l-3.411-2.972v-5.204l7.04 4.296c1.376.84 3.103.86 4.5.052l12.676-7.34a4.403 4.403 0 002.197-3.81v-4.377l1.103-.66a5.379 5.379 0 001.859-7.378z"></path></g></svg>