<svg xmlns="http://www.w3.org/2000/svg" viewBox="0 0 48 48" width="48px" height="48px"><g><path fill-rule="evenodd" d="M33.776 0a4.08 4.08 0 014.07 4.069 4.081 4.081 0 01-4.07 4.069h-1.05v13.636C39.646 26.264 48.03 33.982 48 41.28c-.016 3.702-2.96 6.72-6.548 6.72h-.027L7.52 47.861C3.918 47.847.985 44.8 1 41.088c.03-7.28 8.154-14.91 14.986-19.348V8.14h-.6v-.001h-.095a4.081 4.081 0 01-4.07-4.07A4.081 4.081 0 0115.291 0zM15.332 37.788H4.627c-.454 1.135-.707 2.248-.712 3.31-.009 2.115 1.614 3.84 3.616 3.849l33.906.139c2.01 0 3.64-1.713 3.649-3.818.004-.97-.247-2.149-.806-3.48H24.472a4.598 4.598 0 01-9.14 0zm4.57-2.535a2.027 2.027 0 00-2.024 2.024c0 1.115.908 2.023 2.024 2.023a2.026 2.026 0 002.025-2.023 2.026 2.026 0 00-2.025-2.024zm9.91-27.114H18.9v15.184l-1.327.861c-4.336 2.817-8.702 6.67-11.293 10.54l9.8-.001a4.594 4.594 0 013.822-2.042c1.594 0 2.998.81 3.823 2.042H42.59c-2.141-3.168-5.792-6.833-11.45-10.504l-1.328-.863V8.14zM24.5 22.447a4.086 4.086 0 11.001 8.172 4.086 4.086 0 01-.001-8.172zm0 2.505c-.871 0-1.58.71-1.58 1.58 0 .87.709 1.579 1.58 1.579.87 0 1.58-.709 1.58-1.579s-.71-1.58-1.58-1.58zm9.276-22.039H15.291c-.626 0-1.155.53-1.155 1.156 0 .626.53 1.155 1.155 1.155h18.485c.627 0 1.156-.53 1.156-1.155 0-.626-.53-1.156-1.156-1.156z"></path></g></svg>