<svg xmlns="http://www.w3.org/2000/svg" viewBox="0 0 48 48" width="48px" height="48px"><g><path fill-rule="evenodd" d="M9.711 34.894c.508-.522 1.468-.522 2.005 0 .254.269.41.636.41 1.002 0 .367-.156.735-.41 1.003a1.488 1.488 0 01-1.003.409 1.48 1.48 0 01-1.002-.41 1.487 1.487 0 01-.41-1.002c0-.38.156-.748.41-1.002zm-3.107-1.991c.51-.522 1.483-.522 1.991 0 .268.255.41.622.41 1.003 0 .368-.142.734-.41.988a1.406 1.406 0 01-1.002.423c-.368 0-.735-.154-.989-.423a1.377 1.377 0 01-.423-.988c0-.381.155-.748.423-1.003zm3.107-6.82c.508-.523 1.468-.537 2.005 0 .254.254.41.621.41 1.002 0 .368-.156.721-.41.988-.269.27-.636.424-1.003.424a1.428 1.428 0 01-1.412-1.412c0-.38.156-.748.41-1.003zm-3.12-2.006c.55-.522 1.482-.507 2.005 0 .268.27.41.636.41 1.003a1.396 1.396 0 01-1.413 1.412A1.42 1.42 0 016.18 25.08c0-.367.156-.733.41-1.003zm3.12-7.454c.523-.523 1.469-.538 2.005 0 .255.268.41.634.41 1.002a1.429 1.429 0 01-1.412 1.412 1.429 1.429 0 01-1.412-1.412c0-.382.155-.734.41-1.002zm-3.107-1.991c.509-.523 1.455-.523 1.991-.016.269.27.41.636.41 1.018 0 .367-.141.734-.41.989a1.435 1.435 0 01-1.002.423 1.38 1.38 0 01-.989-.423 1.382 1.382 0 010-1.991zm34.253 21.719l-13.815 7.978a6.379 6.379 0 01-6.354 0L6.872 36.35a4.022 4.022 0 01-2.04-3.302 4.084 4.084 0 01.948-2.871l13.495 7.792a9.18 9.18 0 004.59 1.226 9.18 9.18 0 004.59-1.226l13.497-7.794a4.085 4.085 0 01.948 2.855 4.025 4.025 0 01-2.043 3.32zM6.872 11.647L20.688 3.67a6.374 6.374 0 016.354 0l13.815 7.976a4.056 4.056 0 012.048 3.548 4.057 4.057 0 01-2.048 3.548L27.042 26.72a6.379 6.379 0 01-6.354 0L6.872 18.743c-.16-.092-.286-.22-.429-.33-.032-.021-.058-.05-.092-.07-.95-.77-1.527-1.891-1.527-3.148 0-1.481.766-2.808 2.048-3.548zm0 15.9a4.025 4.025 0 01-2.042-3.322 4.084 4.084 0 01.947-2.853l13.498 7.793a9.181 9.181 0 004.59 1.227 9.18 9.18 0 004.59-1.227l13.49-7.79a4.09 4.09 0 01.952 2.91c-.08 1.156-.634 2.158-1.512 2.867-.03.017-.055.043-.085.063-.146.113-.279.238-.443.332l-13.815 7.977a6.374 6.374 0 01-6.354 0L6.872 27.547zm37.274-7.951a6.856 6.856 0 001.584-4.401A6.854 6.854 0 0042.27 9.2L28.453 1.225a9.211 9.211 0 00-9.179 0L5.461 9.2A6.854 6.854 0 002 15.195c0 1.65.573 3.18 1.58 4.395a6.908 6.908 0 00-1.57 4.787 6.888 6.888 0 001.571 4.02 6.897 6.897 0 00-1.569 4.816 6.894 6.894 0 003.45 5.584l13.813 7.978A9.19 9.19 0 0023.865 48a9.189 9.189 0 004.59-1.225l13.814-7.978a6.894 6.894 0 003.451-5.613 6.909 6.909 0 00-1.569-4.788 6.912 6.912 0 00-.005-8.8z"></path></g></svg>