<svg xmlns="http://www.w3.org/2000/svg" viewBox="0 0 48 48" width="48px" height="48px"><g><path fill-rule="evenodd" d="M28.241 31.788c0-2.207-1.8-3.994-4.017-3.994-2.219 0-4.016 1.787-4.016 3.994 0 1.473.811 2.748 2.008 3.439v3.624c0 .9.733 1.63 1.639 1.63h.736c.908 0 1.642-.73 1.642-1.63v-3.624c1.194-.691 2.008-1.966 2.008-3.44m-20.417-8.79v14.217c0 4.54 3.195 7.963 7.432 7.963h16.766c4.582 0 8.603-3.721 8.603-7.963V22.997H7.824zM24.627 0c8.236 0 14.688 5.799 14.688 13.201v6.971h1.596a2.539 2.539 0 012.537 2.537v14.505C43.448 43.06 38.216 48 32.022 48H15.256C9.409 48 5 43.362 5 37.214V22.709a2.539 2.539 0 012.537-2.536l1.594-.001v-6.971C9.131 5.553 14.881 0 22.802 0h1.825zm0 2.824h-1.825c-6.387 0-10.848 4.267-10.848 10.377v6.971h24.537v-6.971c0-6.496-6.032-10.377-11.864-10.377z"></path></g></svg>