<svg xmlns="http://www.w3.org/2000/svg" viewBox="0 0 48 48" width="48px" height="48px"><g><path d="M26.068 6.285l2.755 9.34c.446 1.517 2.08 2.75 3.708 2.75h10.692c3.177 0 3.573 1.363.857 3.061l-8.813 5.512c-1.358.847-1.944 2.746-1.343 4.179l4.424 10.486c.782 1.854.667 2.856-.15 2.856-.481 0-1.213-.35-2.14-1.082l-9.374-7.37c-.621-.486-1.433-.727-2.25-.727-.811 0-1.628.24-2.244.727l-9.375 7.365c-.937.737-1.668 1.092-2.15 1.092-.811 0-.926-1.002-.14-2.86l4.42-10.487c.62-1.459.01-3.342-1.338-4.18l-8.819-5.51c-2.7-1.69-2.284-3.062.857-3.062h10.697c1.599 0 3.272-1.268 3.708-2.75l2.756-9.34C23.256 4.762 23.848 4 24.434 4c.592 0 1.183.767 1.634 2.285z"></path></g></svg>