<svg xmlns="http://www.w3.org/2000/svg" viewBox="0 0 48 48" width="48px" height="48px"><g><path d="M23.967 1c-.646 0-1.889.21-2.911 1.608-.466.637-.842 1.453-1.147 2.49l-2.756 9.34c-.115.39-.782.937-1.278.937H5.178c-1.067 0-1.95.125-2.68.386-1.644.576-2.195 1.718-2.376 2.345-.18.626-.315 1.884.772 3.246.486.612 1.172 1.188 2.09 1.76l8.813 5.51c.295.186.48.742.35 1.053L7.723 40.157c-.581 1.377-1.227 3.387-.165 4.99.581.882 1.548 1.388 2.64 1.388 1.118 0 2.3-.516 3.713-1.629l9.375-7.365c.11-.09.355-.19.681-.19.33 0 .571.1.686.19l9.375 7.365c1.408 1.108 2.585 1.624 3.703 1.624 1.097 0 2.059-.506 2.645-1.393 1.062-1.598.416-3.608-.16-4.975l-4.424-10.487c-.116-.276.04-.857.35-1.052l8.814-5.512c.922-.571 1.603-1.147 2.094-1.754 1.097-1.367.962-2.63.782-3.256-.18-.632-.732-1.77-2.385-2.345-.732-.256-1.614-.381-2.686-.381H32.064c-.491 0-1.147-.481-1.283-.937l-2.75-9.34c-.306-1.037-.682-1.848-1.148-2.485C25.861 1.21 24.618 1 23.967 1M25.6 5.815l2.756 9.34c.446 1.518 2.08 2.75 3.708 2.75h10.692c3.177 0 3.573 1.363.857 3.062L34.8 26.478c-1.358.847-1.944 2.746-1.343 4.179l4.424 10.487c.782 1.853.666 2.856-.15 2.856-.481 0-1.213-.351-2.14-1.083l-9.374-7.37c-.622-.486-1.433-.727-2.25-.727-.812 0-1.628.241-2.245.727l-9.374 7.365c-.937.737-1.669 1.093-2.15 1.093-.811 0-.927-1.002-.14-2.861l4.42-10.487c.62-1.458.01-3.342-1.339-4.179l-8.818-5.511c-2.7-1.689-2.285-3.062.857-3.062h10.697c1.599 0 3.272-1.267 3.708-2.75l2.756-9.34c.45-1.523 1.042-2.285 1.628-2.285.591 0 1.183.767 1.633 2.285z"></path></g></svg>