<svg xmlns="http://www.w3.org/2000/svg" viewBox="0 0 48 48" width="48px" height="48px"><g><path fill-rule="evenodd" d="M27.979 29.842H16.2c-1.704 0-2.716 1.042-2.716 2.59 0 1.358.916 2.337 2.243 2.337 1.516 0 2.399-1.043 2.494-2.59h3.443c-.159 3.726-2.495 5.716-5.969 5.716-3.253 0-5.653-2.21-5.653-5.495 0-3.411 2.558-5.811 6.347-5.811h11.684c3.948 0 6.948-2.874 6.948-6.789 0-3.947-2.685-6.695-6.505-6.695-3.79 0-6.822 2.779-6.822 7.832v3.315h-3.473v-3.315c0-6.758 4.358-11.148 10.358-11.148 5.747 0 9.916 4.105 9.916 9.948 0 5.874-4.485 10.105-10.516 10.105M24 0C10.579 0 0 10.642 0 24c0 13.389 10.579 24 24 24s24-10.61 24-24C47.999 10.642 37.421 0 24 0"></path></g></svg>