<svg xmlns="http://www.w3.org/2000/svg" viewBox="0 0 48 48" width="48px" height="48px"><g><path fill-rule="evenodd" d="M38.808 0H8.305C4.277 0 1 3.277 1 7.305v11.784c0 4.028 3.277 7.306 7.305 7.306h5.758a1.411 1.411 0 100-2.824H8.305a4.485 4.485 0 01-4.481-4.482V7.305a4.487 4.487 0 014.481-4.482h30.503c2.47 0 4.48 2.011 4.48 4.482v11.784a4.485 4.485 0 01-4.48 4.482h-5.103a1.412 1.412 0 000 2.824h5.103c4.028 0 7.304-3.278 7.304-7.306V7.305C46.112 3.277 42.836 0 38.808 0m-2.563 35.532l-1.754 9.645h-13.78L13.28 34.03c-.415-.635-.449-1.553-.199-1.743 1.046 0 2.628 0 6.673 6.231a1.412 1.412 0 002.596-.768V16.142c0-.83.702-1.534 1.534-1.534.846 0 1.535.69 1.535 1.534V27.93c0 .608.388 1.147.965 1.338l8.853 2.952c1.209.39 1.273 2.156 1.008 3.313m-.129-5.995l-7.873-2.625v-10.77a4.364 4.364 0 00-4.359-4.357 4.363 4.363 0 00-4.358 4.357v17.215c-2.586-3.17-4.424-3.893-6.445-3.893-1.132 0-2.073.542-2.584 1.486-.774 1.433-.374 3.412.428 4.636l7.856 11.785c.262.393.703.63 1.175.63h15.713c.683 0 1.267-.49 1.389-1.16l1.952-10.74c.711-3.088-.485-5.79-2.894-6.564"></path></g></svg>