<svg xmlns="http://www.w3.org/2000/svg" viewBox="0 0 48 48" width="48px" height="48px"><g><path d="M46 38.5a1.5 1.5 0 010 3H14a1.5 1.5 0 010-3h32zm-39 0a1.5 1.5 0 010 3H2a1.5 1.5 0 010-3h5zm39-8a1.5 1.5 0 010 3H14a1.5 1.5 0 010-3h32zm-39 0a1.5 1.5 0 010 3H2a1.5 1.5 0 010-3h5zm39-8a1.5 1.5 0 010 3H14a1.5 1.5 0 010-3h32zm-39 0a1.5 1.5 0 010 3H2a1.5 1.5 0 010-3h5zm39-8a1.5 1.5 0 010 3H14a1.5 1.5 0 010-3h32zm-39 0a1.5 1.5 0 010 3H2a1.5 1.5 0 010-3h5zm39-8a1.5 1.5 0 010 3H14a1.5 1.5 0 010-3h32zm-39 0a1.5 1.5 0 010 3H2a1.5 1.5 0 010-3h5z"></path></g></svg>