<svg xmlns="http://www.w3.org/2000/svg" viewBox="0 0 48 48" width="48px" height="48px"><g><path fill-rule="evenodd" d="M45.177 36.303a1.816 1.816 0 01-1.814 1.815H4.64a1.819 1.819 0 01-1.817-1.815V12.639c0-.023.013-.041.014-.064l20.28 16.226a1.417 1.417 0 001.766 0l20.28-16.226c.001.023.014.041.014.064v23.664zm-2.345-25.479L24 25.891 5.168 10.824h37.664zM43.363 8H4.64A4.645 4.645 0 000 12.639v23.664a4.645 4.645 0 004.64 4.639h38.723A4.643 4.643 0 0048 36.303V12.639A4.643 4.643 0 0043.363 8z"></path></g></svg>