<svg xmlns="http://www.w3.org/2000/svg" viewBox="0 0 48 48" width="48px" height="48px"><g><path fill-rule="evenodd" d="M41.307 35.605l-1.873-1.104a1.18 1.18 0 01-.417-1.619 1.173 1.173 0 011.617-.417l1.867 1.101a20.659 20.659 0 002.285-8.365H42.62a1.184 1.184 0 010-2.366h2.167a20.675 20.675 0 00-2.149-8.12l-1.892 1.082a1.184 1.184 0 01-1.613-.44 1.183 1.183 0 01.441-1.613l1.895-1.085a21 21 0 00-5.868-5.97l-1.118 1.895a1.18 1.18 0 01-1.618.417 1.18 1.18 0 01-.417-1.619l1.114-1.886a20.655 20.655 0 00-8.379-2.284v2.186a1.183 1.183 0 11-2.364 0V3.212a20.65 20.65 0 00-8.126 2.161l1.086 1.897a1.182 1.182 0 01-2.054 1.174l-1.087-1.901a21.025 21.025 0 00-5.961 5.877l1.89 1.116a1.181 1.181 0 11-1.201 2.035l-1.881-1.11a20.686 20.686 0 00-2.273 8.374h2.169a1.184 1.184 0 010 2.366H3.214a20.67 20.67 0 002.162 8.111l1.877-1.073a1.185 1.185 0 011.614.44 1.184 1.184 0 01-.441 1.614l-1.878 1.074a21.023 21.023 0 005.867 5.952l1.104-1.868a1.18 1.18 0 011.619-.415 1.18 1.18 0 01.416 1.619l-1.098 1.857a20.67 20.67 0 008.363 2.275v-2.15a1.181 1.181 0 012.364 0v2.15a20.655 20.655 0 008.108-2.153l-1.07-1.869a1.183 1.183 0 012.054-1.173l1.071 1.872a20.988 20.988 0 005.961-5.859M47.999 24c0 13.233-10.765 24-23.999 24C10.768 48 0 37.233 0 24 0 10.766 10.768 0 24 0c13.234 0 23.999 10.766 23.999 24M33.19 21.964a1.577 1.577 0 01-1.015 1.985l-7.513 2.426a1.58 1.58 0 01-1.413-.225 1.583 1.583 0 01-.648-1.274V11.623a1.576 1.576 0 113.153 0v11.086l5.451-1.759a1.575 1.575 0 011.985 1.014"></path></g></svg>