<svg xmlns="http://www.w3.org/2000/svg" viewBox="0 0 48 48" width="48px" height="48px"><g><path fill-rule="evenodd" d="M42.894 32.002a5.19 5.19 0 01-2.587 4.482l-13.86 8.002a5.184 5.184 0 01-5.175 0l-13.86-8.002a5.188 5.188 0 01-2.588-4.482V15.998c0-1.843.991-3.56 2.587-4.481l13.86-8.003a5.184 5.184 0 015.176 0l13.86 8.003a5.188 5.188 0 012.587 4.481v16.004zM27.86 1.068a8.02 8.02 0 00-8 0L6 9.07a8.023 8.023 0 00-4 6.928v16.004a8.023 8.023 0 004 6.928l13.86 8.002a7.996 7.996 0 004 1.068 7.996 7.996 0 003.999-1.068l13.86-8.002a8.023 8.023 0 004-6.928V15.998a8.023 8.023 0 00-4-6.928l-13.86-8.002zM23.125 33.65c-3.25-.3-5.05-2.025-6.125-3.8-.29-.671-.115-1.223.525-1.657.64-.434 1.19-.373 1.65.182 1.05 1.5 2.15 2.625 4.05 2.9v-6.15c-2.9-.75-5.7-1.8-5.7-5.225 0-2.875 2.15-4.9 5.6-5.125V14a1 1 0 012 0v.825c2.775.325 4.225 1.7 5.225 3.225.338.838.188 1.454-.45 1.85-.639.396-1.197.329-1.675-.2-.8-1.225-1.625-2.125-3.175-2.4v5.55c3.275.85 6.025 2 6.025 5.525 0 2.775-1.925 4.975-5.95 5.275v1.15a1 1 0 01-2 0v-1.15zm.1-16.45c-1.925.15-3.367 1.125-3.367 2.425 0 1.55 1.642 2.2 3.367 2.725V17.2zm1.825 14.1c1.9-.175 3.608-.867 3.608-2.642 0-1.7-1.683-2.458-3.608-3.033V31.3z"></path></g></svg>