<svg xmlns="http://www.w3.org/2000/svg" viewBox="0 0 48 48" width="48px" height="48px"><g><path d="M39.788 13.708l-5.595-3.135a1.412 1.412 0 00-1.928.543 1.414 1.414 0 00.543 1.927l5.586 3.125c1.057.609 1.75 1.881 1.75 3.247v14.55a3.97 3.97 0 01-.74 2.274l-3.939-2.227V25.01c0-.375-.196-.72-.514-.908l-4.632-2.826V8.225c0-.02-.01-.029-.01-.047a1.094 1.094 0 00-.12-.477l-.01-.01c-.01-.01-.019-.018-.019-.028a1.023 1.023 0 00-.337-.327c-.018-.01-.028-.028-.037-.038l-4.604-2.6V1.066a1.066 1.066 0 10-2.133 0v3.63l-4.603 2.601c-.02.01-.038.038-.057.047l-.112.084c-.037.028-.065.066-.093.094l-.085.112c-.018.019-.037.038-.046.056-.01.019-.01.038-.02.056-.018.038-.037.075-.046.122a.7.7 0 00-.037.15.664.664 0 00-.019.14c0 .019-.01.037-.01.056v13.053l-4.63 2.826a1.064 1.064 0 00-.516.907v9.001l-4.126 2.33a3.926 3.926 0 01-.805-2.367v-14.55c0-1.366.683-2.638 1.722-3.228l5.37-2.91a1.419 1.419 0 00.572-1.927 1.419 1.419 0 00-1.928-.571l-5.399 2.929C6.216 14.83 5 17.02 5 19.415v14.55c0 2.367 1.244 4.603 3.163 5.698l12.556 7.392c.992.57 2.134.851 3.275.851 1.142 0 2.293-.29 3.303-.86l12.51-7.373c1.928-1.105 3.181-3.34 3.181-5.708v-14.55c-.01-2.395-1.225-4.585-3.2-5.707zM24.106 6.54l2.985 1.685-2.985 1.684-2.984-1.684 2.984-1.685zm-6.212 35.556l-7.402-4.36 3.322-1.881 4.08 2.311v3.93zm10.292-4.547v5.67l-2.32 1.375c-1.133.646-2.602.655-3.724.01l-2.115-1.245v-5.81c0-.384-.206-.74-.543-.927l-4.603-2.6v-8.403l3.013-1.834v4.875a2.636 2.636 0 00-1.563 2.404c0 1.45 1.179 2.63 2.63 2.63 1.45 0 2.628-1.18 2.628-2.63a2.646 2.646 0 00-1.562-2.404V10.049l3.022 1.703V40a1.066 1.066 0 102.133 0V11.761l3.023-1.703V28.66a2.636 2.636 0 00-1.563 2.404c0 1.45 1.18 2.63 2.63 2.63s2.629-1.18 2.629-2.63a2.646 2.646 0 00-1.563-2.404v-4.875l3.013 1.834v8.402l-4.604 2.601a1.04 1.04 0 00-.561.927zm2.133 4.416v-3.799l4.08-2.311 3.21 1.815-7.29 4.295z"></path></g></svg>