<svg xmlns="http://www.w3.org/2000/svg" viewBox="0 0 48 48" width="48px" height="48px"><g><path fill-rule="evenodd" d="M38.719 0a9.114 9.114 0 019.114 9.115c0 3.273-1.733 6.136-4.324 7.742V31.85a7.984 7.984 0 01-3.98 6.894L25.734 46.71a7.963 7.963 0 01-3.98 1.062 7.969 7.969 0 01-3.98-1.062L3.98 38.744A7.986 7.986 0 010 31.85V15.922a7.986 7.986 0 013.98-6.895l13.794-7.964a7.986 7.986 0 017.96 0l5.347 3.087A9.102 9.102 0 0138.719 0zm-19.54 3.498L5.386 11.462a5.163 5.163 0 00-2.574 4.46V31.85c0 1.834.986 3.543 2.574 4.46l13.795 7.964a5.163 5.163 0 005.149 0l13.794-7.965a5.162 5.162 0 002.576-4.46V18.007c-.638.142-1.3.223-1.98.223a9.114 9.114 0 01-9.115-9.114c0-.826.12-1.623.326-2.384L24.33 3.499a5.158 5.158 0 00-5.15 0zm19.644.013c-1.671 0-3.004 1.2-3.004 2.988v1.623h-.604l-.103.007c-.44.055-.794.459-.794.95v3.353l.006.112c.052.478.43.845.89.845h7.217l.103-.007c.44-.055.794-.46.794-.95V9.078l-.006-.112c-.052-.477-.431-.844-.891-.844h-.606V6.5l-.005-.188c-.091-1.68-1.398-2.8-2.997-2.8zm0 1.933c.64 0 1.159.561 1.159 1.25v1.49h-2.32v-1.49c0-.69.515-1.25 1.16-1.25zm-15.466 21.59v8.094c0 .339.294.633.657.633h1.29c.722 0 .949.451.51 1.009l-2.965 3.779c-.435.555-1.147.558-1.585 0l-2.967-3.779c-.436-.555-.21-1.009.51-1.009h1.29c.358 0 .658-.283.658-.633v-8.095h2.602zm-9.629-6.235c0-.72.467-.946 1.037-.51l3.878 2.966c.572.439.57 1.15 0 1.586l-3.878 2.965c-.572.438-1.037.212-1.037-.51v-1.291a.665.665 0 00-.662-.657H5.138v-2.601h7.928c.366 0 .662-.3.662-.659zm15.62-.51c.57-.436 1.038-.21 1.038.51v1.29c0 .358.296.658.662.658h7.928v2.601h-7.928a.665.665 0 00-.662.657v1.29c0 .723-.465.95-1.038.511l-3.877-2.965c-.57-.436-.572-1.147 0-1.586zM22.85 7.546l2.966 3.779c.438.558.211 1.01-.51 1.01h-1.29a.653.653 0 00-.658.633v8.094h-2.602v-8.094c0-.35-.3-.633-.657-.633h-1.29c-.72 0-.947-.454-.51-1.01l2.966-3.779c.437-.557 1.149-.554 1.585 0z"></path></g></svg>