<svg xmlns="http://www.w3.org/2000/svg" viewBox="0 0 48 48" width="48px" height="48px"><g><path fill-rule="evenodd" d="M24 17.143c1.929 0 3.429-1.5 3.429-3.429 0-1.821-1.5-3.428-3.429-3.428-1.821 0-3.429 1.607-3.429 3.428 0 1.929 1.608 3.429 3.429 3.429zM24 0C10.821 0 0 10.821 0 24c0 13.286 10.821 24 24 24 13.286 0 24-10.714 24-24C48 10.821 37.286 0 24 0zm0 41.143c-9.429 0-17.143-7.607-17.143-17.143 0-9.429 7.714-17.143 17.143-17.143 9.536 0 17.143 7.714 17.143 17.143 0 9.536-7.607 17.143-17.143 17.143zM27.429 24c0-1.714-1.715-3.429-3.429-3.429h-3.429c-1.714 0-3.428 1.715-3.428 3.429h3.428v10.286c0 1.714 1.715 3.428 3.429 3.428h3.429c1.714 0 3.428-1.714 3.428-3.428H27.43V24z"></path></g></svg>