<svg xmlns="http://www.w3.org/2000/svg" viewBox="0 0 48 48" width="48px" height="48px"><g><path fill-rule="evenodd" d="M12.222 25.476a1.37 1.37 0 011.371-1.371h5.52a1.37 1.37 0 110 2.743h-5.52a1.37 1.37 0 01-1.371-1.372zm-6.136-1.677l2.395-2.394-2.395-2.395a1.37 1.37 0 010-1.939 1.373 1.373 0 011.94 0l3.364 3.364a1.372 1.372 0 010 1.939l-3.364 3.365a1.372 1.372 0 11-1.94-1.94zM19.855 7.383a1.976 1.976 0 11-3.951-.001 1.976 1.976 0 013.951.001zm-5.055 0a1.975 1.975 0 11-3.95 0 1.975 1.975 0 013.95 0zm-5.056 0a1.974 1.974 0 11-3.95 0 1.976 1.976 0 013.95 0zm35.433 4.072H2.825V5.648a2.827 2.827 0 012.823-2.824h36.706a2.827 2.827 0 012.823 2.824v5.807zm0 30.898a2.827 2.827 0 01-2.823 2.824H5.648a2.827 2.827 0 01-2.823-2.824V13.574h42.352v28.779zM42.354 0H5.648A5.654 5.654 0 000 5.648v36.705A5.653 5.653 0 005.648 48h36.706A5.652 5.652 0 0048 42.353V5.648A5.652 5.652 0 0042.354 0z"></path></g></svg>