<svg xmlns="http://www.w3.org/2000/svg" viewBox="0 0 48 48" width="48px" height="48px"><g><path fill-rule="evenodd" d="M14.222 10.111C14.222 9 13.778 8 13 7.222 12.222 6.444 11.222 6 10.111 6 9 6 8 6.444 7.222 7.222 6.444 8 6 9 6 10.112c0 1.11.444 2.11 1.222 2.888s1.778 1.222 2.89 1.222c1.11 0 2.11-.444 2.888-1.222s1.222-1.778 1.222-2.889zM48 28.444c0 1.112-.333 2-1.111 2.778L31.333 46.89c-.889.778-1.889 1.111-2.889 1.111-1.222 0-2.11-.333-2.888-1.111L2.889 24.11C2 23.333 1.333 22.333.778 20.89.222 19.556 0 18.333 0 17.222V4c0-1.111.333-2 1.111-2.889C2 .333 2.89 0 4 0h13.222c1.111 0 2.334.222 3.667.778 1.444.555 2.444 1.222 3.333 2.11L46.89 25.557c.778.777 1.111 1.777 1.111 2.888z"></path></g></svg>