<svg xmlns="http://www.w3.org/2000/svg" viewBox="0 0 48 48" width="48px" height="48px"><g><path fill-rule="evenodd" d="M16.482 5.738a1.412 1.412 0 01.707 2.635l-8.963 5.174a4.823 4.823 0 00-2.403 4.163v15.108c0 1.712.921 3.306 2.403 4.163l13.084 7.553c1.483.86 3.323.86 4.808 0l13.085-7.553a4.823 4.823 0 002.402-4.163V17.71a4.825 4.825 0 00-2.402-4.163L30.252 8.38a1.412 1.412 0 01-.518-1.93 1.42 1.42 0 011.93-.516l8.95 5.168a7.653 7.653 0 013.815 6.608v15.108a7.654 7.654 0 01-3.815 6.608L27.53 46.98a7.651 7.651 0 01-7.631 0L6.814 39.426A7.65 7.65 0 013 32.818V17.71a7.65 7.65 0 013.814-6.608l8.964-5.175c.222-.128.464-.19.704-.19zM23.714 0c.78 0 1.412.631 1.412 1.411v25.525l6.146-6.146a1.41 1.41 0 011.996 0 1.41 1.41 0 010 1.996l-8.554 8.554a1.423 1.423 0 01-1.54.306 1.402 1.402 0 01-.46-.306l-8.555-8.554a1.41 1.41 0 01.998-2.41c.36 0 .723.138.998.414l6.146 6.146V1.411A1.41 1.41 0 0123.714 0z"></path></g></svg>