<svg xmlns="http://www.w3.org/2000/svg" viewBox="0 0 48 48" width="48px" height="48px"><g><defs>
  <path id="a" d="M-.001 24.001c0 13.233 10.767 24 24.001 24 13.232 0 24-10.767 24-24C48 10.766 37.232 0 24 0 10.766 0-.001 10.766-.001 24.001zm2.684 0C2.683 12.246 12.246 2.682 24 2.682c11.753 0 21.316 9.564 21.316 21.319 0 11.753-9.563 21.316-21.316 21.316-11.754 0-21.317-9.563-21.317-21.316zm22.121-6.803l-4.079 13.31A1.155 1.155 0 0021.827 32c.75 0 1.401-.48 1.62-1.197l4.078-13.307A1.155 1.155 0 0026.424 16c-.75 0-1.401.48-1.62 1.198zm14.445 4.936l-6.949-5.81a1.387 1.387 0 00-1.018-.318 1.364 1.364 0 00-.927.474l-.05.06a1.444 1.444 0 00.22 2.007l6.532 5.409-6.633 5.49a1.45 1.45 0 00-.2 2.027 1.408 1.408 0 001.105.528c.326 0 .642-.113.913-.334l7.01-5.888a2.373 2.373 0 00-.003-3.645m-28.306 1.822l6.531-5.409a1.445 1.445 0 00.218-2.011l-.03-.036a1.382 1.382 0 00-.945-.494 1.374 1.374 0 00-1.018.319L8.75 22.134a2.379 2.379 0 00-.002 3.645l7.027 5.903c.263.213.581.317.896.317a1.42 1.42 0 001.106-.525 1.45 1.45 0 00-.2-2.026l-6.634-5.492z"></path>
</defs><use fill-rule="evenodd" xlink:href="#a"></use></g></svg>