<svg xmlns="http://www.w3.org/2000/svg" viewBox="0 0 48 48" width="48px" height="48px"><g><path fill-rule="evenodd" d="M43.932 4.021c-5.288-5.152-13.695-5.424-19.118-.407l-7.051 6.916c-1.22 1.356-2.17 2.712-2.848 4.339-1.356.542-2.712 1.356-3.796 2.44v-.135l-7.051 7.05c-5.424 5.424-5.424 14.238 0 19.662 5.424 5.423 14.237 5.423 19.66 0l7.052-7.051h-.136c1.085-1.085 1.898-2.44 2.44-3.797 1.628-.678 2.984-1.627 4.34-2.847l7.05-7.051h-.135c5.017-5.424 4.746-13.83-.407-19.119zM18.983 38.87c-2.712 2.712-7.186 2.712-9.898 0-2.712-2.712-2.712-7.187 0-9.899l5.152-5.152c.543 2.305 1.763 4.474 3.526 6.373 1.898 1.762 4.068 2.983 6.373 3.525l-5.153 5.153zm3.797-13.695c-1.22-1.22-1.899-2.848-2.034-4.475 1.627.136 3.254.814 4.474 2.034 1.22 1.22 1.899 2.848 2.034 4.475-1.627-.136-3.254-.814-4.474-2.034zm16.542-6.644l-.407.406-5.152 5.153c-.543-2.305-1.763-4.475-3.526-6.373-1.898-1.763-4.068-2.983-6.373-3.525l5.153-5.153.407-.407c2.847-2.305 6.915-2.17 9.491.407 2.577 2.576 2.712 6.644.407 9.492z"></path></g></svg>