<svg xmlns="http://www.w3.org/2000/svg" viewBox="0 0 48 48" width="48px" height="48px"><g><path fill-rule="evenodd" d="M38.719 0a9.114 9.114 0 019.114 9.115c0 3.273-1.733 6.136-4.324 7.742V31.85a7.984 7.984 0 01-3.98 6.894L25.734 46.71a7.963 7.963 0 01-3.98 1.062 7.969 7.969 0 01-3.98-1.062L3.98 38.744A7.986 7.986 0 010 31.85V15.922a7.986 7.986 0 013.98-6.895l13.794-7.964a7.986 7.986 0 017.96 0l5.347 3.087A9.102 9.102 0 0138.719 0zm-19.54 3.498L5.386 11.462a5.163 5.163 0 00-2.574 4.46V31.85c0 1.834.986 3.543 2.574 4.46l13.795 7.964a5.163 5.163 0 005.149 0l13.794-7.965a5.162 5.162 0 002.576-4.46V18.007c-.638.142-1.3.223-1.98.223a9.114 9.114 0 01-9.115-9.114c0-.826.12-1.623.326-2.384L24.33 3.499a5.158 5.158 0 00-5.15 0zm19.644.013c-1.671 0-3.004 1.2-3.004 2.988v1.623h-.604l-.103.007c-.44.055-.794.459-.794.95v3.353l.006.112c.052.478.43.845.89.845h7.217l.103-.007c.44-.055.794-.46.794-.95V9.078l-.006-.112c-.052-.477-.431-.844-.891-.844h-.606V6.5l-.005-.188c-.091-1.68-1.398-2.8-2.997-2.8zm0 1.933c.64 0 1.159.561 1.159 1.25v1.49h-2.32v-1.49c0-.69.515-1.25 1.16-1.25zM20.424 15.482a3.613 3.613 0 013.607 0l4.62 2.667a3.618 3.618 0 011.804 3.125v5.335a3.618 3.618 0 01-1.804 3.124l-4.62 2.668a3.605 3.605 0 01-3.607-.001l-4.62-2.667A3.618 3.618 0 0114 26.61v-5.335a3.62 3.62 0 011.804-3.125zM22.404 18a.784.784 0 00-.392.104l-4.62 2.668a.785.785 0 00-.392.679v5.334c0 .28.15.54.392.679l4.62 2.667c.241.14.542.14.783 0l4.62-2.667c.242-.14.393-.4.393-.679v-5.334c0-.28-.15-.54-.393-.679l-4.62-2.667a.778.778 0 00-.391-.105z"></path></g></svg>