<svg xmlns="http://www.w3.org/2000/svg" viewBox="0 0 48 48" width="48px" height="48px"><g><path fill-rule="evenodd" d="M26.448 44.486a5.189 5.189 0 01-5.176 0l-13.86-8.002a5.188 5.188 0 01-2.587-4.481v-1.771l10.161 5.33a1.058 1.058 0 001.324-.282l7.558-9.58 4.289 5.337c.2.251.504.396.825.396h6.114c.28 0 .549-.111.747-.309l7.052-7.021v7.9c0 1.842-.991 3.56-2.587 4.481l-13.86 8.002zM21.272 3.514a5.189 5.189 0 015.176 0l12.923 7.462-5.314.47c-.29.026-.557.171-.737.4l-4.958 6.286-4.524-4.752c-.206-.217-.491-.317-.792-.329-.299.007-.58.14-.775.365l-7.407 8.553-10.039-4.943v-1.028c0-1.843.991-3.56 2.587-4.481l13.86-8.003zM4.825 19.387l9.836 4.844a1.06 1.06 0 001.268-.257l7.179-8.29 4.561 4.794a1.06 1.06 0 001.599-.075l5.432-6.887 7.147-.633a5.182 5.182 0 011.048 3.115v5.116l-8.236 8.201h-5.17l-4.804-5.978c-.2-.25-.505-.395-.825-.395-.296.04-.631.148-.831.403l-7.837 9.933-10.367-5.439v-8.452zM27.859 1.068a8.02 8.02 0 00-7.998 0L6 9.07a8.028 8.028 0 00-4 6.928v16.005a8.025 8.025 0 004 6.927l13.861 8.002A7.996 7.996 0 0023.86 48a7.998 7.998 0 003.999-1.068l13.86-8.002a8.023 8.023 0 004-6.927V15.998a8.026 8.026 0 00-4-6.928l-13.86-8.002z"></path></g></svg>