<svg xmlns="http://www.w3.org/2000/svg" viewBox="0 0 48 48" width="48px" height="48px"><g><path fill-rule="evenodd" d="M8.044 44.055h31.912v-24.11H26.951c-.765 0-1.53-.219-2.077-.877-.546-.547-.874-1.205-.874-2.082V3.946H8.044v40.109zm20-28.055h11.694c-.219-.658-.437-1.096-.656-1.315l-9.836-9.753c-.219-.33-.656-.548-1.202-.768V16zM44 16.986v28.055c0 .877-.328 1.534-.874 2.082-.547.658-1.312.877-2.186.877H7.06c-.874 0-1.64-.22-2.186-.877C4.328 46.575 4 45.918 4 45.041V2.96c0-.877.328-1.534.874-2.082C5.421.219 6.186 0 7.06 0h19.89c.875 0 1.75.11 2.842.548.984.438 1.749.986 2.295 1.534l9.727 9.754c.656.548 1.093 1.424 1.53 2.41.437.987.656 1.864.656 2.74z"></path></g></svg>