<svg xmlns="http://www.w3.org/2000/svg" viewBox="0 0 48 48" width="48px" height="48px"><g><path d="M9 18.876V7.381S39.857 4.613 39.857 0v11.071s0 .963-2.942 2.273c1.91.961 2.58 1.771 2.815 2.221.084-.168.127-.339.127-.512v11.204c0-.032-.001-.064-.004-.096-.032.174-.29.944-2.38 1.974 1.486.83 2.046 1.522 2.257 1.925.084-.168.127-.339.127-.512v11.204c0-.032-.001-.064-.004-.096-.08.442-1.616 4.722-30.853 7.344V36.929s6.979-.626 14.298-1.779c-5.92-.932-11.617-1.52-13.58-1.71L9 33.504V22.3l1.3.12c2.384-.248 7.71-.843 13.195-1.734C16.104 19.513 9 18.876 9 18.876zm26.465-4.951C31.79 15.26 25.045 16.83 12.657 18.1c.42.046.854.095 1.298.146 3.634.416 7.268.905 10.664 1.464.782.128 1.537.257 2.265.386 5.039-.937 9.719-2.12 11.816-3.505v-.508c-.111-.2-.339-.454-.736-.763-.591-.458-1.416-.927-2.5-1.396zm.667 14.8c-3.272 1.294-9.419 2.857-20.964 4.159 3.227.384 6.433.826 9.45 1.322.734.12 1.443.241 2.129.362 5.09-.922 9.837-2.095 11.953-3.485v-.504c-.111-.199-.339-.454-.736-.762-.463-.36-1.07-.725-1.832-1.092z"></path></g></svg>