<svg xmlns="http://www.w3.org/2000/svg" viewBox="0 0 48 48" width="48px" height="48px"><g><path fill-rule="evenodd" d="M29.263 26.668c0 .279-.15.539-.392.678l-4.62 2.668a.783.783 0 01-.783 0l-4.62-2.668a.785.785 0 01-.393-.678v-5.335c0-.28.15-.54.393-.679l4.62-2.668a.784.784 0 01.783.001l4.62 2.667c.242.14.392.4.392.679v5.335zm1.02-8.46l-4.62-2.666a3.613 3.613 0 00-3.607-.001l-4.62 2.667a3.618 3.618 0 00-1.804 3.125v5.335c0 1.285.691 2.482 1.804 3.124l4.62 2.667a3.61 3.61 0 003.607.001l4.62-2.668a3.618 3.618 0 001.804-3.124v-5.335a3.618 3.618 0 00-1.804-3.125zm12.611 13.794a5.19 5.19 0 01-2.587 4.482l-13.86 8.002a5.184 5.184 0 01-5.175 0l-13.86-8.002a5.188 5.188 0 01-2.588-4.482V15.998c0-1.843.991-3.56 2.587-4.481l13.86-8.003a5.184 5.184 0 015.176 0l13.86 8.003a5.188 5.188 0 012.587 4.481v16.004zM41.72 9.07L27.86 1.068a8.02 8.02 0 00-8 0L6 9.07a8.023 8.023 0 00-4 6.928v16.004a8.023 8.023 0 004 6.928l13.86 8.002a7.996 7.996 0 004 1.068 7.996 7.996 0 003.999-1.068l13.86-8.002a8.023 8.023 0 004-6.928V15.998a8.023 8.023 0 00-4-6.928z"></path></g></svg>