<svg xmlns="http://www.w3.org/2000/svg" viewBox="0 0 48 48" width="48px" height="48px"><g><path fill-rule="evenodd" d="M42.981 1c2.535 0 4.335 1.402 4.917 3.854.035.15.054.306.054.462v31.02A5.662 5.662 0 0142.29 42H13.52l.382 3.11a1.22 1.22 0 01-1.063 1.36l-7.5.922a1.22 1.22 0 01-1.362-1.063L.01 14.012a1.222 1.222 0 011.063-1.36l1.88-.231V6.83A3.832 3.832 0 016.784 3h32.067c.907-1.285 2.332-2 4.13-2zM8.044 13.81l-5.955.731.23 1.863 2.207-.273a1 1 0 01.244 1.986l-2.209.271.273 2.22.765-.093a1 1 0 11.245 1.985l-.766.093.272 2.221.766-.093a1 1 0 01.244 1.985l-.766.093.273 2.22 2.393-.292a1 1 0 01.243 1.983l-2.392.294.272 2.221.766-.093a1 1 0 01.243 1.985l-.765.094.272 2.22.766-.094a1.002 1.002 0 01.244 1.985l-.766.093.273 2.221 2.79-.343a1 1 0 01.244 1.986l-2.79.343.207 1.688 5.955-.73-3.778-30.77zM37.994 5H6.783c-1.012 0-1.832.82-1.832 1.832v5.343l3.622-.445a1.22 1.22 0 011.36 1.063L13.275 40H42.29a3.653 3.653 0 003.267-2.037c-.705-.127-1.344-.614-1.552-1.51-.099-.425-.243-.527-1.007-.527-.789 0-.987.135-1.116.606-.619 2.247-3.929 1.8-3.929-.532V5.315c0-.107.023-.21.041-.316zm4.987-2c-1.614 0-2.624.772-3.029 2.316v30.683c.381-1.382 1.396-2.075 3.045-2.075 1.65 0 2.634.694 2.955 2.075V5.315C45.586 3.772 44.596 3 42.982 3zm-17.62 11.509a3.464 3.464 0 013.182 0l4.746 2.48c1.02.533 1.663 1.543 1.663 2.653v8.96c0 1.11-.644 2.12-1.664 2.654l-4.744 2.478a3.458 3.458 0 01-3.182 0l-4.746-2.479c-1.02-.533-1.664-1.543-1.664-2.653v-8.96c0-1.111.644-2.12 1.665-2.653zm-8.149.208a1 1 0 010 2h-.01v14.77c0 .083-.028.155-.046.23h.056a1 1 0 010 2h-2.01a1 1 0 110-2h.046c-.018-.075-.046-.147-.046-.23v-14.77a1 1 0 110-2zm3.74 10.822v3.063c0 .347.215.684.591.88l4.745 2.48c.408.213.921.213 1.33 0l4.743-2.479c.375-.196.591-.534.591-.881v-3.014l-4.513 2.474a2.997 2.997 0 01-2.884 0l-4.603-2.523zm6.666-9.257a1.464 1.464 0 00-1.33 0l-4.745 2.479c-.376.197-.59.534-.59.881v3.663c.065.02.133.027.196.062l5.367 2.942a1 1 0 00.961 0l5.368-2.942c.034-.019.072-.02.107-.034v-3.691c0-.347-.215-.684-.59-.881zm-.05 5.218a1 1 0 010 2h-1.116a1 1 0 110-2zm3-2a1 1 0 010 2h-1.116a1 1 0 110-2zm-6 0a1 1 0 010 2h-1.116a1 1 0 010-2zm3-2a1 1 0 010 2h-1.116a1 1 0 110-2zm6.634-8.193a1 1 0 011 1v2.458a1 1 0 11-2 0v-.229h-12v.23a1 1 0 11-2 0v-2.459a1 1 0 012 0v.23h12v-.23a1 1 0 011-1z"></path></g></svg>