<svg xmlns="http://www.w3.org/2000/svg" viewBox="0 0 48 48" width="48px" height="48px"><g><path fill-rule="evenodd" d="M23.608 23.06L15.88 18.6a.784.784 0 01-.392-.679V8.997a.78.78 0 01.393-.677l7.727-4.462a.778.778 0 01.784.001L32.12 8.32a.785.785 0 01.392.677v8.924a.786.786 0 01-.394.678l-7.728 4.462a.778.778 0 01-.782 0zm9.887-2.075a3.547 3.547 0 001.77-3.064V8.997a3.548 3.548 0 00-1.77-3.063l-7.725-4.46a3.54 3.54 0 00-3.538 0l-7.728 4.46a3.55 3.55 0 00-1.77 3.063v8.924a3.55 3.55 0 001.77 3.064l7.726 4.46a3.529 3.529 0 001.77.473 3.53 3.53 0 001.768-.472l7.727-4.46zm-9.525-8.187l-4.053-2.42L24.03 7.95l4.052 2.421-4.112 2.426zm5.855-3.79l-4.75-2.838a2.167 2.167 0 00-2.164.008l-4.736 2.83c-.486.29-.777.801-.777 1.366 0 .567.29 1.077.777 1.367l4.75 2.838c.33.191.699.286 1.07.286.376 0 .754-.097 1.095-.294l4.735-2.83c.486-.29.776-.8.776-1.367 0-.565-.29-1.076-.776-1.366zM19.776 39.812c0 .279-.15.539-.392.679l-7.728 4.462a.787.787 0 01-.784-.001l-7.727-4.461a.787.787 0 01-.392-.679v-8.923c0-.279.15-.539.392-.679l7.728-4.461a.784.784 0 01.784 0l7.727 4.461c.242.14.392.4.392.679v8.923zm.985-11.986l-7.727-4.461a3.547 3.547 0 00-3.539 0l-7.727 4.461A3.548 3.548 0 000 30.889v8.923c0 1.259.677 2.433 1.768 3.063l7.727 4.461a3.529 3.529 0 001.77.473c.612 0 1.223-.157 1.769-.473l7.727-4.461a3.547 3.547 0 001.768-3.063v-8.923a3.548 3.548 0 00-1.768-3.063zm-9.526 6.863l-4.052-2.42 4.111-2.426 4.053 2.421-4.112 2.425zm5.855-3.79l-4.75-2.838a2.166 2.166 0 00-2.165.009l-4.736 2.829a1.58 1.58 0 00-.776 1.367c0 .566.29 1.077.776 1.367l4.75 2.838c.33.191.7.285 1.072.285.375 0 .753-.097 1.094-.294l4.735-2.83c.486-.289.776-.8.776-1.366a1.58 1.58 0 00-.776-1.367zm28.156 8.913c0 .279-.15.539-.392.679l-7.728 4.462a.787.787 0 01-.784-.001l-7.727-4.461a.787.787 0 01-.392-.679v-8.923c0-.279.15-.539.392-.679l7.728-4.461a.784.784 0 01.784 0l7.727 4.461c.242.14.392.4.392.679v8.923zm.985-11.986l-7.727-4.461a3.547 3.547 0 00-3.539 0l-7.727 4.461a3.548 3.548 0 00-1.768 3.063v8.923c0 1.259.677 2.433 1.768 3.063l7.727 4.461a3.529 3.529 0 001.77.473c.612 0 1.223-.157 1.77-.473l7.726-4.461A3.547 3.547 0 0048 39.812v-8.923a3.548 3.548 0 00-1.768-3.063zm-9.526 6.863l-4.053-2.42 4.113-2.426 4.052 2.421-4.112 2.425zm5.855-3.79l-4.75-2.838a2.166 2.166 0 00-2.165.009l-4.736 2.83c-.486.29-.775.801-.775 1.366 0 .566.289 1.077.775 1.366v.001l4.75 2.838c.33.191.7.285 1.072.285.375 0 .753-.097 1.094-.294l4.735-2.829c.486-.29.776-.801.776-1.367a1.58 1.58 0 00-.776-1.367z"></path></g></svg>