<svg xmlns="http://www.w3.org/2000/svg" viewBox="0 0 48 48" width="48px" height="48px"><g><path fill-rule="evenodd" d="M23.998 1C37.254 1 48 11.368 48 24.159c0 10.23-6.87 18.904-16.399 21.973-1.217.226-1.65-.495-1.65-1.114 0-.76.029-3.258.029-6.354 0-2.16-.768-3.573-1.628-4.288 5.345-.573 10.957-2.53 10.957-11.428 0-2.527-.928-4.596-2.466-6.214.246-.586 1.07-2.941-.241-6.129 0 0-2.011-.623-6.593 2.374-1.916-.514-3.969-.77-6.008-.78-2.041.01-4.094.266-6.008.78-4.585-2.997-6.599-2.374-6.599-2.374-1.307 3.188-.483 5.543-.236 6.129-1.535 1.618-2.471 3.687-2.471 6.214 0 8.874 5.603 10.862 10.933 11.447-.685.578-1.306 1.599-1.524 3.094-1.368.593-4.845 1.615-6.985-1.924 0 0-1.267-2.223-3.676-2.386 0 0-2.344-.029-.165 1.407 0 0 1.573.713 2.665 3.389 0 0 1.409 4.504 8.084 3.104.012 1.933.033 3.388.033 3.939 0 .614-.438 1.329-1.638 1.116C6.876 43.071 0 34.392 0 24.159 0 11.368 10.747 1 23.998 1"></path></g></svg>