<svg xmlns="http://www.w3.org/2000/svg" viewBox="0 0 48 48" width="48px" height="48px"><g><path fill-rule="evenodd" d="M38.091 3.063v5.46h-1.582v-2.73a1.15 1.15 0 00-1.023-1.143l-.125-.006H9.794a1.15 1.15 0 000 2.297h24.42l-.001 1.582H9.794a2.733 2.733 0 01-2.725-2.565l-.005-.166a2.733 2.733 0 012.73-2.729h28.297zM7.064 10.901v31.308a2.732 2.732 0 002.73 2.728h30.428V11.586H9.794a5.762 5.762 0 01-2.73-.685zm34.689 37.1H9.794A5.8 5.8 0 014 42.209V5.79A5.8 5.8 0 019.794 0h29.828a1.53 1.53 0 011.531 1.532v6.991h.6a1.53 1.53 0 011.531 1.531v36.415a1.53 1.53 0 01-1.531 1.532z"></path></g></svg>