<svg xmlns="http://www.w3.org/2000/svg" viewBox="0 0 48 48" width="48px" height="48px"><g><path fill-rule="evenodd" d="M17.342 1l.313.007a6.65 6.65 0 012.726.724l.283.154 6.405 3.699.124.053.121.065 1.228.733 2.822 1.628.254.154.245.166.237.175 4.088 2.439.103.039.1.047.1.056 8.216 4.994.221.133a6.652 6.652 0 013.067 5.34l.005.263v12.356l-.005.262a6.663 6.663 0 01-3.094 5.355l-.225.136-10.699 6.178-.248.136a6.672 6.672 0 01-6.147 0l-.248-.136-7.398-4.458-.097-.065-.09-.071-5.112-3.123-.055-.035-.051-.036-.257-.127-.253-.14-10.7-6.176-.224-.136a6.66 6.66 0 01-3.092-5.355L0 26.172V13.817l.005-.263a6.664 6.664 0 013.092-5.356l.224-.135 10.7-6.178A6.658 6.658 0 0117.342 1zm23.997 16.735l.003.054.001.054v12.355l-.005.262a6.671 6.671 0 01-3.094 5.357l-.224.136-10.699 6.177-.165.092-.167.086 1.929 1.163a3.44 3.44 0 001.503.451l.226.008.23-.008c.457-.03.912-.148 1.334-.355l.208-.111 10.699-6.178.188-.117a3.54 3.54 0 001.57-2.716l.007-.22V21.869l-.007-.221a3.538 3.538 0 00-1.57-2.716l-.188-.116-1.779-1.081zm-6.655-4.006l.001.044.001.044v12.355l-.005.262a6.662 6.662 0 01-3.093 5.355l-.224.136-10.7 6.177-.158.088-.16.084 1.923 1.176c.458.264.97.413 1.494.447l.225.007.23-.008c.458-.03.914-.147 1.337-.355l.209-.111 10.698-6.177.187-.117a3.538 3.538 0 001.567-2.717l.007-.221V17.843l-.007-.22a3.537 3.537 0 00-1.567-2.717l-.187-.116-1.778-1.061zM15.774 4.48l-.194.105-10.7 6.177-.188.116a3.543 3.543 0 00-1.568 2.717l-.007.22v12.356l.007.22a3.537 3.537 0 001.568 2.717l.188.116 10.7 6.177a3.514 3.514 0 001.534.465l.229.008.228-.008c.456-.03.908-.148 1.327-.355l.207-.11 10.7-6.177.188-.116a3.537 3.537 0 001.568-2.717l.007-.22V13.817l-.006-.21a3.542 3.542 0 00-1.092-2.344l-.165-.147-3.287-1.961-7.913-4.57-.194-.103a3.536 3.536 0 00-3.137 0zM19.625 10c1.036 0 1.875.858 1.875 1.917 0 1.058-.839 1.916-1.874 1.916l-1.362 3.56 6.987-3.974.005-.119c.074-.988.883-1.767 1.869-1.767 1.036 0 1.875.858 1.875 1.917 0 1.059-.84 1.917-1.875 1.917-.466 0-.892-.174-1.22-.461l-6.853 3.896 4.117.752a1.874 1.874 0 011.706-1.12c1.036 0 1.875.857 1.875 1.916s-.84 1.917-1.875 1.917a1.87 1.87 0 01-1.676-1.057l-5.764-1.054-.774 9.187a1.92 1.92 0 011.089 1.74c0 1.059-.84 1.917-1.875 1.917C14.839 33 14 32.142 14 31.083c0-.762.435-1.42 1.065-1.729l.74-8.765-3.331 1.74c.017.104.026.211.026.321 0 1.059-.84 1.917-1.875 1.917-1.036 0-1.875-.858-1.875-1.917 0-1.059.84-1.917 1.875-1.917.338 0 .655.092.929.252l3.719-1.942L8.09 14.91a1.844 1.844 0 01-1.216.458C5.839 15.367 5 14.509 5 13.45s.84-1.917 1.875-1.917c1.027 0 1.86.844 1.875 1.89l7.643 4.402 1.792-4.68a1.935 1.935 0 01-.435-1.228c0-1.059.84-1.917 1.875-1.917z"></path></g></svg>