<svg xmlns="http://www.w3.org/2000/svg" viewBox="0 0 48 48" width="48px" height="48px"><g><path fill-rule="evenodd" d="M42.353 45.177H5.647a2.828 2.828 0 01-2.823-2.824v-25.03h42.353v25.03a2.828 2.828 0 01-2.824 2.824M5.647 2.823h36.706a2.828 2.828 0 012.824 2.824v9.558H2.824V5.647a2.828 2.828 0 012.823-2.824M42.353 0H5.647A5.652 5.652 0 000 5.647v36.706A5.653 5.653 0 005.647 48h36.706A5.652 5.652 0 0048 42.353V5.647A5.652 5.652 0 0042.353 0m-3.076 5.21a3.726 3.726 0 013.721 3.721 3.726 3.726 0 01-3.72 3.721H22.411a3.726 3.726 0 01-3.72-3.72 3.726 3.726 0 013.72-3.722zm-31.212.463A1.058 1.058 0 119.444 7.28L7.49 8.954l1.954 1.676a1.058 1.058 0 11-1.379 1.607l-2.89-2.479a1.061 1.061 0 010-1.608zm3.298.114a1.062 1.062 0 011.493-.114l2.891 2.477a1.059 1.059 0 010 1.608l-2.89 2.48a1.057 1.057 0 01-1.494-.115 1.06 1.06 0 01.114-1.493l1.954-1.676-1.954-1.674a1.06 1.06 0 01-.114-1.493zm23.585 1.54H22.412c-.884 0-1.604.72-1.604 1.604 0 .883.72 1.603 1.604 1.603h12.536V7.327zm4.33 0h-2.212v3.207h2.211c.884 0 1.604-.72 1.604-1.603 0-.884-.72-1.604-1.604-1.604zm2.34 12.502a1.06 1.06 0 011.058 1.06v20.4a1.06 1.06 0 01-1.059 1.06H6.385a1.06 1.06 0 01-1.059-1.06v-20.4c0-.585.474-1.06 1.06-1.06zm-1.06 2.12H7.444V40.23h33.114V21.948z"></path></g></svg>