<svg xmlns="http://www.w3.org/2000/svg" viewBox="0 0 48 48" width="48px" height="48px"><g><path fill-rule="evenodd" d="M24 9c13.255 0 24 6.908 24 15.429 0 8.52-10.745 15.428-24 15.428S0 32.95 0 24.43 10.745 9 24 9zm-8.733 10.318h-5.135L7.75 31.73h2.67l.634-3.3h2.287c1.01 0 1.84-.107 2.491-.322a4.707 4.707 0 001.778-1.08 5.53 5.53 0 001.086-1.378 5.59 5.59 0 00.59-1.663c.283-1.47.07-2.617-.638-3.438-.709-.821-1.836-1.231-3.38-1.231zm20.843 0h-5.135L28.593 31.73h2.67l.633-3.3h2.288c1.009 0 1.839-.107 2.491-.322a4.707 4.707 0 001.777-1.08 5.53 5.53 0 001.087-1.378 5.597 5.597 0 00.59-1.663c.283-1.47.07-2.617-.639-3.438-.708-.821-1.835-1.231-3.38-1.231zm-12.213-3.3h-2.65L18.866 28.43h2.65l1.364-7.111h2.118c.677 0 1.12.114 1.329.34.208.228.252.654.132 1.279l-1.054 5.492h2.692l1.108-5.776c.226-1.175.057-2.025-.507-2.55-.564-.524-1.588-.786-3.073-.786h-2.36l.633-3.3zm-9.64 5.258c1.014 0 1.69.19 2.028.57.338.378.418 1.03.242 1.952-.185.96-.54 1.646-1.068 2.057-.527.411-1.329.616-2.405.616H11.43l.997-5.195h1.83zm20.842 0c1.014 0 1.69.19 2.029.57.337.378.418 1.03.241 1.952-.185.96-.54 1.646-1.067 2.057-.527.411-1.329.616-2.406.616h-1.624l.997-5.195h1.83z"></path></g></svg>