<svg xmlns="http://www.w3.org/2000/svg" viewBox="0 0 48 48" width="48px" height="48px"><g><path fill-rule="evenodd" d="M42.895 32.002c0 1.843-.991 3.56-2.587 4.481l-13.86 8.002a5.184 5.184 0 01-5.176 0l-13.86-8.002a5.187 5.187 0 01-2.587-4.48V15.996c0-1.843.991-3.559 2.587-4.48l13.86-8.003a5.184 5.184 0 015.176 0l13.86 8.002a5.188 5.188 0 012.587 4.481v16.005zM41.719 9.07l-13.86-8.003a8.028 8.028 0 00-7.999 0L6 9.07a8.023 8.023 0 00-4 6.927v16.005a8.023 8.023 0 004 6.927l13.86 8.003a8 8 0 004 1.067 7.997 7.997 0 003.999-1.067l13.86-8.003a8.023 8.023 0 004-6.927V15.997a8.023 8.023 0 00-4-6.927zm-8.33 25.868a2.17 2.17 0 00.648-1.594c0-.63-.216-1.161-.649-1.594a2.17 2.17 0 00-1.595-.65c-.63 0-1.16.217-1.594.65-.433.433-.65.964-.65 1.594 0 .629.217 1.16.65 1.594a2.28 2.28 0 001.594.68 2.284 2.284 0 001.595-.68m1.668-3.5c.344.562.517 1.197.517 1.906-.02 1.082-.384 1.978-1.093 2.687-.708.709-1.605 1.072-2.687 1.093-1.083-.021-1.978-.384-2.686-1.093-.709-.71-1.073-1.605-1.093-2.687 0-.71.172-1.344.517-1.905a3.89 3.89 0 011.373-1.343v-11.87c-.02-.491-.217-.925-.59-1.3-.375-.373-.808-.57-1.3-.59h-1.89v3.78l-5.669-5.67 5.67-5.668v3.779h1.89c1.476.06 2.774.65 3.896 1.772 1.123 1.122 1.713 2.422 1.772 3.897v11.87a3.907 3.907 0 011.373 1.343m-16.786.31a2.167 2.167 0 00-1.594-.65 2.17 2.17 0 00-1.595.65 2.166 2.166 0 00-.649 1.595c0 .629.216 1.16.65 1.594.432.433.964.649 1.594.649.63 0 1.161-.216 1.594-.65.433-.432.66-.964.68-1.593a2.275 2.275 0 00-.68-1.594m0-15.708c.433-.433.65-.964.65-1.595 0-.63-.217-1.161-.65-1.594a2.166 2.166 0 00-1.594-.65 2.17 2.17 0 00-1.595.65 2.168 2.168 0 00-.649 1.594c0 .63.216 1.162.65 1.595.432.433.964.66 1.594.678a2.265 2.265 0 001.594-.678m1.67.309a3.893 3.893 0 01-1.374 1.344v12.4a3.907 3.907 0 011.373 1.344c.344.56.516 1.196.516 1.905-.02 1.082-.383 1.978-1.092 2.687-.709.709-1.605 1.072-2.687 1.093-1.083-.021-1.978-.384-2.687-1.093-.708-.71-1.073-1.605-1.092-2.687 0-.71.172-1.344.516-1.905a3.907 3.907 0 011.373-1.343V17.695a3.893 3.893 0 01-1.373-1.344c-.344-.56-.516-1.195-.516-1.904.02-1.082.384-1.978 1.092-2.687.71-.71 1.604-1.072 2.687-1.093 1.082.02 1.978.384 2.687 1.093.71.709 1.072 1.605 1.092 2.687 0 .709-.172 1.344-.516 1.904"></path></g></svg>