<svg xmlns="http://www.w3.org/2000/svg" viewBox="0 0 48 48" width="48px" height="48px"><g><path fill-rule="evenodd" d="M41.102 5A6.905 6.905 0 0148 11.898a6.905 6.905 0 01-6.898 6.898H6.9c-3.804 0-6.9-3.094-6.9-6.898S3.096 5 6.9 5zm0 2.824H6.9a4.08 4.08 0 00-4.075 4.074A4.08 4.08 0 006.9 15.973h34.202a4.08 4.08 0 004.075-4.075 4.08 4.08 0 00-4.075-4.074zM8.543 36.144a1.406 1.406 0 011.994-.066 1.41 1.41 0 01.07 1.994l-4.446 4.75a1.4 1.4 0 01-1.03.449h-.04a1.423 1.423 0 01-1.046-.507l-1.532-1.84a1.414 1.414 0 01.18-1.99 1.416 1.416 0 011.99.182l.508.612zm35.046 2.77a1.41 1.41 0 110 2.823H12.485a1.411 1.411 0 110-2.823zM8.543 28.79a1.412 1.412 0 112.063 1.93l-4.445 4.75a1.41 1.41 0 01-1.03.446h-.04a1.42 1.42 0 01-1.046-.507L2.513 33.57c-.5-.6-.418-1.489.18-1.99a1.418 1.418 0 011.99.181l.508.612zm35.046 2.772a1.41 1.41 0 110 2.823H12.485a1.412 1.412 0 110-2.823zM8.543 21.434a1.412 1.412 0 011.996-.066c.57.534.6 1.427.067 1.997l-4.445 4.749a1.41 1.41 0 01-1.03.447h-.04a1.415 1.415 0 01-1.044-.508l-1.533-1.838a1.411 1.411 0 112.167-1.808l.51.61zm35.046 2.771a1.41 1.41 0 110 2.823H12.485a1.412 1.412 0 110-2.823zM40.137 8.498a2.84 2.84 0 012.837 2.837 2.84 2.84 0 01-3.949 2.61l-1.473 1.472a1.056 1.056 0 01-1.498 0 1.06 1.06 0 010-1.497l1.474-1.472a2.811 2.811 0 01-.229-1.113 2.84 2.84 0 012.838-2.837zm0 2.118a.72.72 0 100 1.44.72.72 0 000-1.44z"></path></g></svg>