<svg xmlns="http://www.w3.org/2000/svg" viewBox="0 0 48 48" width="48px" height="48px"><g><path fill-rule="evenodd" d="M27.392 15.488a1.413 1.413 0 00-1.837 2.145l2.485 2.13H16.136a1.411 1.411 0 100 2.824h11.92l-2.501 2.143a1.412 1.412 0 001.837 2.146l5.392-4.62a1.414 1.414 0 000-2.146l-5.392-4.622zm17.784 15.017v1.446a2.47 2.47 0 01-2.469 2.469H5.294a2.473 2.473 0 01-2.471-2.469V10.293a2.473 2.473 0 012.471-2.469h37.413a2.47 2.47 0 012.469 2.469v20.212zm0 6.621a2.471 2.471 0 01-2.469 2.47H5.294a2.474 2.474 0 01-2.471-2.47v-.522a5.244 5.244 0 002.471.639h37.413a5.23 5.23 0 002.469-.639v.522zM42.707 5H5.294A5.3 5.3 0 000 10.293v26.833a5.3 5.3 0 005.294 5.293h37.413A5.298 5.298 0 0048 37.126V10.293A5.298 5.298 0 0042.707 5z"></path></g></svg>