<svg xmlns="http://www.w3.org/2000/svg" viewBox="0 0 48 48" width="48px" height="48px"><g><path fill-rule="evenodd" d="M36.692 40.24c.953-4.411.009-10.527-2.004-16.61 3.933-2.155 6.688-4.038 8.27-5.645 2.262 8.153-.308 16.88-6.266 22.255M6.302 34.8c2.192-.125 5.375-.966 9.547-2.528 2.803 5.71 6.357 10.63 10.04 12.916-7.77.917-15.526-3.068-19.586-10.387m4.299-27.066c-1.165 5.39.509 13.334 3.49 20.634.2.49.41.975.622 1.46-5.343 1.953-8.68 2.634-9.634 2.392-3.46-8.75-.984-18.618 5.522-24.486M24.39 25.809a141.921 141.921 0 01-7.303 3.12 57.234 57.234 0 01-.693-1.615c-3.868-9.47-5.446-20.714-.752-22.904a.03.03 0 00.01-.004l.006-.002C20.366 2.273 27.034 11.19 30.9 20.662c.22.54.433 1.09.638 1.64a143.417 143.417 0 01-7.15 3.507m7.262 17.754l-.015.007c-4.033 1.813-9.487-4.452-13.401-12.227a166.501 166.501 0 007.16-3.1 166.753 166.753 0 007.019-3.4c2.672 8.347 3.254 16.848-.763 18.72M23.619 2.65c7.714 0 15.07 4.728 18.406 12.63-.49.903-3.241 3.015-8.247 5.809-.19-.495-.375-.992-.575-1.482-2.98-7.294-7.293-14.022-11.797-16.816a18.936 18.936 0 012.213-.141M44.43 14.458C39.49 2.36 26.21-3.238 14.778 1.917l-.018.006a.577.577 0 00-.052.022c-.02.008-.037.013-.056.022-.01.003-.017.008-.025.013-.017.008-.035.016-.05.025l-.028.013c-.007.004-.013.01-.021.014C3.157 7.332-2.08 21.42 2.862 33.517 6.558 42.564 14.917 47.98 23.679 47.98c2.948 0 5.94-.622 8.817-1.915.007-.004.014-.004.022-.008.026-.008.052-.02.076-.03a.417.417 0 00.037-.016l.01-.003c.026-.012.049-.028.073-.04a.373.373 0 00.04-.02l.004-.002c5.493-2.558 9.735-7.212 11.946-13.128a25.146 25.146 0 00-.273-18.361"></path></g></svg>