<svg xmlns="http://www.w3.org/2000/svg" viewBox="0 0 48 48" width="48px" height="48px"><g><path fill-rule="evenodd" d="M31.436 36.638l-8.486-7.273a1.414 1.414 0 00-1.841 2.146l5.57 4.774H1.414a1.414 1.414 0 000 2.83h25.294l-5.599 4.797a1.415 1.415 0 001.841 2.147l8.486-7.274a1.415 1.415 0 000-2.147m5.59-21.133a1.414 1.414 0 011.994-.153l8.486 7.274a1.415 1.415 0 010 2.146l-8.486 7.275a1.412 1.412 0 01-1.994-.153 1.416 1.416 0 01.153-1.995l5.405-4.63H1.435a1.415 1.415 0 010-2.83h41.51l-5.766-4.94a1.415 1.415 0 01-.153-1.994zM20.956 1.493a1.415 1.415 0 011.994-.153l8.486 7.273a1.417 1.417 0 010 2.148l-8.486 7.273a1.413 1.413 0 11-1.841-2.146l5.599-4.799H1.414a1.414 1.414 0 110-2.828h25.265l-5.57-4.775a1.414 1.414 0 01-.153-1.993z"></path></g></svg>