<svg xmlns="http://www.w3.org/2000/svg" viewBox="0 0 48 48" width="48px" height="48px"><g><path fill-rule="evenodd" d="M13.984 11.937c-.936.879-1.726 1.756-2.408 2.729-6.497 9.268-1.088 22.396 9.988 24.237 3.097.515 6.076.117 8.932-1.2.23-.106.437-.189.709-.105 3.722 1.156 7.481 1.18 11.265.359.383-.083.767-.162 1.15-.241-.58 1.066-1.367 1.99-2.213 2.862-3.761 3.874-8.274 6.284-13.59 7.128C15.583 49.647 3.766 41.79.76 29.695a24.959 24.959 0 01-.656-8.376c.067-.726.35-1.397.624-2.063 1.528-3.72 4.038-6.349 8.005-7.326 1.705-.42 3.423-.429 5.25.007zm8.995 13.224c1.367 4.018 1.699 7.517 4.707 10.8a12.3 12.3 0 01-4.96.6 13.91 13.91 0 01-2.985-.6c-.307-.096-.398-.25-.411-.565a11.2 11.2 0 01.562-4.056c.78-2.354 2.028-3.849 3.087-6.179zM40.384 6.607c3.745 3.474 6.066 7.78 7.084 12.77.537 2.634.778 5.33.191 7.958-.753 3.375-2.77 5.823-6.124 7-2.211.776-4.494.897-6.912.624 1.177-1.236 2.131-2.513 2.867-3.95 4.734-9.255-1.046-20.5-11.335-22.06a15.153 15.153 0 00-8.077.947c-.26.105-.463.117-.738-.036-3.938-2.19-7.955-2.343-12.043-.423-.22.103-.407.29-.752.283.325-.613.774-1.08 1.197-1.55 3.794-4.237 8.48-6.961 14.102-7.835 7.82-1.215 14.72.872 20.54 6.272zm-9.501 6.881c3.11 2.08 4.999 5.01 5.548 8.702.564 3.792-.436 7.194-2.909 10.152-.518.621-1.12 1.144-1.713 1.684-.317.289-.629.3-1.015.166-.933-.326-1.52-1.038-2.054-1.803-1.42-2.035-2.322-4.323-3.199-6.623-.776-2.034-1.212-4.167-1.882-6.233-.84-2.59-1.833-5.096-3.582-7.232-.066-.081-.117-.175-.19-.286.711-.321 1.45-.451 2.185-.549 3.184-.422 6.144.238 8.81 2.022zm-13.658.278c1.138.733 2 1.708 2.672 2.87.939 1.628 1.665 3.35 2.329 5.102.1.263.007.443-.099.648-1.289 2.524-2.584 5.044-3.863 7.572-.628 1.243-1.176 2.522-1.523 3.874-.106.412-.241.275-.448.11-2.549-2.027-4.13-4.636-4.722-7.838-.134-.72-.191-1.449-.207-2.459.116-3.874 1.758-7.264 5.031-9.855.308-.245.52-.224.83-.024z"></path></g></svg>