<svg xmlns="http://www.w3.org/2000/svg" viewBox="0 0 48 48" width="48px" height="48px"><g><path d="M6 2.6A3.4 3.4 0 002.6 6v36A3.4 3.4 0 006 45.4h36a3.4 3.4 0 003.4-3.4V6A3.4 3.4 0 0042 2.6H6zM42 0a6 6 0 016 6v36a6 6 0 01-6 6H6a6 6 0 01-6-6V6a6 6 0 016-6h36zM12.2 21.447c-4.095 1.165-6.971 4.94-6.971 9.285 0 5.325 4.285 9.647 9.578 9.647 4.652 0 8.543-3.335 9.401-7.784l6.31.001a3.658 3.658 0 003.15 1.804c2.026 0 3.668-1.656 3.668-3.7 0-2.044-1.642-3.7-3.669-3.7a3.672 3.672 0 00-3.5 2.595h-7.29a1.5 1.5 0 00-1.498 1.437c-.15 3.547-3.045 6.347-6.572 6.347-3.63 0-6.578-2.973-6.578-6.647 0-2.998 1.981-5.6 4.791-6.399a1.5 1.5 0 00-.82-2.886zM24.434 12c-2.043 0-3.7 1.67-3.7 3.731 0 2.06 1.657 3.732 3.7 3.732.217 0 .43-.019.636-.055l3.022 5.692a1.5 1.5 0 002.188.524 5.914 5.914 0 013.417-1.082c3.307 0 5.991 2.708 5.991 6.056s-2.684 6.055-5.991 6.055a5.92 5.92 0 01-3.707-1.298 1.5 1.5 0 00-1.87 2.345 8.919 8.919 0 005.577 1.953c4.97 0 8.991-4.056 8.991-9.055 0-5-4.021-9.056-8.991-9.056a8.914 8.914 0 00-3.678.79l-2.452-4.615a3.73 3.73 0 00.568-1.986c0-2.06-1.657-3.731-3.701-3.731zm-.11-5.134c-4.908 0-8.882 4.008-8.882 8.945 0 2.366.92 4.583 2.506 6.228l-2.496 5.024a3.69 3.69 0 00-.68-.063c-2.045 0-3.7 1.671-3.7 3.734 0 2.062 1.655 3.734 3.7 3.734 2.044 0 3.7-1.672 3.7-3.734 0-.707-.194-1.368-.533-1.932l3.2-6.444a1.5 1.5 0 00-.418-1.848 5.95 5.95 0 01-2.28-4.7c0-3.285 2.637-5.944 5.883-5.944 3.245 0 5.882 2.66 5.882 5.945a5.97 5.97 0 01-.222 1.623 1.5 1.5 0 002.888.812 8.978 8.978 0 00.334-2.435c0-4.937-3.974-8.945-8.882-8.945z"></path></g></svg>