<svg xmlns="http://www.w3.org/2000/svg" viewBox="0 0 48 48" width="48px" height="48px"><g><path fill-rule="evenodd" d="M34.999 33.942v-3.445l2.97-1.706v3.436l-2.97 1.715zm-10.176-9.305l13.146-7.59v8.08l-3.5-2.021a1.067 1.067 0 00-1.06 0l-5.087 2.938c-.224.129-.358.346-.44.585-.037.109-.09.213-.09.332v5.877c0 .378.203.728.53.917l3.5 2.02-7 4.04V24.638zm-15.264 4.16l2.97 1.715v3.43l-2.97-1.715v-3.43zM23.764 7.624l2.969 1.714-2.97 1.714-2.97-1.714 2.97-1.714zm1.059 5.263l1.827-1.055 1.143-.661v3.43l-2.97 1.716v-3.43zm-5.088-1.716l1.143.66 1.827 1.056v3.43l-2.97-1.716v-3.43zm4.03 11.632l-3.734-2.156-9.413-5.434 6.999-4.041v4.04c0 .379.202.729.529.918l5.088 2.938a1.063 1.063 0 001.059 0l5.089-2.938a1.06 1.06 0 00.529-.917v-4.041l6.999 4.04-13.145 7.59zm6.146 5.988l.849.487 2.12 1.219v3.445l-2.97-1.716V28.79zm4.028-.128l-2.965-1.704 2.965-1.712 2.966 1.712-2.966 1.704zm-20.35.015l-2.971-1.715 2.972-1.714 2.97 1.714-2.97 1.715zm1.059 1.834l2.97-1.714-.001 3.429-2.97 1.716v-3.431zm8.058 9.304l-6.998-4.04 3.499-2.021c.326-.19.528-.54.528-.917v-5.875l-.001-.01a1.033 1.033 0 00-.126-.467c-.022-.043-.05-.077-.08-.117a1.02 1.02 0 00-.257-.258c-.025-.018-.037-.05-.064-.065l-5.088-2.937a1.065 1.065 0 00-1.06 0l-3.5 2.02.002-8.081 10.925 6.307 2.22 1.282v15.179zm16.852-25.52L29.383 8.422l-.001-.001h-.002l-5.087-2.937a1.065 1.065 0 00-1.06 0L18.149 8.42h-.002L7.97 14.296a1.06 1.06 0 00-.53.917c0 .002.003.005.003.008L7.44 26.96v5.877c0 .379.202.729.529.917l5.09 2.939.015.009 10.16 5.864a1.057 1.057 0 001.059 0l10.175-5.873v-.001l5.089-2.938c.327-.188.529-.538.529-.917V15.213a1.06 1.06 0 00-.53-.917zm3.144 18.062c0 1.59-.855 3.07-2.232 3.865l-14.474 8.359a4.476 4.476 0 01-4.464-.001L7.055 36.223a4.474 4.474 0 01-2.231-3.865V15.642c0-1.59.855-3.071 2.231-3.865L21.531 3.42a4.458 4.458 0 012.232-.596c.771 0 1.543.198 2.231.596l14.476 8.357a4.474 4.474 0 012.232 3.865v16.716zm-.82-23.027L27.406.974a7.303 7.303 0 00-7.287 0L5.643 9.33A7.309 7.309 0 002 15.64v16.717a7.31 7.31 0 003.643 6.312l14.476 8.356a7.294 7.294 0 007.288 0l14.475-8.356a7.307 7.307 0 003.643-6.312V15.642a7.307 7.307 0 00-3.643-6.311z"></path></g></svg>