<svg xmlns="http://www.w3.org/2000/svg" viewBox="0 0 48 48" width="48px" height="48px"><g><path fill-rule="evenodd" d="M44.883 34.225a3.537 3.537 0 01-1.763 3.054l-10.7 6.177a3.53 3.53 0 01-3.525 0l-7.913-4.57-3.287-1.96a3.534 3.534 0 01-1.263-2.701V21.87c0-1.256.676-2.425 1.763-3.053l10.7-6.177a3.519 3.519 0 013.525 0l10.7 6.177a3.536 3.536 0 011.763 3.053v12.355zM13.315 21.87v12.355l.001.088-1.778-1.061a3.535 3.535 0 01-1.762-3.053V17.844c0-1.256.675-2.427 1.762-3.054l10.698-6.178c1.089-.627 2.441-.628 3.495-.02l1.923 1.176a6.996 6.996 0 00-.318.172l-10.7 6.177a6.66 6.66 0 00-3.321 5.753zM6.66 30.307l-1.778-1.081a3.534 3.534 0 01-1.764-3.053V13.818c0-1.256.676-2.426 1.764-3.054l10.699-6.178a3.52 3.52 0 013.501-.015l1.929 1.163a6.236 6.236 0 00-.332.178L9.98 12.09a6.664 6.664 0 00-3.322 5.754v12.355l.002.108zm38.019-14.19l-10.7-6.177a6.505 6.505 0 00-.51-.266c-.034-.024-.068-.05-.106-.071L28.251 6.48a1.517 1.517 0 00-.187-.136l-7.398-4.458a6.67 6.67 0 00-6.643 0L3.325 8.064A6.661 6.661 0 000 13.818v12.355c0 2.365 1.273 4.57 3.293 5.736l8.216 4.995c.098.059.2.106.304.142l4.087 2.439c.232.179.478.345.736.494l2.822 1.629 1.228.733c.08.047.162.085.245.117l6.405 3.699a6.653 6.653 0 003.321.885 6.66 6.66 0 003.322-.885l10.7-6.178A6.66 6.66 0 0048 34.225V21.87a6.66 6.66 0 00-3.321-5.753z"></path></g></svg>