<svg xmlns="http://www.w3.org/2000/svg" viewBox="0 0 48 48" width="48px" height="48px"><g><path fill-rule="evenodd" d="M35.044 5.792a3.538 3.538 0 013.534-3.534 3.539 3.539 0 013.536 3.534 3.54 3.54 0 01-3.536 3.537 3.54 3.54 0 01-3.534-3.537m5.039 19.661V11.387a5.802 5.802 0 004.289-5.595A5.8 5.8 0 0038.578 0a5.8 5.8 0 00-5.792 5.792 5.805 5.805 0 004.287 5.595v14.067a5.368 5.368 0 00-3.854 5.143 5.368 5.368 0 005.359 5.362 5.368 5.368 0 005.362-5.362 5.368 5.368 0 00-3.857-5.144m-19.432-13.64a3.539 3.539 0 013.535-3.535 3.54 3.54 0 013.536 3.535 3.541 3.541 0 01-3.536 3.537 3.54 3.54 0 01-3.535-3.537m9.329 0a5.8 5.8 0 00-5.794-5.792 5.798 5.798 0 00-5.792 5.792c0 2.674 1.82 4.93 4.286 5.594v14.068a5.369 5.369 0 00-3.855 5.143 5.368 5.368 0 005.36 5.362 5.368 5.368 0 005.362-5.362 5.366 5.366 0 00-3.857-5.143V17.407a5.803 5.803 0 004.29-5.594M6.258 17.834a3.54 3.54 0 013.534-3.535 3.54 3.54 0 013.537 3.535 3.541 3.541 0 01-3.537 3.536 3.54 3.54 0 01-3.534-3.536m9.329 0c0-3.194-2.6-5.793-5.795-5.793A5.8 5.8 0 004 17.834a5.803 5.803 0 004.287 5.594v14.067a5.37 5.37 0 00-3.854 5.144A5.366 5.366 0 009.793 48a5.366 5.366 0 005.36-5.361 5.367 5.367 0 00-3.855-5.144V23.429a5.805 5.805 0 004.289-5.595"></path></g></svg>