<svg xmlns="http://www.w3.org/2000/svg" viewBox="0 0 48 48" width="48px" height="48px"><g><path fill-rule="evenodd" d="M40.698 3a4.22 4.22 0 014.214 4.214 4.219 4.219 0 01-4.214 4.213 4.219 4.219 0 01-4.215-4.213A4.22 4.22 0 0140.698 3M2.5 8.714h31.145c.694 3.259 3.59 5.713 7.053 5.713 3.978 0 7.214-3.236 7.214-7.213C47.912 3.236 44.676 0 40.698 0c-3.463 0-6.359 2.454-7.053 5.714H2.5a1.5 1.5 0 100 3M28.24 45a4.22 4.22 0 01-4.214-4.214 4.219 4.219 0 014.214-4.213 4.219 4.219 0 014.214 4.213A4.22 4.22 0 0128.24 45m18.172-5.714h-11.12c-.693-3.259-3.589-5.713-7.052-5.713-3.463 0-6.359 2.454-7.052 5.713H2.5a1.5 1.5 0 000 3h18.688c.693 3.26 3.59 5.714 7.052 5.714 3.463 0 6.36-2.454 7.052-5.714h11.12a1.5 1.5 0 100-3M16.295 28.214A4.22 4.22 0 0112.081 24a4.22 4.22 0 014.214-4.214A4.219 4.219 0 0120.508 24a4.219 4.219 0 01-4.213 4.214M46.412 22.5H23.347c-.694-3.26-3.589-5.714-7.052-5.714-3.463 0-6.359 2.455-7.052 5.714H2.5a1.5 1.5 0 000 3h6.743c.693 3.259 3.589 5.714 7.052 5.714 3.463 0 6.358-2.455 7.052-5.714h23.065a1.5 1.5 0 000-3"></path></g></svg>