<svg xmlns="http://www.w3.org/2000/svg" viewBox="0 0 48 48" width="48px" height="48px"><g><path fill-rule="evenodd" d="M39.616 4.001c-2.638-.047-4.8 1.46-4.48 2.585.173.094.667 1.218 1.28 1.94.139.401.914-.125 1.28 0 .74-.722 1.609-.866 2.56-.647 1 .02 2.269.618 3.201 2.586 1.912 3.723-4.246 11.923-12.163 6.463-7.502-5.897-15-4.032-18.564-2.585-3.229.849-4.804 1.996-3.201 4.524 1.57 3.737.96 2.637 2.56 5.817 2.959 4.566 9.117-2.391 8.963-2.585-4.43 7.2-8.354 5.502-9.603 3.232-1.619-2.369-2.677-4.927-2.56-5.171C-2.815 24.66.31 43.285.567 43.429h5.761c1.199-7.03 6.464-6.743 7.042 0h4.481c4.107-13.557 13.956-.024 14.083 0h5.762c-1.752-9.206 3.066-12.099 6.401-17.452 2.776-5.43 5.667-12.029 2.56-18.098-1.876-2.897-4.908-3.829-7.04-3.878zM26.813 22.1c.17 0 .846.23 1.92.646-.105.18-.447 1.808 1.28 1.94.6-.132 1.073-.613 1.281-1.293.31.267.784.427 1.28.646-.202.79-1.803 2.465-3.84 1.94-2.722-1.08-1.752-3.88-1.92-3.88z"></path></g></svg>