<svg xmlns="http://www.w3.org/2000/svg" viewBox="0 0 48 48" width="48px" height="48px"><g><path fill-rule="evenodd" d="M6.776 34.935c-3.388 0-6.352 2.84-6.352 6.39 0 3.409 2.964 6.249 6.352 6.249 3.53 0 6.353-2.84 6.353-6.249 0-3.55-2.823-6.39-6.353-6.39zm-1.835-17.61H2.26C.989 17.467.14 18.462 0 19.74v4.544h.141c.141 1.136.988 1.988 2.118 2.13H4.94c9.177 0 16.659 7.527 16.8 16.758v2.556c.141 1.278 1.13 2.13 2.4 2.272h4.518v-.142c1.13-.142 1.976-.994 2.117-2.13v-2.556C30.636 28.97 19.06 17.325 4.941 17.325zM48 43.172C47.859 19.456 28.518 0 4.941 0H2.26v.142C.989.284.14 1.278 0 2.556V6.96h.141c.141 1.136.988 2.13 2.118 2.272H4.94c18.635 0 33.883 15.195 33.883 33.94v2.557c.14 1.278 1.27 2.13 2.4 2.272h4.517v-.142c1.13-.142 1.977-.994 2.118-2.13H48v-2.556z"></path></g></svg>