<svg xmlns="http://www.w3.org/2000/svg" viewBox="0 0 48 48" width="48px" height="48px"><g><path fill-rule="evenodd" d="M31.403 23.038l-11.185-6.97a.753.753 0 00-1.152.644c.02 3.125.066 10.758.036 13.907a.754.754 0 001.153.646l11.148-6.948a.753.753 0 000-1.28M5.293 8.825c-1.338 0-2.47 1.524-2.47 3.331v23.023c0 1.806 1.132 3.332 2.47 3.332h37.414c1.338 0 2.469-1.526 2.469-3.332V12.155c0-1.807-1.131-3.331-2.469-3.331H5.293zm37.414 32.509H5.293C2.375 41.333 0 38.571 0 35.178V12.155C0 8.762 2.375 6 5.293 6h37.414C45.625 6 48 8.762 48 12.155v23.023c0 3.393-2.375 6.155-5.293 6.155z"></path></g></svg>