<svg xmlns="http://www.w3.org/2000/svg" viewBox="0 0 48 48" width="48px" height="48px"><g><path fill-rule="evenodd" d="M34.62 3.573l.069.023c1.057.377 2.263.72 3.43 1.052 1.763.502 3.587 1.02 5.049 1.695.822.379 3.568 1.805 4.37 4.231.835 2.523.536 5.283-.886 8.211a1.25 1.25 0 01-.095.33 4.199 4.199 0 01-.3.56L36.722 44.18a1.246 1.246 0 01-.117.303l-.036.09a1.25 1.25 0 01-1.05.79 1.198 1.198 0 01-.483.022 1.245 1.245 0 01-.48-.18l-28.093-6.52a1.243 1.243 0 01-.602-.336c-2.5-.887-4.335-2.432-5.363-4.598-1.43-3.018.476-8.434 2.55-13.721l.033-.086c.262-1.612 1.148-3.388 2.63-5.222 2.357-2.914 6.005-5.727 10.272-7.92 5.057-2.6 9.95-3.874 13.758-3.799 2.706-.055 4.787.543 4.88.57zM23.76 37.62l8.67 3.7-3.85-6.148c-1.099.786-2.906 1.92-4.82 2.448zm7.132-3.46l3.69 5.891 1.333-8.747c-1.358 1.184-2.968 2.2-5.023 2.856zm-11.964 4.269l-.04.002a1.244 1.244 0 01-1.355.194l-.156.03 5.505 1.276-3.623-1.522c-.12.008-.23.015-.331.02zM15 27.659l-6.115 8.886c2.656.398 5.563.088 7.683-.284L15 27.659zm2.491-.262l1.534 8.416c.206-.035.423-.02.632.056.913-.085 2.131-.258 3.239-.603l.064-.018c1.275-.325 2.544-1.027 3.494-1.648l-8.963-6.203zM2.755 32.681c.526 1.11 1.321 1.939 2.285 2.547L4.056 24.44c-1.074 3.062-2.059 6.643-1.301 8.24zm3.925-6.878l.732 8.3 5.482-7.827a20.9 20.9 0 01-1.19.105c-.364.021-.718.032-1.063.032-1.522 0-2.853-.208-3.96-.61zm32.25 2.296l-.881 5.779 2.708-6.956a12 12 0 01-1.828 1.177zm-8.024-7.206l-.851 10.913c2.794-.865 4.58-2.51 6.237-4.463l-5.386-6.45zm-6.784 1.744a38.815 38.815 0 01-5.676 2.383l9.139 6.325.88-11.283a40.583 40.583 0 01-4.343 2.575zm8.914-3.09l5.114 6.127c.937-.552 2.823-1.89 3.76-4.142l-8.874-1.985zM29.452 5.524c-3.204 0-7.607 1.073-12.328 3.5-3.965 2.038-7.328 4.619-9.47 7.269-1.892 2.34-2.584 4.445-1.9 5.777.685 1.331 2.797 1.995 5.804 1.817 3.401-.2 7.458-1.433 11.422-3.471 2.23-1.147 4.173-2.411 5.8-3.701.097-.115.215-.21.346-.282 4.277-3.498 6.216-7.134 5.224-9.064-.61-1.184-2.384-1.845-4.898-1.845zm9.218 5.749l4.955 7.665c.144-.127.288-.275.411-.439l.098-.257a1.09 1.09 0 01.058-.128c.674-1.283 1.088-2.508 1.24-3.668l-6.762-3.173zm-6.217 5.585l8.01 1.791-4.279-6.619c-.787 1.583-2.056 3.225-3.73 4.828zm4.604-9.103l8.174 3.81a6.453 6.453 0 00-.064-.206c-.362-1.095-1.79-2.17-3.045-2.748-1.286-.593-3.015-1.085-4.688-1.56l-.585-.168c.096.283.165.574.208.872z"></path></g></svg>