<svg xmlns="http://www.w3.org/2000/svg" viewBox="0 0 48 48" width="48px" height="48px"><g><path fill-rule="evenodd" d="M10.422 35.258c.404-.321.982-.33 1.398-.007.34.266.644.573.906.915 1.574 2.046 1.31 4.97-.512 6.797l-3.53 3.544a5.1 5.1 0 01-7.478-.29c-1.752-2.046-1.56-5.116.35-7.017l3.514-3.543.048-.038a.242.242 0 01.365.24 6.036 6.036 0 00.19 2.225.909.909 0 01-.24.873l-2.14 2.144a2.528 2.528 0 00.22 3.765 2.557 2.557 0 003.39-.243l3.454-3.457a2.684 2.684 0 00.697-2.668 2.378 2.378 0 00-.645-1.059 1.463 1.463 0 01-.182-1.989c.03-.036.063-.07.098-.105zM42.814 0a5.18 5.18 0 013.668 1.523A5.203 5.203 0 0148 5.199v33.789a5.191 5.191 0 01-5.186 5.197h-26.03a1.294 1.294 0 01-1.276-1.148l-.009-.131a1.301 1.301 0 011.295-1.32h26.02a2.59 2.59 0 001.834-.76 2.6 2.6 0 00.76-1.838V5.198a2.597 2.597 0 00-2.594-2.599H9.102a2.597 2.597 0 00-2.594 2.6v25.267a1.297 1.297 0 01-1.153 1.292l-.132.008a1.294 1.294 0 01-1.307-1.298V5.2a5.203 5.203 0 011.518-3.677A5.18 5.18 0 019.102 0h33.712zm-31.36 29.268a5.09 5.09 0 014.934-1.315 5.104 5.104 0 013.597 3.63 5.116 5.116 0 01-1.347 4.935l-3.576 3.584-.048.037a.242.242 0 01-.365-.238c.08-.78.01-1.566-.208-2.318a.692.692 0 01.172-.682l2.235-2.24a2.536 2.536 0 00-.665-4.054 2.498 2.498 0 00-2.903.489l-3.511 3.53a2.634 2.634 0 00-.724 2.478c.11.489.369.931.741 1.265.453.395.597 1.039.355 1.59a1.56 1.56 0 01-.32.459l-.039.038c-.383.38-.987.42-1.415.09A5.228 5.228 0 017 38.972a5.123 5.123 0 01.886-6.125zM28.23 7.785c6.006 0 13.988.574 13.988 5.64 0 4.404-5.365 11.065-12.69 11.783v7.626a3.815 3.815 0 01-2.388 3.581c-.477.2-.989.304-1.506.306v-.004a3.816 3.816 0 01-2.712-1.148 1.304 1.304 0 01.034-1.806 1.297 1.297 0 011.802-.034 1.272 1.272 0 002.175-.903V9.083a1.3 1.3 0 011.297-1.298zm-4.538-.004a1.294 1.294 0 011.297 1.298v14.89c0 .673-.51 1.227-1.165 1.293l-.132.007c-7.98 0-13.988-7.186-13.988-11.847 0-4.98 7.739-5.622 13.71-5.64h.278zm5.835 2.611v12.199c5.91-.724 10.097-6.215 10.097-9.169 0-1.786-3.746-2.898-10.097-3.03z"></path></g></svg>