<svg xmlns="http://www.w3.org/2000/svg" viewBox="0 0 48 48" width="48px" height="48px"><g><path fill-rule="evenodd" d="M35.75 21.994H12.446V38.88c0 4.299.137 4.11 4.118 4.11h14.64c4.306 0 4.546-.095 4.546-4.11V21.994zm-20.69-3.01h18.633v-5.267c0-5.55-4.832-8.867-9.78-8.867-5.418 0-8.853 3.646-8.853 8.867v5.266zm32.574 13.294L42.61 36.55c-.491.378-.887.182-.887-.44v-2.83a.572.572 0 00-.567-.567H38.77v8.1c0 4.033-1.452 5.186-5.87 5.186H15.338c-4.44 0-5.912-1.153-5.912-5.186v-8.079H6.969a.583.583 0 00-.577.578v2.88c0 .636-.404.834-.903.45L.373 32.29c-.496-.383-.499-1.008 0-1.392l5.116-4.354c.497-.382.903-.184.903.449v2.88a.58.58 0 00.577.578h2.456v-9.006a2.456 2.456 0 012.445-2.462h.447v-5.7c0-4.882 2.719-8.764 6.895-10.418 1.417-.56 3-.865 4.701-.865C30.9 2 36.372 6.956 36.372 13.282v5.701a2.457 2.457 0 012.398 2.462v9.027h2.387a.57.57 0 00.567-.568v-2.828c0-.621.399-.815.887-.44l5.023 4.275c.49.377.487.99 0 1.367zm-26.757-2.524c0-1.73 1.397-3.13 3.122-3.13 1.724 0 3.124 1.4 3.124 3.13a3.118 3.118 0 01-1.561 2.693v2.839c0 .705-.571 1.278-1.278 1.278h-.57a1.275 1.275 0 01-1.275-1.278v-2.839a3.111 3.111 0 01-1.562-2.693z"></path></g></svg>