<svg xmlns="http://www.w3.org/2000/svg" viewBox="0 0 48 48" width="48px" height="48px"><g><path fill-rule="evenodd" d="M31.273 27.21a1.413 1.413 0 001.997 0 1.412 1.412 0 000-1.996l-8.555-8.554a1.408 1.408 0 00-2 0l-8.554 8.554a1.41 1.41 0 000 1.996 1.41 1.41 0 001.996 0l6.146-6.146v25.524a1.412 1.412 0 102.824 0V21.064l6.146 6.146zm9.341-18.637L27.53 1.02a7.651 7.651 0 00-7.631 0L6.815 8.573A7.655 7.655 0 003 15.181v15.11a7.654 7.654 0 003.815 6.607l8.95 5.168a1.42 1.42 0 001.929-.517 1.41 1.41 0 00-.517-1.929l-8.951-5.168a4.823 4.823 0 01-2.403-4.162V15.181c0-1.71.922-3.305 2.403-4.162l13.085-7.553a4.803 4.803 0 014.808 0l13.084 7.553a4.824 4.824 0 012.403 4.162v15.11a4.823 4.823 0 01-2.403 4.161l-8.964 5.175a1.412 1.412 0 001.412 2.446l8.963-5.175a7.652 7.652 0 003.815-6.608V15.181a7.653 7.653 0 00-3.815-6.608"></path></g></svg>