<svg xmlns="http://www.w3.org/2000/svg" viewBox="0 0 48 48" width="48px" height="48px"><g><path fill-rule="evenodd" d="M28.302 23.733v.907l12.662 6.219a1.411 1.411 0 11-1.244 2.533l-11.418-5.607V39.9a1.411 1.411 0 11-2.824 0V8.801a1.412 1.412 0 112.824 0V20.62l11.444-5.324a1.409 1.409 0 011.875.684c.33.707.024 1.547-.684 1.875l-12.635 5.878zm-8.199 13.488a1.3 1.3 0 010-.308v.308zm1.412-4.398a4.249 4.249 0 00-4.244 4.244 4.249 4.249 0 004.244 4.243c.78 0 1.412-.631 1.412-1.412v-5.663c0-.78-.632-1.412-1.412-1.412zm-1.412-21.088a1.325 1.325 0 010-.309v.309zm1.412-4.398a4.249 4.249 0 00-4.244 4.244 4.249 4.249 0 004.244 4.243 1.41 1.41 0 001.412-1.411V8.749c0-.781-.632-1.412-1.412-1.412zM10.491 32.116a1.42 1.42 0 010-2.84c.545 0 1.019.309 1.257.76l.014.033.016.029a1.421 1.421 0 01-1.287 2.018zm9.593-5.017a4.496 4.496 0 01-.465-.751 1.249 1.249 0 00-.083-.178 4.582 4.582 0 01-.386-1.846c0-1.018.333-1.975.914-2.748l.02 5.523zm-9.593-7.726a1.42 1.42 0 010-2.84 1.421 1.421 0 011.311 1.967c-.01.018-.021.036-.03.055l-.018.045a1.422 1.422 0 01-1.263.773zm7.253 9.316a7.38 7.38 0 003.239 2.502 1.409 1.409 0 001.934-1.316l-.039-11.096a1.411 1.411 0 00-1.944-1.303 7.395 7.395 0 00-3.1 2.366l-3.12-1.465a4.248 4.248 0 00-4.223-4.667 4.248 4.248 0 00-4.243 4.243 4.248 4.248 0 004.243 4.243 4.226 4.226 0 003.019-1.265l3.075 1.445a7.441 7.441 0 00-.036 3.755l-3.097 1.529a4.23 4.23 0 00-2.961-1.207 4.248 4.248 0 00-4.243 4.243 4.248 4.248 0 004.243 4.243 4.248 4.248 0 004.213-4.748l3.04-1.502zm27.433 13.663a2.827 2.827 0 01-2.824 2.824H5.648a2.827 2.827 0 01-2.824-2.824V5.647a2.827 2.827 0 012.824-2.824h36.705a2.827 2.827 0 012.824 2.824v36.705zM42.353 0H5.648A5.653 5.653 0 000 5.647v36.705A5.654 5.654 0 005.648 48h36.705A5.653 5.653 0 0048 42.352V5.647A5.652 5.652 0 0042.353 0z"></path></g></svg>