<svg xmlns="http://www.w3.org/2000/svg" viewBox="0 0 48 48" width="48px" height="48px"><g><path fill-rule="evenodd" d="M38.668 43.987l-28.53.005c-3.484 0-6.382-2.494-6.971-5.765a10.174 10.174 0 006.972 2.756l28.48-.006a9.089 9.089 0 006.285-2.22c-.35 2.942-2.89 5.235-5.965 5.235l-.271-.005zm.27-6.012l-.27-.005-28.53.005c-3.484 0-6.382-2.493-6.971-5.764a10.174 10.174 0 006.972 2.757h28.799c2.285 0 4.37-.846 5.966-2.228-.35 2.943-2.89 5.235-5.965 5.235zM9.564 16.388a10.067 10.067 0 01-.267-2.303c0-5.556 4.558-10.077 10.16-10.077 3.587 0 6.947 1.909 8.765 4.982a1.54 1.54 0 001.885.638c.841-.332 1.73-.5 2.642-.5 3.908 0 7.087 3.133 7.087 6.986 0 .773-.127 1.533-.38 2.26-.136.393-.1.825.098 1.193.198.368.543.636.95.745 2.617.694 4.445 3.046 4.445 5.722 0 3.268-2.695 5.925-6.01 5.925l-.22-.004a1.805 1.805 0 00-.171.004H10.139c-3.908 0-7.087-3.134-7.087-6.986 0-3.227 2.215-6.017 5.389-6.784.81-.198 1.311-1 1.122-1.801zM48 25.05c0-3.951-2.72-5.978-5.278-7.136a9.934 9.934 0 00.164-1.8c0-5.511-4.548-9.995-10.138-9.995-.874 0-1.735.11-2.569.324A13.316 13.316 0 0019.456 1C12.17 1 6.245 6.87 6.245 14.085c0 .54.034 1.08.1 1.615C2.595 17.182.07 20.745.006 24.816L0 30.892v6.113C0 42.517 4.547 47 10.139 47l28.48-.006c.105.004.213.006.32.006C43.935 47 48 42.993 48 38.067V25.05z"></path></g></svg>