<svg xmlns="http://www.w3.org/2000/svg" viewBox="0 0 48 48" width="48px" height="48px"><g><path fill-rule="evenodd" d="M41.637 12.25c2.967 0 4.526 2.49 5.436 5.436 1.042 4.96 1.092 8.407 0 11.65-1.243 3.821-2.473 6.141-5.436 6.213H24.55v1.554h10.874v6.213c0 2.718-2.63 2.954-5.437 3.883-4.358 1.162-7.808.97-11.65 0-2.758-.985-5.437-2.808-5.437-6.213V30.113c0-2.85 3.106-5.352 5.97-5.26h11.672c3.728-.092 7.267-3.407 7.212-6.99v-5.436zM30.076 38.611c-.817 0-1.864 1.038-1.864 2.33 0 1.281 1.047 2.33 1.864 2.33 1.753 0 2.796-1.049 2.796-2.33 0-1.292-1.043-2.33-2.796-2.33zM24.306 0c1.97-.008 4 .141 6.213.777 2.834.215 5.437 2.562 5.437 5.437v10.873c0 3.572-2.527 5.99-5.437 5.991H18.87c-3.842-.001-7.849 3.412-7.744 7.047v5.602h-3.13c-3.446 0-5.378-2.432-6.213-6.213-1.067-4.217-1.02-6.957 0-11.65.931-3.529 3.83-5.542 6.99-5.437h15.533v-1.553H13.433v-4.66c-.238-3.077.637-4.881 5.437-5.437C20.524.177 22.384.01 24.306 0zm-5.97 3.884a2.333 2.333 0 00-2.33 2.33 2.33 2.33 0 102.33-2.33z"></path></g></svg>