<svg xmlns="http://www.w3.org/2000/svg" viewBox="0 0 16 16" width="16px" height="16px"><g><path fill-rule="evenodd" d="M5.708 8.794l1.33 1.393-2.173 1.99a.31.31 0 00.005.441l1.136 1.136c.253.253.176.486-.166.52l-4.29.42a.497.497 0 01-.564-.564l.42-4.29c.034-.345.262-.423.52-.166L3.06 10.81a.314.314 0 00.44.005l2.207-2.02zm4.605.02l2.185 2a.314.314 0 00.44-.004l1.137-1.136c.257-.257.485-.18.52.166l.419 4.29a.497.497 0 01-.564.563l-4.29-.42c-.342-.033-.419-.266-.166-.519l1.136-1.136a.31.31 0 00.005-.44l-2.153-1.972 1.331-1.392zM1.548 1.307l4.29.42c.345.033.423.262.166.519L4.868 3.382a.314.314 0 00-.005.44l2.175 1.992-1.33 1.392L3.5 5.186a.31.31 0 00-.44.004L1.924 6.326c-.253.253-.486.176-.52-.166l-.42-4.29a.497.497 0 01.564-.563zm13.467.563l-.42 4.29c-.033.342-.266.42-.519.166L12.94 5.19a.31.31 0 00-.44-.005l-2.186 2.002-1.331-1.392 2.154-1.973a.314.314 0 00-.005-.44L9.996 2.246c-.257-.257-.18-.486.166-.52l4.29-.42a.497.497 0 01.563.564z"></path></g></svg>