<svg xmlns="http://www.w3.org/2000/svg" viewBox="0 0 16 16" width="16px" height="16px"><g><path fill-rule="evenodd" d="M4.666 8.612l2.975-.797-.52-1.942a22.65 22.65 0 01-2.685.521 8.57 8.57 0 00.23 2.218zm.154.577c.224.738.527 1.409.882 1.99a22.63 22.63 0 012.6-.898l-.506-1.89-2.976.798zm6.224-2.286a8.578 8.578 0 00-.9-2.018c-.754.308-1.58.59-2.446.834l.52 1.941 2.826-.757zm.154.577l-2.825.757.506 1.89c.877-.224 1.74-.393 2.551-.504a8.602 8.602 0 00-.232-2.143zm2.631-.705l-1.97.528a9.44 9.44 0 01.26 2.24c.425-.042.831-.065 1.213-.07.201-.002.344.052.401.138.254-.9.3-1.868.096-2.836zm-.152-.577a5.917 5.917 0 00-1.517-2.46c-.007.104-.104.222-.279.32-.337.189-.705.374-1.098.552.375.628.69 1.342.922 2.116l1.972-.528zM2.34 9.854c.307.94.831 1.756 1.501 2.408.007-.104.104-.222.279-.32.294-.165.61-.326.948-.483a9.429 9.429 0 01-.908-2.093l-1.82.488zm-.157-.576l1.823-.489a9.406 9.406 0 01-.26-2.32 14.29 14.29 0 01-1.077.058c-.2.002-.344-.052-.401-.138a5.917 5.917 0 00-.085 2.889zm6.98 4.209l-.69-2.574c-.86.243-1.669.528-2.385.834.91 1.213 2.055 1.888 3.074 1.74zm.57-.179c.882-.438 1.481-1.562 1.65-3a19.82 19.82 0 00-2.334.45l.683 2.55zM6.275 2.72c-.945.377-1.594 1.51-1.785 2.989a19.74 19.74 0 002.46-.468l-.675-2.52zm.583-.13l.67 2.496a19.964 19.964 0 002.228-.767c-.86-1.135-1.927-1.791-2.898-1.73zm6.776 7.336c-.169.152-.474.265-.755.268-.252.004-.517.017-.795.039-.11 1.171-.477 2.19-1.066 2.903a5.978 5.978 0 002.616-3.21zm-9.552 2.56a5.984 5.984 0 003.596 1.462c-.814-.337-1.589-1.006-2.234-1.907-.202.098-.394.198-.574.3-.245.137-.566.192-.788.144zm7.833-8.972a5.976 5.976 0 00-4.006-1.47c.908.289 1.78.996 2.494 1.988.258-.122.5-.247.725-.373.245-.137.566-.192.787-.145zm-9.55 2.56c.168-.152.474-.265.754-.269.213-.002.435-.012.667-.028.12-1.148.49-2.145 1.076-2.84a5.982 5.982 0 00-2.497 3.137zM1.24 9.81a6.998 6.998 0 1113.52-3.62A6.998 6.998 0 011.24 9.81z"></path></g></svg>