<svg xmlns="http://www.w3.org/2000/svg" viewBox="0 0 16 16" width="16px" height="16px"><g><path fill-rule="evenodd" d="M8.99 13c.558 0 .796.386.489.86 0 0-.475 1.14-1.475 1.14s-1.48-1.14-1.48-1.14c-.289-.475-.08-.86.485-.86h1.982zM8 1c.634 0 1.147.495 1.147 1.105 0 .17-.04.332-.111.476C11.577 3.143 12 5.78 12 7c0 1.368 2 3 2.5 4.366.134.366-.516.634-1 .634h-11c-.482 0-1.137-.26-1-.634C2 10 4 8.368 4 7c0-1.219.423-3.857 2.964-4.42a1.068 1.068 0 01-.111-.475C6.853 1.495 7.366 1 8 1z"></path></g></svg>