<svg xmlns="http://www.w3.org/2000/svg" viewBox="0 0 16 16" width="16px" height="16px"><g><path fill-rule="evenodd" d="M10.967 2.846l4.067 2.232c.598.328.966.934.966 1.59v4.464a1.82 1.82 0 01-.966 1.59l-4.067 2.232a2.02 2.02 0 01-1.933 0l-4.067-2.232A1.822 1.822 0 014 11.132V6.668c0-.656.368-1.262.967-1.59l4.067-2.232a2.023 2.023 0 011.933 0zM7.453 1.254a2.288 2.288 0 012.095 0l.432.226a2.44 2.44 0 00-1.107.273l-4.745 2.48C3.43 4.598 3 5.27 3 6v5.418c-.62-.344-1-.955-1-1.615V5.197c0-.677.399-1.302 1.047-1.64zm-2-1a2.288 2.288 0 012.095 0L7.98.48a2.44 2.44 0 00-1.107.273l-4.745 2.48C1.43 3.598 1 4.27 1 5v5.418c-.62-.344-1-.955-1-1.615V4.197c0-.677.399-1.302 1.047-1.64z"></path></g></svg>