<svg xmlns="http://www.w3.org/2000/svg" viewBox="0 0 16 16" width="16px" height="16px"><g><path fill-rule="evenodd" d="M12.125 8.976a4.066 4.066 0 01-.671 1.744 4.129 4.129 0 01-.957.964 4.359 4.359 0 01-2.312.842c-.044.002-.086.01-.13.012-.136.005-.274-.007-.411-.015a4.025 4.025 0 01-1.149-.233c-.086-.03-.173-.056-.258-.093a4.251 4.251 0 01-.68-.36 4.2 4.2 0 01-.606-.492c-.065-.064-.123-.133-.184-.2a3.993 3.993 0 01-.48-.645 4.015 4.015 0 01-.166-.314c-.06-.122-.121-.243-.168-.37-.014-.04-.022-.08-.036-.122a4.126 4.126 0 01-.061-2.415c.119-.427.291-.844.557-1.23 1.31-1.895 3.943-2.396 5.882-1.125L9.178 6.54 14 6.478 12.314 2l-1.075 1.557c-2.707-1.781-6.391-1.081-8.22 1.568-1.835 2.656-1.123 6.279 1.587 8.077s6.408 1.1 8.242-1.556a5.7 5.7 0 00.99-2.696l-1.713.026z"></path></g></svg>