<svg xmlns="http://www.w3.org/2000/svg" viewBox="0 0 16 16" width="16px" height="16px"><g><path fill-rule="evenodd" d="M3.793 7a4.507 4.507 0 015.503-3.174 4.507 4.507 0 013.178 5.504 4.507 4.507 0 01-5.504 3.177l-.372-.1-.017.063c-.304.018-.579.177-.653.456l-.539.52c-.091.341.175.712.578.82l.155.041c.116.064.209.09.333.122 3.41.914 6.965-1.19 7.88-4.6.913-3.411-1.13-6.95-4.54-7.863-3.41-.914-6.949 1.128-7.863 4.539 0 0-.078.216-.16.495H.559c-.353 0-.642.13-.32.653 0 0 2.439 3.263 2.76 3.263.32 0 2.76-3.263 2.76-3.263.29-.425.032-.653-.385-.653h-1.58z"></path></g></svg>