<svg xmlns="http://www.w3.org/2000/svg" viewBox="0 0 16 16" width="16px" height="16px"><g><path fill-rule="evenodd" d="M12.676 4.412l.338.225c.588.455.91.958.99 1.538.616-.116 1.416-.031 1.764.202l.322.215-.055.113c-.1.207-.134.273-.149.298-.572 1.093-1.686 1.1-2.204 1.09C12.367 11.271 11.5 14 7 14 2 14 .947 8.581 1.046 8H12c-.006-1.902.088-2.998.28-3.289l.396-.299zM3 6v1H2V6h1zm2 0v1H4V6h1zm2 0v1H6V6h1zm2 0v1H8V6h1zm2 0v1h-1V6h1zM5 4v1H4V4h1zm2 0v1H6V4h1zm2 0v1H8V4h1zm0-2v1H8V2h1z"></path></g></svg>