<svg xmlns="http://www.w3.org/2000/svg" viewBox="0 0 16 16" width="16px" height="16px"><g><path fill-rule="evenodd" d="M8.533.143a1.426 1.426 0 011.782.91l.46 1.414 1.427-.464a1.426 1.426 0 011.782.91 1.426 1.426 0 01-.91 1.783l-1.425.462.963 2.972 1.437-.468a1.426 1.426 0 011.782.91 1.426 1.426 0 01-.91 1.782l-1.436.468c.287.889.473 1.465.473 1.47.247.73-.208 1.523-.963 1.744a1.41 1.41 0 01-1.717-.872l-.478-1.469-2.973.967c.287.886.472 1.459.472 1.465.247.728-.208 1.522-.962 1.743a1.41 1.41 0 01-1.717-.872l-.477-1.464c-.891.29-1.469.476-1.475.476-.728.247-1.522-.208-1.743-.963a1.41 1.41 0 01.872-1.717l1.473-.48-.97-2.983c-.813.263-1.364.44-1.453.468l-.013.003C1.106 8.585.312 8.13.091 7.376a1.41 1.41 0 01.872-1.717l1.464-.477-.463-1.423a1.426 1.426 0 01.784-1.733l.127-.049a1.426 1.426 0 011.782.91l.46 1.42 2.966-.965-.46-1.417A1.426 1.426 0 018.406.192zm.426 5.889l-2.969.963.967 2.98 2.968-.97z"></path></g></svg>