<svg xmlns="http://www.w3.org/2000/svg" viewBox="0 0 16 16" width="16px" height="16px"><g><path fill-rule="evenodd" d="M8 0a8 8 0 110 16A8 8 0 018 0zm0 .917C4.08.917.9 4.067.9 7.78c0 3.282 2.034 5.92 4.856 6.85.355.065.272-.152.272-.34 0-.166.003-.648 0-1.235-1.975.425-2.189-.904-2.189-.904-.323-.813-.788-1.029-.788-1.029-.645-.437.048-.428.048-.428.713.05 1.088.726 1.088.726.634 1.075 1.662.764 2.066.584.065-.455.248-.765.451-.94-1.577-.178-3.234-.782-3.234-3.478 0-.768.277-1.396.73-1.888-.072-.178-.316-.893.07-1.862 0 0 .597-.19 1.953.721A6.861 6.861 0 018 4.32c.603.002 1.21.08 1.778.236 1.355-.91 1.95-.72 1.95-.72.388.968.144 1.683.071 1.861.455.492.73 1.12.73 1.888 0 2.703-1.66 3.298-3.242 3.472.255.217.685.733.685 1.39v1.843c0 .456-.084.407.277.338 2.819-.932 4.851-3.567 4.851-6.675 0-3.845-3.113-6.97-6.978-7.035H8z"></path></g></svg>