<svg xmlns="http://www.w3.org/2000/svg" viewBox="0 0 16 16" width="16px" height="16px"><g><path d="M8 0C4.157 0 1 1.021 1 2.315c0 .34.824 5.174 1.167 7.08.137.886 2.402 2.338 5.833 2.338s5.627-1.452 5.833-2.337C14.176 7.489 15 2.656 15 2.315 14.931 1.02 11.843 0 8 0zm0 10.133C6.788 10.133 5.846 9.2 5.846 8S6.788 5.867 8 5.867 10.154 6.8 10.154 8A2.158 2.158 0 018 10.133zm5.01 1.101c.137 0 .206.136.137.272v.068c-.274 1.43-.48 2.452-.48 2.588C12.46 15.183 10.402 16 7.93 16c-2.47 0-4.529-.817-4.735-1.838 0-.136-.206-1.158-.48-2.588v-.068c0-.204.137-.272.274-.272.069 0 .206.068.206.068S4.912 12.664 8 12.664s4.804-1.362 4.804-1.362.069-.068.206-.068zM8 6.934c.595 0 1.077.477 1.077 1.066 0 .59-.482 1.067-1.077 1.067A1.072 1.072 0 016.923 8c0-.59.482-1.067 1.077-1.067zm0-5.845c2.47 0 4.46.409 4.46.954 0 .544-1.99.953-4.46.953-2.47 0-4.46-.409-4.46-.953 0-.545 1.99-.954 4.46-.954z"></path></g></svg>