<svg xmlns="http://www.w3.org/2000/svg" viewBox="0 0 16 16" width="16px" height="16px"><g><path fill-rule="evenodd" d="M0 7.947c0 3.51 2.292 6.489 5.471 7.54.4.073.546-.173.546-.384 0-.188-.007-.688-.01-1.35-2.226.48-2.695-1.066-2.695-1.066-.364-.918-.889-1.163-.889-1.163-.726-.493.055-.483.055-.483.803.056 1.225.82 1.225.82.715 1.214 1.873.863 2.329.66.073-.514.28-.864.508-1.063-1.777-.2-3.644-.882-3.644-3.927 0-.868.311-1.577.823-2.133-.082-.2-.356-1.009.079-2.102 0 0 .672-.214 2.2.814A7.714 7.714 0 018 3.843c.68.002 1.364.09 2.003.267 1.527-1.028 2.198-.814 2.198-.814.436 1.093.162 1.901.08 2.102.513.556.822 1.265.822 2.133 0 3.052-1.87 3.724-3.652 3.921.287.245.542.73.542 1.471 0 1.063-.01 1.92-.01 2.18 0 .213.145.46.55.382C13.71 14.433 16 11.456 16 7.947 16 3.604 12.492.075 8.138 0h-.139C3.582 0 0 3.558 0 7.947z"></path></g></svg>