<svg xmlns="http://www.w3.org/2000/svg" viewBox="0 0 16 16" width="16px" height="16px"><g><path fill-rule="evenodd" d="M13.23 8.277l.556.223c.17.07.234.219.165.389l-.138.34c-.04.158.02.38.13.474l.371.372c.124.124.3.12.45.057l.33-.14c.15-.064.32.005.337.21l.28.657a.29.29 0 01-.156.383l-.33.14c-.15.064-.305.2-.271.362l.01.524a.393.393 0 00.251.423l.342.137c.171.069.235.218.165.389l-.224.553c-.07.17-.22.234-.39.165l-.343-.137c-.158-.039-.38.02-.475.131l-.374.37c-.125.123-.121.298-.058.447l.127.3a.29.29 0 01-.155.382l-.66.28a.292.292 0 01-.386-.155l-.14-.328c-.063-.15-.187-.274-.362-.27l-.527.012a.396.396 0 00-.425.25l-.138.34c-.07.17-.22.234-.39.166l-.556-.223c-.17-.07-.234-.219-.165-.389l.138-.34c.04-.158-.02-.38-.13-.474l-.371-.372c-.124-.124-.3-.12-.45-.057l-.33.14a.292.292 0 01-.385-.154l-.28-.658a.29.29 0 01.156-.383l.33-.14c.15-.063.305-.2.29-.404l-.012-.524a.393.393 0 00-.25-.423l-.342-.138c-.171-.068-.235-.218-.166-.388l.225-.554c.07-.17.22-.233.39-.165l.343.138c.158.038.38-.02.475-.131l.374-.37c.125-.123.121-.298.058-.448l-.14-.328c-.064-.15.036-.333.186-.396l.63-.267a.292.292 0 01.385.154l.14.33c.063.148.2.302.405.286l.527-.012a.396.396 0 00.425-.25l.138-.34c.07-.17.22-.234.39-.166zm-1.858 2.087a1.768 1.768 0 00-1.008 2.264 1.768 1.768 0 002.264 1.008 1.768 1.768 0 001.008-2.264 1.768 1.768 0 00-2.264-1.008zM6.042 0c.23 0 .414.184.414.414v.507c0 .23.093.506.37.598l.691.276a.56.56 0 00.692-.092l.369-.368c.184-.184.415-.184.6 0l.599.598c.184.184.184.414 0 .598l-.37.369c-.138.184-.184.506-.091.69l.276.69c.092.23.323.323.554.323h.507c.23 0 .415.184.323.46v1.012c0 .23-.185.415-.415.415h-.508c-.23 0-.507.092-.553.322l-.277.69a.557.557 0 00.093.69l.368.369c.185.184.185.414 0 .598l-.599.598c-.185.184-.415.184-.6 0l-.368-.368c-.185-.138-.508-.184-.692-.092l-.692.276c-.23.092-.323.322-.323.553v.46c0 .23-.184.414-.415.414H4.981a.413.413 0 01-.415-.414v-.507c0-.23-.093-.46-.323-.552l-.692-.276a.56.56 0 00-.692.092l-.369.368c-.184.184-.415.184-.6 0l-.599-.598c-.184-.184-.184-.414 0-.598l.37-.369c.138-.184.184-.506.091-.69l-.276-.69c-.093-.23-.323-.322-.554-.322H.415A.413.413 0 010 6.029V5.017c0-.23.184-.414.415-.414h.507c.23 0 .508-.093.6-.369l.277-.69a.557.557 0 00-.093-.69l-.369-.369c-.184-.184-.184-.414 0-.598l.6-.598c.184-.184.415-.184.6 0l.368.368c.185.138.508.184.692.092l.692-.276c.23-.092.323-.322.323-.552V.414c0-.23.23-.414.46-.414zM5.5 3A2.522 2.522 0 003 5.5C3 6.864 4.136 8 5.5 8S8 6.864 8 5.5 6.864 3 5.5 3z"></path></g></svg>