<svg xmlns="http://www.w3.org/2000/svg" viewBox="0 0 16 16" width="16px" height="16px"><g><path fill-rule="evenodd" d="M8.883.69l5.23 2.712c.49.254.887.91.887 1.467v6.199c0 .565-.397 1.213-.887 1.467l-5.23 2.711c-.49.254-1.284.254-1.773 0l-5.224-2.711C1.396 12.28 1 11.624 1 11.068v-6.2c0-.565.397-1.212.886-1.466L7.11.69C7.6.436 8.393.437 8.883.69zM7.549 1.812l-5.098 2.57A.896.896 0 002 5.115v5.728c0 .28.2.607.451.732l.39.196 2.691-2.303.468-3c0-.161.392-.892.5-1l.703-.784c.108-.108.323-.216.485-.216h1.779c.161 0 .27.108.27.162 0 .054-.109.216-.216.323L8.227 6.247C8.12 6.355 8 6.968 8 6.968l1.5 1.5s.614-.011.721-.12l1.294-1.293c.108-.107.27-.215.323-.215.108 0 .162.108.162.27v1.724c0 .162-.108.377-.216.377L11 9.968c-.108.108-.838.5-1 .5l-2.5.462-2.008 2.167 2.057 1.03c.25.124.65.126.902 0l5.098-2.552a.892.892 0 00.451-.732V5.115c0-.28-.2-.607-.451-.734l-5.098-2.57a1.122 1.122 0 00-.902 0z"></path></g></svg>