<svg xmlns="http://www.w3.org/2000/svg" viewBox="0 0 16 16" width="16px" height="16px"><g><path d="M9.29.312l5.422 2.834C15.51 3.563 16 4.333 16 5.166v5.668c0 .833-.49 1.603-1.288 2.02L9.29 15.687a2.81 2.81 0 01-2.577 0L1.29 12.854C.49 12.437 0 11.667 0 10.834V5.166c0-.833.49-1.603 1.289-2.02L6.712.312a2.816 2.816 0 012.577 0zm-2.069.975L1.798 4.121c-.443.232-.698.632-.698 1.045v5.668c0 .413.255.813.698 1.045l5.423 2.833c.479.25 1.08.25 1.559 0l5.422-2.833c.443-.231.698-.632.698-1.045V5.166c0-.414-.255-.813-.697-1.045L8.78 1.287a1.716 1.716 0 00-1.559 0zm4.062 5.71l2 .884a.7.7 0 01.417.64v2.358a.7.7 0 01-.417.64l-2 .884a.7.7 0 01-.566 0l-2-.884a.7.7 0 01-.417-.64V8.52a.7.7 0 01.417-.64l2-.884a.7.7 0 01.566 0zm-6 0l2 .884a.7.7 0 01.417.64v2.358a.7.7 0 01-.417.64l-2 .884a.7.7 0 01-.566 0l-2-.884a.7.7 0 01-.417-.64V8.52a.7.7 0 01.417-.64l2-.884a.7.7 0 01.566 0zM5 7.637L3 8.52v2.358l2 .884 2-.884V8.52l-2-.884zm6 0L9 8.52v2.358l2 .884 2-.884V8.52l-2-.884zM8.283 2.16l2 .884a.7.7 0 01.417.64v2.358a.7.7 0 01-.417.64l-2 .884a.7.7 0 01-.566 0l-2-.884a.7.7 0 01-.417-.64V3.684a.7.7 0 01.417-.64l2-.884a.7.7 0 01.566 0zM8 2.8l-2 .884v2.358l2 .884 2-.884V3.684L8 2.8z"></path></g></svg>