<svg xmlns="http://www.w3.org/2000/svg" viewBox="0 0 16 16" width="16px" height="16px"><g><path d="M8.17.026l7.32 1.941c.306.068.511.34.51.647-.034 9.094-1.884 10.99-7.626 13.284C8.26 15.943 8.136 16 8 16s-.26-.057-.374-.102C1.884 13.603.034 11.708 0 2.614a.655.655 0 01.51-.647L7.83.026a.58.58 0 01.34 0zm-.166.988L1 2.871c.055 7.943 1.266 9.808 6.996 12.098 5.736-2.29 6.947-4.155 7.002-12.098L8.004 1.014zm3.279 5.683l2 .884a.7.7 0 01.417.64v2.358a.7.7 0 01-.417.64l-2 .884a.7.7 0 01-.566 0l-2-.884a.7.7 0 01-.417-.64V8.22a.7.7 0 01.417-.64l2-.884a.7.7 0 01.566 0zm-6 0l2 .884a.7.7 0 01.417.64v2.358a.7.7 0 01-.417.64l-2 .884a.7.7 0 01-.566 0l-2-.884a.7.7 0 01-.417-.64V8.22a.7.7 0 01.417-.64l2-.884a.7.7 0 01.566 0zM5 7.337L3 8.22v2.358l2 .884 2-.884V8.22l-2-.884zm6 0L9 8.22v2.358l2 .884 2-.884V8.22l-2-.884zM8.283 1.86l2 .884a.7.7 0 01.417.64v2.358a.7.7 0 01-.417.64l-2 .884a.7.7 0 01-.566 0l-2-.884a.7.7 0 01-.417-.64V3.384a.7.7 0 01.417-.64l2-.884a.7.7 0 01.566 0zM8 2.5l-2 .884v2.358l2 .884 2-.884V3.384L8 2.5z"></path></g></svg>