<svg xmlns="http://www.w3.org/2000/svg" viewBox="0 0 16 16" width="16px" height="16px"><g><path fill-rule="evenodd" d="M12.164 7.333a4.143 4.143 0 01-1.252 3.639c-1.536 1.466-3.904 1.646-5.647.545l1.221-1.152L2 9.76 2.626 14l1.37-1.27c2.46 1.755 5.949 1.59 8.184-.545a5.817 5.817 0 001.814-4.502l-1.83-.35zM5.09 5.03c1.535-1.466 3.903-1.648 5.646-.546L9.513 5.636 14 6.24 13.374 2l-1.368 1.273c-2.461-1.757-5.95-1.589-8.186.545a5.814 5.814 0 00-1.814 4.5l1.83.349A4.14 4.14 0 015.09 5.03z"></path></g></svg>