<svg xmlns="http://www.w3.org/2000/svg" viewBox="0 0 16 16" width="16px" height="16px"><g><path d="M9.47 3.56c.531.539.95 1.118.95 2.757 0 1.638-.583 2.836-1.083 3.267-.292.253-.254.314-.254.534 0 .592 1.229.818 1.337.834.828.104 1.099.113 1.64.531.621.48 1.083 1.08 1.083 1.66 0 .577-.27.857-.812.857H3.713c-.498 0-.856-.318-.856-.858s.541-1.365 1.083-1.659c.541-.294.812-.427 1.607-.531 0 0 1.354-.308 1.354-.834 0-.22.034-.305-.233-.534-.505-.431-1.12-1.629-1.12-3.267 0-1.639.706-2.476.983-2.758.734-.745 2.204-.745 2.938 0zm3.554-1.102c.436.441.78.915.78 2.256 0 1.34-.479 2.32-.889 2.673-.24.207-.208.257-.208.437 0 .484 1.008.67 1.097.682.68.085.901.092 1.345.435.51.392.888.884.888 1.357s-.222.702-.666.702h-2.027a2.605 2.605 0 00-.833-.628c-1.368-.658-2.126-.646-2.225-.658.508-.777 1.115-2.08 1.115-3.263 0-1.373-.407-2.738-1.093-3.611a2.4 2.4 0 01.305-.382c.603-.61 1.808-.61 2.411 0zm-7.6 0c.109.11.211.221.304.348-.636.831-1.16 2.336-1.16 3.645 0 1.18.626 2.516 1.146 3.295-.742.098-.857-.032-2.087.538a2.73 2.73 0 00-.905.716H.702C.294 11 0 10.74 0 10.298c0-.442.444-1.116.888-1.357.444-.241.666-.35 1.319-.435 0 0 1.11-.252 1.11-.682l.001-.118c-.002-.104-.028-.179-.192-.319-.414-.353-.92-1.333-.92-2.673 0-1.341.58-2.026.807-2.256.603-.61 1.808-.61 2.411 0z"></path></g></svg>