<svg xmlns="http://www.w3.org/2000/svg" viewBox="0 0 16 16" width="16px" height="16px"><g><path fill-rule="evenodd" d="M13.895 15H2.165C1.487 15 1 14.596 1 13.908c0-.688.737-1.737 1.474-2.111.737-.375 1.105-.544 2.188-.677 0 0 1.842-.391 1.842-1.061 0-.28.046-.388-.317-.679-.687-.55-1.525-2.073-1.525-4.159 0-2.085.961-3.151 1.338-3.51 1-.948 3-.948 4 0 .724.688 1.293 1.425 1.293 3.51 0 2.086-.793 3.61-1.473 4.159-.398.321-.346.4-.346.679 0 .754 1.673 1.041 1.82 1.061 1.127.133 1.495.144 2.232.677.846.61 1.474 1.375 1.474 2.111 0 .736-.368 1.092-1.105 1.092z"></path></g></svg>