<svg xmlns="http://www.w3.org/2000/svg" viewBox="0 0 16 16" width="16px" height="16px"><g><path fill-rule="evenodd" d="M3.321 3.263l.08.066 2.958 2.958.998.999 4.69 4.69.647.646a.571.571 0 01-.809.808l-.954-.954A8.33 8.33 0 018.022 13C5.255 13 2.656 11.643.225 8.93c-.301-.238-.299-.624 0-.86 1.105-1.24 2.248-2.199 3.43-2.872L2.591 4.137a.571.571 0 01.73-.874zM8.022 4c2.782.001 5.366 1.358 7.753 4.07.299.236.301.622 0 .86-.882.996-1.788 1.809-2.719 2.44l-2.322-2.324a2.768 2.768 0 00-3.262-3.26L5.949 4.258A8.353 8.353 0 018.022 4zM5.606 7.15a2.768 2.768 0 003.767 3.767L8.31 9.855a1.384 1.384 0 01-1.642-1.64L5.607 7.15z"></path></g></svg>