<svg xmlns="http://www.w3.org/2000/svg" viewBox="0 0 16 16" width="16px" height="16px"><g><path fill-rule="evenodd" d="M10.078 3.318l4.408 7.243c1.149 1.887.295 3.417-1.916 3.417H3.428c-2.207 0-3.062-1.534-1.91-3.426l4.396-7.225c1.151-1.892 3.018-1.893 4.164-.01zm-1.031.397c-.576-.943-1.516-.947-2.094 0l-4.606 7.547c-.576.944-.149 1.716.96 1.716h9.387c1.106 0 1.537-.768.96-1.716zM8 10.824a.614.614 0 11-.002 1.233A.614.614 0 018 10.824zm-.003-6.15l-.083-.004c.555 0 1.109.432 1.142.99 0 0 .17-.386-.137 1.471-.306 1.858-.627 2.731-.627 2.731-.161.531-.427.535-.584 0 0 0-.32-.873-.627-2.73-.285-1.725-.158-1.538-.139-1.503l.002.003.023-.11a1.18 1.18 0 011-.846l.03-.002z"></path></g></svg>