<svg xmlns="http://www.w3.org/2000/svg" viewBox="0 0 16 16" width="16px" height="16px"><g><path fill-rule="evenodd" d="M4.566 9.81c-.764 0-1.382.648-1.382 1.448 0 .8.618 1.45 1.382 1.45.764 0 1.383-.65 1.383-1.45 0-.275-.072-.531-.199-.75L6.946 8.01a.596.596 0 00-.156-.718 2.34 2.34 0 01-.852-1.823c0-1.274.986-2.305 2.198-2.305 1.213 0 2.199 1.031 2.199 2.305 0 .217-.028.428-.083.63-.084.31.09.63.388.718a.559.559 0 00.691-.403c.083-.304.125-.622.125-.945C11.456 3.555 9.97 2 8.136 2 6.302 2 4.817 3.555 4.817 5.469c0 .918.343 1.778.937 2.416l-.933 1.95a1.225 1.225 0 00-.255-.025zm4.783-3.6c.134-.223.212-.487.212-.77 0-.8-.619-1.447-1.384-1.447-.763 0-1.382.647-1.382 1.447 0 .799.619 1.448 1.382 1.448.082 0 .161-.009.238-.022l1.13 2.208a.55.55 0 00.817.203c.372-.272.814-.42 1.277-.42 1.236 0 2.24 1.05 2.24 2.35 0 1.298-1.004 2.348-2.24 2.348a2.16 2.16 0 01-1.385-.503.547.547 0 00-.788.092.597.597 0 00.089.818 3.262 3.262 0 002.084.758c1.858 0 3.361-1.575 3.361-3.514 0-1.938-1.503-3.512-3.361-3.512A3.23 3.23 0 0010.265 8l-.916-1.79zm1.102 5.77c.239.421.677.701 1.177.701.758 0 1.372-.642 1.372-1.435 0-.792-.614-1.435-1.372-1.435-.615 0-1.134.423-1.308 1.006H7.596a.57.57 0 00-.56.557c-.056 1.377-1.138 2.462-2.456 2.462-1.357 0-2.459-1.153-2.459-2.578 0-1.163.741-2.172 1.791-2.482a.584.584 0 00.386-.719.558.558 0 00-.693-.4C2.075 8.107 1 9.573 1 11.257 1 13.323 2.601 15 4.58 15c1.738 0 3.192-1.294 3.513-3.02h2.358z"></path></g></svg>